<?xml version="1.0" encoding="UTF-8" standalone="no"?><svg xmlns="http://www.w3.org/2000/svg" xmlns:xlink="http://www.w3.org/1999/xlink" contentScriptType="application/ecmascript" contentStyleType="text/css" height="437px" preserveAspectRatio="none" style="width:478px;height:437px;" version="1.1" viewBox="0 0 478 437" width="478px" zoomAndPan="magnify"><defs><filter height="300%" id="f1jjltn5rezrqn" width="300%" x="-1" y="-1"><feGaussianBlur result="blurOut" stdDeviation="2.0"/><feColorMatrix in="blurOut" result="blurOut2" type="matrix" values="0 0 0 0 0 0 0 0 0 0 0 0 0 0 0 0 0 0 .4 0"/><feOffset dx="4.0" dy="4.0" in="blurOut2" result="blurOut3"/><feBlend in="SourceGraphic" in2="blurOut3" mode="normal"/></filter></defs><g><!--MD5=[7d75efcc7d06b347edea0516f6aac1d8]
class BaseEntity--><rect codeLine="6" fill="#F8F8F8" filter="url(#f1jjltn5rezrqn)" height="61.8359" id="BaseEntity" style="stroke: #383838; stroke-width: 1.5;" width="90" x="237.5" y="14"/><ellipse cx="252.5" cy="30" fill="#CDCDCD" rx="11" ry="11" style="stroke: #383838; stroke-width: 1.0;"/><path d="M254.6875,31.7656 L250.5469,31.7656 L250.125,32.7969 L250.5469,32.7969 Q251.1563,32.7969 251.4219,33.0313 Q251.6875,33.2656 251.6875,33.6563 Q251.6875,34.0313 251.4219,34.2656 Q251.1563,34.5 250.5469,34.5 L248.25,34.5 Q247.6406,34.5 247.3906,34.2656 Q247.125,34.0313 247.125,33.6406 Q247.125,33.2656 247.4063,33.0313 Q247.6719,32.7813 248.2969,32.7969 L250.9688,26.1406 L249.8594,26.1406 Q249.25,26.1406 248.9844,25.9063 Q248.7188,25.6719 248.7188,25.2813 Q248.7188,24.9063 248.9844,24.6719 Q249.25,24.4375 249.8594,24.4375 L253.5313,24.4375 L256.9219,32.7969 Q257.5156,32.7969 257.7031,32.9375 Q258.0938,33.2031 258.0938,33.6563 Q258.0938,34.0313 257.8281,34.2656 Q257.5781,34.5 256.9688,34.5 L254.6719,34.5 Q254.0625,34.5 253.7969,34.2656 Q253.5313,34.0313 253.5313,33.6406 Q253.5313,33.2656 253.7969,33.0313 Q254.0625,32.7969 254.6719,32.7969 L255.0938,32.7969 L254.6875,31.7656 Z M253.9688,30.0625 L252.6094,26.6875 L251.2344,30.0625 L253.9688,30.0625 Z "/><text fill="#000000" font-family="sans-serif" font-size="12" font-style="italic" lengthAdjust="spacingAndGlyphs" textLength="58" x="266.5" y="34.9102">BaseEntity</text><line style="stroke: #383838; stroke-width: 1.5;" x1="238.5" x2="326.5" y1="46" y2="46"/><text fill="#000000" font-family="sans-serif" font-size="11" lengthAdjust="spacingAndGlyphs" textLength="38" x="243.5" y="61.4189">-id: long</text><line style="stroke: #383838; stroke-width: 1.5;" x1="238.5" x2="326.5" y1="67.8359" y2="67.8359"/><!--MD5=[f9a29335b499db729be669fd1bd54958]
class Account--><rect codeLine="13" fill="#F8F8F8" filter="url(#f1jjltn5rezrqn)" height="61.8359" id="Account" style="stroke: #383838; stroke-width: 1.5;" width="75" x="21" y="355"/><ellipse cx="36" cy="371" fill="#C2C2C2" rx="11" ry="11" style="stroke: #383838; stroke-width: 1.0;"/><path d="M38.7656,366.875 Q38.9219,366.6563 39.1094,366.5469 Q39.2969,366.4375 39.5156,366.4375 Q39.8906,366.4375 40.125,366.7031 Q40.3594,366.9531 40.3594,367.5625 L40.3594,369.0156 Q40.3594,369.625 40.125,369.8906 Q39.8906,370.1563 39.5156,370.1563 Q39.1719,370.1563 38.9688,369.9531 Q38.7656,369.7656 38.6563,369.25 Q38.6094,368.8906 38.4219,368.7031 Q38.0938,368.3281 37.4844,368.1094 Q36.875,367.8906 36.25,367.8906 Q35.4844,367.8906 34.8438,368.2188 Q34.2188,368.5469 33.7188,369.2969 Q33.2344,370.0469 33.2344,371.0781 L33.2344,372.1719 Q33.2344,373.4063 34.125,374.2344 Q35.0156,375.0469 36.6094,375.0469 Q37.5469,375.0469 38.2031,374.7969 Q38.5938,374.6406 39.0156,374.2031 Q39.2813,373.9375 39.4219,373.8594 Q39.5781,373.7813 39.7813,373.7813 Q40.1094,373.7813 40.3594,374.0469 Q40.625,374.2969 40.625,374.6406 Q40.625,374.9844 40.2813,375.3906 Q39.7813,375.9688 38.9844,376.2969 Q37.9063,376.75 36.6094,376.75 Q35.0938,376.75 33.8906,376.125 Q32.9063,375.625 32.2188,374.5625 Q31.5313,373.4844 31.5313,372.2031 L31.5313,371.0469 Q31.5313,369.7188 32.1406,368.5781 Q32.7656,367.4219 33.8594,366.8125 Q34.9531,366.1875 36.1875,366.1875 Q36.9219,366.1875 37.5625,366.3594 Q38.2188,366.5156 38.7656,366.875 Z "/><text fill="#000000" font-family="sans-serif" font-size="12" lengthAdjust="spacingAndGlyphs" textLength="43" x="50" y="375.9102">Account</text><line style="stroke: #383838; stroke-width: 1.5;" x1="22" x2="95" y1="387" y2="387"/><text fill="#000000" font-family="sans-serif" font-size="11" lengthAdjust="spacingAndGlyphs" textLength="58" x="27" y="402.4189">-iban: String</text><line style="stroke: #383838; stroke-width: 1.5;" x1="22" x2="95" y1="408.8359" y2="408.8359"/><!--MD5=[0f39e4cb6f03951afbf6d14bd2505654]
class Address--><rect codeLine="17" fill="#F8F8F8" filter="url(#f1jjltn5rezrqn)" height="117.1797" id="Address" style="stroke: #383838; stroke-width: 1.5;" width="87" x="145" y="157"/><ellipse cx="164.05" cy="173" fill="#C2C2C2" rx="11" ry="11" style="stroke: #383838; stroke-width: 1.0;"/><path d="M166.8156,168.875 Q166.9719,168.6563 167.1594,168.5469 Q167.3469,168.4375 167.5656,168.4375 Q167.9406,168.4375 168.175,168.7031 Q168.4094,168.9531 168.4094,169.5625 L168.4094,171.0156 Q168.4094,171.625 168.175,171.8906 Q167.9406,172.1563 167.5656,172.1563 Q167.2219,172.1563 167.0188,171.9531 Q166.8156,171.7656 166.7063,171.25 Q166.6594,170.8906 166.4719,170.7031 Q166.1438,170.3281 165.5344,170.1094 Q164.925,169.8906 164.3,169.8906 Q163.5344,169.8906 162.8938,170.2188 Q162.2688,170.5469 161.7688,171.2969 Q161.2844,172.0469 161.2844,173.0781 L161.2844,174.1719 Q161.2844,175.4063 162.175,176.2344 Q163.0656,177.0469 164.6594,177.0469 Q165.5969,177.0469 166.2531,176.7969 Q166.6438,176.6406 167.0656,176.2031 Q167.3313,175.9375 167.4719,175.8594 Q167.6281,175.7813 167.8313,175.7813 Q168.1594,175.7813 168.4094,176.0469 Q168.675,176.2969 168.675,176.6406 Q168.675,176.9844 168.3313,177.3906 Q167.8313,177.9688 167.0344,178.2969 Q165.9563,178.75 164.6594,178.75 Q163.1438,178.75 161.9406,178.125 Q160.9563,177.625 160.2688,176.5625 Q159.5813,175.4844 159.5813,174.2031 L159.5813,173.0469 Q159.5813,171.7188 160.1906,170.5781 Q160.8156,169.4219 161.9094,168.8125 Q163.0031,168.1875 164.2375,168.1875 Q164.9719,168.1875 165.6125,168.3594 Q166.2688,168.5156 166.8156,168.875 Z "/><text fill="#000000" font-family="sans-serif" font-size="12" lengthAdjust="spacingAndGlyphs" textLength="46" x="178.95" y="177.9102">Address</text><line style="stroke: #383838; stroke-width: 1.5;" x1="146" x2="231" y1="189" y2="189"/><text fill="#000000" font-family="sans-serif" font-size="11" lengthAdjust="spacingAndGlyphs" textLength="66" x="151" y="204.4189">-street: String</text><text fill="#000000" font-family="sans-serif" font-size="11" lengthAdjust="spacingAndGlyphs" textLength="62" x="151" y="218.2549">-houseNr: int</text><text fill="#000000" font-family="sans-serif" font-size="11" lengthAdjust="spacingAndGlyphs" textLength="69" x="151" y="232.0908">-zipCode: long</text><text fill="#000000" font-family="sans-serif" font-size="11" lengthAdjust="spacingAndGlyphs" textLength="55" x="151" y="245.9268">-city: String</text><text fill="#000000" font-family="sans-serif" font-size="11" lengthAdjust="spacingAndGlyphs" textLength="75" x="151" y="259.7627">-country: String</text><line style="stroke: #383838; stroke-width: 1.5;" x1="146" x2="231" y1="266.1797" y2="266.1797"/><!--MD5=[2ce0c9fb7f55b1e256ab28a8ea6b25ec]
class Customer--><rect codeLine="27" fill="#F8F8F8" filter="url(#f1jjltn5rezrqn)" height="144.8516" id="Customer" style="stroke: #383838; stroke-width: 1.5;" width="125" x="339" y="143"/><ellipse cx="371.1" cy="159" fill="#C2C2C2" rx="11" ry="11" style="stroke: #383838; stroke-width: 1.0;"/><path d="M373.8656,154.875 Q374.0219,154.6563 374.2094,154.5469 Q374.3969,154.4375 374.6156,154.4375 Q374.9906,154.4375 375.225,154.7031 Q375.4594,154.9531 375.4594,155.5625 L375.4594,157.0156 Q375.4594,157.625 375.225,157.8906 Q374.9906,158.1563 374.6156,158.1563 Q374.2719,158.1563 374.0688,157.9531 Q373.8656,157.7656 373.7563,157.25 Q373.7094,156.8906 373.5219,156.7031 Q373.1938,156.3281 372.5844,156.1094 Q371.975,155.8906 371.35,155.8906 Q370.5844,155.8906 369.9438,156.2188 Q369.3188,156.5469 368.8188,157.2969 Q368.3344,158.0469 368.3344,159.0781 L368.3344,160.1719 Q368.3344,161.4063 369.225,162.2344 Q370.1156,163.0469 371.7094,163.0469 Q372.6469,163.0469 373.3031,162.7969 Q373.6938,162.6406 374.1156,162.2031 Q374.3813,161.9375 374.5219,161.8594 Q374.6781,161.7813 374.8813,161.7813 Q375.2094,161.7813 375.4594,162.0469 Q375.725,162.2969 375.725,162.6406 Q375.725,162.9844 375.3813,163.3906 Q374.8813,163.9688 374.0844,164.2969 Q373.0063,164.75 371.7094,164.75 Q370.1938,164.75 368.9906,164.125 Q368.0063,163.625 367.3188,162.5625 Q366.6313,161.4844 366.6313,160.2031 L366.6313,159.0469 Q366.6313,157.7188 367.2406,156.5781 Q367.8656,155.4219 368.9594,154.8125 Q370.0531,154.1875 371.2875,154.1875 Q372.0219,154.1875 372.6625,154.3594 Q373.3188,154.5156 373.8656,154.875 Z "/><text fill="#000000" font-family="sans-serif" font-size="12" lengthAdjust="spacingAndGlyphs" textLength="55" x="388.9" y="163.9102">Customer</text><line style="stroke: #383838; stroke-width: 1.5;" x1="340" x2="463" y1="175" y2="175"/><text fill="#000000" font-family="sans-serif" font-size="11" lengthAdjust="spacingAndGlyphs" textLength="84" x="345" y="190.4189">-forename: String</text><text fill="#000000" font-family="sans-serif" font-size="11" lengthAdjust="spacingAndGlyphs" textLength="80" x="345" y="204.2549">-surname: String</text><text fill="#000000" font-family="sans-serif" font-size="11" lengthAdjust="spacingAndGlyphs" textLength="86" x="345" y="218.0908">-username: String</text><text fill="#000000" font-family="sans-serif" font-size="11" lengthAdjust="spacingAndGlyphs" textLength="90" x="345" y="231.9268">-taxNumber: String</text><text fill="#000000" font-family="sans-serif" font-size="11" lengthAdjust="spacingAndGlyphs" textLength="75" x="345" y="245.7627">-birthDate: Date</text><text fill="#000000" font-family="sans-serif" font-size="11" lengthAdjust="spacingAndGlyphs" textLength="113" x="345" y="259.5986">-passwordHash: String</text><text fill="#000000" font-family="sans-serif" font-size="11" lengthAdjust="spacingAndGlyphs" textLength="88" x="345" y="273.4346">-password: String</text><line style="stroke: #383838; stroke-width: 1.5;" x1="340" x2="463" y1="279.8516" y2="279.8516"/><!--MD5=[7421f545a0d8420c5bec41e74b387d9c]
class Employee--><rect codeLine="37" fill="#F8F8F8" filter="url(#f1jjltn5rezrqn)" height="75.6719" id="Employee" style="stroke: #383838; stroke-width: 1.5;" width="105" x="349" y="348"/><ellipse cx="372.1" cy="364" fill="#C2C2C2" rx="11" ry="11" style="stroke: #383838; stroke-width: 1.0;"/><path d="M374.8656,359.875 Q375.0219,359.6563 375.2094,359.5469 Q375.3969,359.4375 375.6156,359.4375 Q375.9906,359.4375 376.225,359.7031 Q376.4594,359.9531 376.4594,360.5625 L376.4594,362.0156 Q376.4594,362.625 376.225,362.8906 Q375.9906,363.1563 375.6156,363.1563 Q375.2719,363.1563 375.0688,362.9531 Q374.8656,362.7656 374.7563,362.25 Q374.7094,361.8906 374.5219,361.7031 Q374.1938,361.3281 373.5844,361.1094 Q372.975,360.8906 372.35,360.8906 Q371.5844,360.8906 370.9438,361.2188 Q370.3188,361.5469 369.8188,362.2969 Q369.3344,363.0469 369.3344,364.0781 L369.3344,365.1719 Q369.3344,366.4063 370.225,367.2344 Q371.1156,368.0469 372.7094,368.0469 Q373.6469,368.0469 374.3031,367.7969 Q374.6938,367.6406 375.1156,367.2031 Q375.3813,366.9375 375.5219,366.8594 Q375.6781,366.7813 375.8813,366.7813 Q376.2094,366.7813 376.4594,367.0469 Q376.725,367.2969 376.725,367.6406 Q376.725,367.9844 376.3813,368.3906 Q375.8813,368.9688 375.0844,369.2969 Q374.0063,369.75 372.7094,369.75 Q371.1938,369.75 369.9906,369.125 Q369.0063,368.625 368.3188,367.5625 Q367.6313,366.4844 367.6313,365.2031 L367.6313,364.0469 Q367.6313,362.7188 368.2406,361.5781 Q368.8656,360.4219 369.9594,359.8125 Q371.0531,359.1875 372.2875,359.1875 Q373.0219,359.1875 373.6625,359.3594 Q374.3188,359.5156 374.8656,359.875 Z "/><text fill="#000000" font-family="sans-serif" font-size="12" lengthAdjust="spacingAndGlyphs" textLength="55" x="387.9" y="368.9102">Employee</text><line style="stroke: #383838; stroke-width: 1.5;" x1="350" x2="453" y1="380" y2="380"/><text fill="#000000" font-family="sans-serif" font-size="11" lengthAdjust="spacingAndGlyphs" textLength="93" x="355" y="395.4189">-designation: String</text><text fill="#000000" font-family="sans-serif" font-size="11" lengthAdjust="spacingAndGlyphs" textLength="72" x="355" y="409.2549">-salary: double</text><line style="stroke: #383838; stroke-width: 1.5;" x1="350" x2="453" y1="415.6719" y2="415.6719"/><!--MD5=[2ca1536628238a7dc78c5d90808014f9]
class Session--><rect codeLine="42" fill="#F8F8F8" filter="url(#f1jjltn5rezrqn)" height="75.6719" id="Session" style="stroke: #383838; stroke-width: 1.5;" width="78" x="362.5" y="7"/><ellipse cx="377.5" cy="23" fill="#C2C2C2" rx="11" ry="11" style="stroke: #383838; stroke-width: 1.0;"/><path d="M380.2656,18.875 Q380.4219,18.6563 380.6094,18.5469 Q380.7969,18.4375 381.0156,18.4375 Q381.3906,18.4375 381.625,18.7031 Q381.8594,18.9531 381.8594,19.5625 L381.8594,21.0156 Q381.8594,21.625 381.625,21.8906 Q381.3906,22.1563 381.0156,22.1563 Q380.6719,22.1563 380.4688,21.9531 Q380.2656,21.7656 380.1563,21.25 Q380.1094,20.8906 379.9219,20.7031 Q379.5938,20.3281 378.9844,20.1094 Q378.375,19.8906 377.75,19.8906 Q376.9844,19.8906 376.3438,20.2188 Q375.7188,20.5469 375.2188,21.2969 Q374.7344,22.0469 374.7344,23.0781 L374.7344,24.1719 Q374.7344,25.4063 375.625,26.2344 Q376.5156,27.0469 378.1094,27.0469 Q379.0469,27.0469 379.7031,26.7969 Q380.0938,26.6406 380.5156,26.2031 Q380.7813,25.9375 380.9219,25.8594 Q381.0781,25.7813 381.2813,25.7813 Q381.6094,25.7813 381.8594,26.0469 Q382.125,26.2969 382.125,26.6406 Q382.125,26.9844 381.7813,27.3906 Q381.2813,27.9688 380.4844,28.2969 Q379.4063,28.75 378.1094,28.75 Q376.5938,28.75 375.3906,28.125 Q374.4063,27.625 373.7188,26.5625 Q373.0313,25.4844 373.0313,24.2031 L373.0313,23.0469 Q373.0313,21.7188 373.6406,20.5781 Q374.2656,19.4219 375.3594,18.8125 Q376.4531,18.1875 377.6875,18.1875 Q378.4219,18.1875 379.0625,18.3594 Q379.7188,18.5156 380.2656,18.875 Z "/><text fill="#000000" font-family="sans-serif" font-size="12" lengthAdjust="spacingAndGlyphs" textLength="46" x="391.5" y="27.9102">Session</text><line style="stroke: #383838; stroke-width: 1.5;" x1="363.5" x2="439.5" y1="39" y2="39"/><text fill="#000000" font-family="sans-serif" font-size="11" lengthAdjust="spacingAndGlyphs" textLength="53" x="368.5" y="54.4189">-uuid: UUID</text><text fill="#000000" font-family="sans-serif" font-size="11" lengthAdjust="spacingAndGlyphs" textLength="53" x="368.5" y="68.2549">-date: Date</text><line style="stroke: #383838; stroke-width: 1.5;" x1="363.5" x2="439.5" y1="74.6719" y2="74.6719"/><!--MD5=[02f52dd76b6d93c484e98adf8cb1a92d]
class Transfer--><rect codeLine="47" fill="#F8F8F8" filter="url(#f1jjltn5rezrqn)" height="89.5078" id="Transfer" style="stroke: #383838; stroke-width: 1.5;" width="103" x="7" y="170.5"/><ellipse cx="33.25" cy="186.5" fill="#C2C2C2" rx="11" ry="11" style="stroke: #383838; stroke-width: 1.0;"/><path d="M36.0156,182.375 Q36.1719,182.1563 36.3594,182.0469 Q36.5469,181.9375 36.7656,181.9375 Q37.1406,181.9375 37.375,182.2031 Q37.6094,182.4531 37.6094,183.0625 L37.6094,184.5156 Q37.6094,185.125 37.375,185.3906 Q37.1406,185.6563 36.7656,185.6563 Q36.4219,185.6563 36.2188,185.4531 Q36.0156,185.2656 35.9063,184.75 Q35.8594,184.3906 35.6719,184.2031 Q35.3438,183.8281 34.7344,183.6094 Q34.125,183.3906 33.5,183.3906 Q32.7344,183.3906 32.0938,183.7188 Q31.4688,184.0469 30.9688,184.7969 Q30.4844,185.5469 30.4844,186.5781 L30.4844,187.6719 Q30.4844,188.9063 31.375,189.7344 Q32.2656,190.5469 33.8594,190.5469 Q34.7969,190.5469 35.4531,190.2969 Q35.8438,190.1406 36.2656,189.7031 Q36.5313,189.4375 36.6719,189.3594 Q36.8281,189.2813 37.0313,189.2813 Q37.3594,189.2813 37.6094,189.5469 Q37.875,189.7969 37.875,190.1406 Q37.875,190.4844 37.5313,190.8906 Q37.0313,191.4688 36.2344,191.7969 Q35.1563,192.25 33.8594,192.25 Q32.3438,192.25 31.1406,191.625 Q30.1563,191.125 29.4688,190.0625 Q28.7813,188.9844 28.7813,187.7031 L28.7813,186.5469 Q28.7813,185.2188 29.3906,184.0781 Q30.0156,182.9219 31.1094,182.3125 Q32.2031,181.6875 33.4375,181.6875 Q34.1719,181.6875 34.8125,181.8594 Q35.4688,182.0156 36.0156,182.375 Z "/><text fill="#000000" font-family="sans-serif" font-size="12" lengthAdjust="spacingAndGlyphs" textLength="46" x="49.75" y="191.4102">Transfer</text><line style="stroke: #383838; stroke-width: 1.5;" x1="8" x2="109" y1="202.5" y2="202.5"/><text fill="#000000" font-family="sans-serif" font-size="11" lengthAdjust="spacingAndGlyphs" textLength="77" x="13" y="217.9189">-amount: double</text><text fill="#000000" font-family="sans-serif" font-size="11" lengthAdjust="spacingAndGlyphs" textLength="53" x="13" y="231.7549">-date: Date</text><text fill="#000000" font-family="sans-serif" font-size="11" lengthAdjust="spacingAndGlyphs" textLength="91" x="13" y="245.5908">-description: String</text><line style="stroke: #383838; stroke-width: 1.5;" x1="8" x2="109" y1="252.0078" y2="252.0078"/><!--MD5=[b4094daf9f7d590234aa4fa208e27ce7]
link Session to Customer--><path codeLine="55" d="M401.5,83.26 C401.5,100.84 401.5,122.29 401.5,142.75 " fill="none" id="Session-Customer" style="stroke: #383838; stroke-width: 1.0;"/><text fill="#000000" font-family="sans-serif" font-size="13" lengthAdjust="spacingAndGlyphs" textLength="20" x="379.9063" y="104.182">0..*</text><text fill="#000000" font-family="sans-serif" font-size="13" lengthAdjust="spacingAndGlyphs" textLength="7" x="394.1391" y="131.9436">1</text><!--MD5=[cc86f912536a41a358bf474feaa8a8fa]
link Customer to Account--><path codeLine="56" d="M344,288.02 C344,338.57 344,397 344,397 C344,397 109.12,397 109.12,397 " fill="none" id="Customer-to-Account" style="stroke: #383838; stroke-width: 1.0;"/><polygon fill="#383838" points="96.12,397,102.12,401,108.12,397,102.12,393,96.12,397" style="stroke: #383838; stroke-width: 1.0;"/><text fill="#000000" font-family="sans-serif" font-size="13" lengthAdjust="spacingAndGlyphs" textLength="7" x="330.9953" y="309.4659">1</text><text fill="#000000" font-family="sans-serif" font-size="13" lengthAdjust="spacingAndGlyphs" textLength="20" x="104.0071" y="395.0347">0..*</text><!--MD5=[4d6cd11ed83cfd80edd9ca09c146b760]
reverse link Address to Customer--><path codeLine="57" d="M245.12,216 C245.12,216 338.96,216 338.96,216 " fill="none" id="Address-backto-Customer" style="stroke: #383838; stroke-width: 1.0;"/><polygon fill="#FFFFFF" points="232.12,216,238.12,220,244.12,216,238.12,212,232.12,216" style="stroke: #383838; stroke-width: 1.0;"/><text fill="#000000" font-family="sans-serif" font-size="13" lengthAdjust="spacingAndGlyphs" textLength="7" x="239.9243" y="212.2672">1</text><text fill="#000000" font-family="sans-serif" font-size="13" lengthAdjust="spacingAndGlyphs" textLength="20" x="311.0259" y="212.7021">1..*</text><!--MD5=[36563a756307975dce7f8a8b2e0cd6b8]
link Transfer to Account--><path codeLine="58" d="M39.75,260.74 C39.75,290.44 39.75,328.51 39.75,354.84 " fill="none" id="Transfer-Account" style="stroke: #383838; stroke-width: 1.0;"/><text fill="#000000" font-family="sans-serif" font-size="13" lengthAdjust="spacingAndGlyphs" textLength="20" x="15.8867" y="281.4459">0..*</text><text fill="#000000" font-family="sans-serif" font-size="13" lengthAdjust="spacingAndGlyphs" textLength="7" x="28.1609" y="344.3115">1</text><!--MD5=[36563a756307975dce7f8a8b2e0cd6b8]
link Transfer to Account--><path codeLine="59" d="M58.5,260.74 C58.5,290.44 58.5,328.51 58.5,354.84 " fill="none" id="Transfer-Account-1" style="stroke: #383838; stroke-width: 1.0;"/><text fill="#000000" font-family="sans-serif" font-size="13" lengthAdjust="spacingAndGlyphs" textLength="20" x="59.8438" y="281.4459">0..*</text><text fill="#000000" font-family="sans-serif" font-size="13" lengthAdjust="spacingAndGlyphs" textLength="7" x="50.7781" y="344.3115">1</text><!--MD5=[36563a756307975dce7f8a8b2e0cd6b8]
link Transfer to Account--><!--MD5=[46a6c4790507828b8686583c940a361f]
link Customer to Employee--><path codeLine="60" d="M384,288.3 C384,308.76 384,330.19 384,347.75 " fill="none" id="Customer-Employee" style="stroke: #383838; stroke-width: 1.0;"/><text fill="#000000" font-family="sans-serif" font-size="13" lengthAdjust="spacingAndGlyphs" textLength="20" x="361.4648" y="309.2669">0..*</text><text fill="#000000" font-family="sans-serif" font-size="13" lengthAdjust="spacingAndGlyphs" textLength="7" x="373.2594" y="337.0674">1</text><!--MD5=[7b38b1a03d69635baab249727a051e09]
reverse link Customer to Employee--><path codeLine="68" d="M419,308.3 C419,308.3 419,347.75 419,347.75 " fill="none" id="Customer-backto-Employee" style="stroke: #383838; stroke-width: 1.0;"/><polygon fill="none" points="412,308.3,419,288.3,426,308.3,412,308.3" style="stroke: #383838; stroke-width: 1.0;"/><!--MD5=[34597a76d6e7db1b47c381bededa1ac9]
reverse link BaseEntity to Account--><path codeLine="62" d="M282.5,96.14 C282.5,96.14 282.5,376 282.5,376 C282.5,376 160.08,376 96.25,376 " fill="none" id="BaseEntity-backto-Account" style="stroke: #383838; stroke-width: 1.0;"/><polygon fill="none" points="275.5,96.14,282.5,76.14,289.5,96.14,275.5,96.14" style="stroke: #383838; stroke-width: 1.0;"/><!--MD5=[ce4d489da85c354997fcd4d08f86025b]
reverse link BaseEntity to Address--><path codeLine="63" d="M217.43,56 C217.43,56 188.5,56 188.5,56 C188.5,56 188.5,111.13 188.5,156.56 " fill="none" id="BaseEntity-backto-Address" style="stroke: #383838; stroke-width: 1.0;"/><polygon fill="none" points="217.43,49,237.43,56,217.43,63,217.43,49" style="stroke: #383838; stroke-width: 1.0;"/><!--MD5=[bc54b0ba153481f05c659c81931e9d93]
reverse link BaseEntity to Customer--><path codeLine="64" d="M347.64,61 C347.64,61 350.75,61 350.75,61 C350.75,61 350.75,102.7 350.75,142.77 " fill="none" id="BaseEntity-backto-Customer" style="stroke: #383838; stroke-width: 1.0;"/><polygon fill="none" points="347.64,68,327.64,61,347.64,54,347.64,68" style="stroke: #383838; stroke-width: 1.0;"/><!--MD5=[45dda3f42d4d0f815ac40b381dac29a1]
reverse link BaseEntity to Session--><path codeLine="65" d="M347.83,45 C347.83,45 362.13,45 362.13,45 " fill="none" id="BaseEntity-backto-Session" style="stroke: #383838; stroke-width: 1.0;"/><polygon fill="none" points="347.83,52,327.83,45,347.83,38,347.83,52" style="stroke: #383838; stroke-width: 1.0;"/><!--MD5=[e2ae16b8e847ffaaa3a3445a53b55199]
link BaseEntity to Session--><!--MD5=[74fe72e9d3051d925909632a312fbfe4]
reverse link BaseEntity to Transfer--><path codeLine="66" d="M217.44,35 C217.44,35 58.5,35 58.5,35 C58.5,35 58.5,116.96 58.5,170.42 " fill="none" id="BaseEntity-backto-Transfer" style="stroke: #383838; stroke-width: 1.0;"/><polygon fill="none" points="217.44,28,237.44,35,217.44,42,217.44,28" style="stroke: #383838; stroke-width: 1.0;"/><!--MD5=[f2da74dc55a6f6f5cd14ce6e40804464]
link Transfer to Address--><!--MD5=[5cabcef6818810a4450d45cfd0bb11f4]
@startuml
skinparam classAttributeIconSize 0
skinparam linetype ortho
skinparam monochrome true

' Declare Classes
abstract class BaseEntity{
   - id: long
   '- getId(): long
   '+ equals(object: Object): boolean
   '+ hashCode(): int
}

class Account{
  - iban: String
}

class Address{
  - street: String
  - houseNr: int
  - zipCode: long
  - city: String
  - country: String
  '+ getResidents(): List<Customer>
  '+ addResident(customer: Customer): void
}

class Customer{
  - forename: String
  - surname: String
  - username: String
  - taxNumber: String
  - birthDate: Date
  - passwordHash: String
  - password: String
}

class Employee{
   - designation: String
   - salary: double
}

class Session{
  - uuid: UUID
  - date: Date
}

class Transfer{
  - amount: double
  - date: Date
  - description: String
}


' Declare relationship of classes
Session "0..*" - - "1" Customer
Customer "1" - -* "0..*" Account
Address "1" o- "1..*" Customer
Transfer "0..*" - "1" Account
Transfer "0..*" - "1" Account
Customer "0..*" - - "1" Employee

BaseEntity <|- - Account
BaseEntity <|- - Address
BaseEntity <|- - Customer
BaseEntity <|- - Session
BaseEntity <|- - Transfer

Customer <|- - Employee

BaseEntity -[hidden]> Session
Transfer -[hidden]> Address
Transfer -[hidden]-> Account

@enduml

@startuml
skinparam classAttributeIconSize 0
skinparam linetype ortho
skinparam monochrome true

abstract class BaseEntity{
   - id: long
}

class Account{
  - iban: String
}

class Address{
  - street: String
  - houseNr: int
  - zipCode: long
  - city: String
  - country: String
}

class Customer{
  - forename: String
  - surname: String
  - username: String
  - taxNumber: String
  - birthDate: Date
  - passwordHash: String
  - password: String
}

class Employee{
   - designation: String
   - salary: double
}

class Session{
  - uuid: UUID
  - date: Date
}

class Transfer{
  - amount: double
  - date: Date
  - description: String
}


Session "0..*" - - "1" Customer
Customer "1" - -* "0..*" Account
Address "1" o- "1..*" Customer
Transfer "0..*" - "1" Account
Transfer "0..*" - "1" Account
Customer "0..*" - - "1" Employee

BaseEntity <|- - Account
BaseEntity <|- - Address
BaseEntity <|- - Customer
BaseEntity <|- - Session
BaseEntity <|- - Transfer

Customer <|- - Employee

BaseEntity -[hidden]> Session
Transfer -[hidden]> Address
Transfer -[hidden]-> Account

@enduml

PlantUML version 1.2020.19(Mon Oct 12 17:10:01 CEST 2020)
(GPL source distribution)
Java Runtime: Java(TM) SE Runtime Environment
JVM: Java HotSpot(TM) 64-Bit Server VM
Default Encoding: Cp1252
Language: de
Country: DE
--></g></svg>