<?xml version="1.0" encoding="UTF-8" standalone="no"?><svg xmlns="http://www.w3.org/2000/svg" xmlns:xlink="http://www.w3.org/1999/xlink" contentScriptType="application/ecmascript" contentStyleType="text/css" height="665px" preserveAspectRatio="none" style="width:1163px;height:665px;" version="1.1" viewBox="0 0 1163 665" width="1163px" zoomAndPan="magnify"><defs><filter height="300%" id="flncm9rye7pej" width="300%" x="-1" y="-1"><feGaussianBlur result="blurOut" stdDeviation="2.0"/><feColorMatrix in="blurOut" result="blurOut2" type="matrix" values="0 0 0 0 0 0 0 0 0 0 0 0 0 0 0 0 0 0 .4 0"/><feOffset dx="4.0" dy="4.0" in="blurOut2" result="blurOut3"/><feBlend in="SourceGraphic" in2="blurOut3" mode="normal"/></filter></defs><g><!--MD5=[3dcf69e4e87a10af00fce8354034ba4c]
cluster presentation--><polygon fill="#FFFFFF" filter="url(#flncm9rye7pej)" points="430,6,526,6,533,29.6094,692,29.6094,692,122,430,122,430,6" style="stroke: #000000; stroke-width: 1.5;"/><line style="stroke: #000000; stroke-width: 1.5;" x1="430" x2="533" y1="29.6094" y2="29.6094"/><text fill="#000000" font-family="sans-serif" font-size="14" font-weight="bold" lengthAdjust="spacingAndGlyphs" textLength="90" x="434" y="22.5332">Presentation</text><!--MD5=[cbbcdfd2ff286cf453505908e439d9c0]
cluster logic--><polygon fill="#FFFFFF" filter="url(#flncm9rye7pej)" points="47,162,91,162,98,185.6094,770,185.6094,770,406.5,47,406.5,47,162" style="stroke: #000000; stroke-width: 1.5;"/><line style="stroke: #000000; stroke-width: 1.5;" x1="47" x2="98" y1="185.6094" y2="185.6094"/><text fill="#000000" font-family="sans-serif" font-size="14" font-weight="bold" lengthAdjust="spacingAndGlyphs" textLength="38" x="51" y="178.5332">Logic</text><!--MD5=[0334151241c2df87d13997940bbf650c]
cluster persistence--><polygon fill="#FFFFFF" filter="url(#flncm9rye7pej)" points="16,446.5,106,446.5,113,470.1094,1022,470.1094,1022,658.5,16,658.5,16,446.5" style="stroke: #000000; stroke-width: 1.5;"/><line style="stroke: #000000; stroke-width: 1.5;" x1="16" x2="113" y1="470.1094" y2="470.1094"/><text fill="#000000" font-family="sans-serif" font-size="14" font-weight="bold" lengthAdjust="spacingAndGlyphs" textLength="84" x="20" y="463.0332">Persistence</text><!--MD5=[96f7e1299d4a43069e6ed32352fcac20]
entity HTTP--><ellipse cx="463" cy="74" fill="#F8F8F8" filter="url(#flncm9rye7pej)" rx="8" ry="8" style="stroke: #383838; stroke-width: 1.5;"/><text fill="#000000" font-family="sans-serif" font-size="14" lengthAdjust="spacingAndGlyphs" textLength="36" x="445" y="105.5332">HTTP</text><!--MD5=[5f72b1e1b6bcd2ac922e89c6c0b5c71b]
entity Web Application--><rect fill="#F8F8F8" filter="url(#flncm9rye7pej)" height="47.6094" style="stroke: #383838; stroke-width: 1.5;" width="142" x="507" y="50"/><rect fill="#F8F8F8" height="10" style="stroke: #383838; stroke-width: 1.5;" width="15" x="629" y="55"/><rect fill="#F8F8F8" height="2" style="stroke: #383838; stroke-width: 1.5;" width="4" x="627" y="57"/><rect fill="#F8F8F8" height="2" style="stroke: #383838; stroke-width: 1.5;" width="4" x="627" y="61"/><text fill="#000000" font-family="sans-serif" font-size="14" lengthAdjust="spacingAndGlyphs" textLength="102" x="522" y="84.5332">Web Application</text><!--MD5=[d2f5cb2edd50ea0698f8feadbed97ba1]
entity SessionService--><rect fill="#F8F8F8" filter="url(#flncm9rye7pej)" height="47.6094" style="stroke: #383838; stroke-width: 1.5;" width="137" x="71.5" y="334.5"/><rect fill="#F8F8F8" height="10" style="stroke: #383838; stroke-width: 1.5;" width="15" x="188.5" y="339.5"/><rect fill="#F8F8F8" height="2" style="stroke: #383838; stroke-width: 1.5;" width="4" x="186.5" y="341.5"/><rect fill="#F8F8F8" height="2" style="stroke: #383838; stroke-width: 1.5;" width="4" x="186.5" y="345.5"/><text fill="#000000" font-family="sans-serif" font-size="14" lengthAdjust="spacingAndGlyphs" textLength="97" x="86.5" y="369.0332">SessionService</text><!--MD5=[a631d6567d8dd234ffb888032849242d]
entity SessionServiceIF--><ellipse cx="157" cy="236" fill="#F8F8F8" filter="url(#flncm9rye7pej)" rx="8" ry="8" style="stroke: #383838; stroke-width: 1.5;"/><text fill="#000000" font-family="sans-serif" font-size="14" lengthAdjust="spacingAndGlyphs" textLength="109" x="102.5" y="267.5332">SessionServiceIF</text><!--MD5=[76d0c25527896f67cb6aa4ccab7e7ab8]
entity CustomerService--><rect fill="#F8F8F8" filter="url(#flncm9rye7pej)" height="47.6094" style="stroke: #383838; stroke-width: 1.5;" width="148" x="417" y="334.5"/><rect fill="#F8F8F8" height="10" style="stroke: #383838; stroke-width: 1.5;" width="15" x="545" y="339.5"/><rect fill="#F8F8F8" height="2" style="stroke: #383838; stroke-width: 1.5;" width="4" x="543" y="341.5"/><rect fill="#F8F8F8" height="2" style="stroke: #383838; stroke-width: 1.5;" width="4" x="543" y="345.5"/><text fill="#000000" font-family="sans-serif" font-size="14" lengthAdjust="spacingAndGlyphs" textLength="108" x="432" y="369.0332">CustomerService</text><!--MD5=[5566f6f4b3f002cfd9abc05aa20a8f06]
entity CustomerServiceIF--><ellipse cx="500" cy="236" fill="#F8F8F8" filter="url(#flncm9rye7pej)" rx="8" ry="8" style="stroke: #383838; stroke-width: 1.5;"/><text fill="#000000" font-family="sans-serif" font-size="14" lengthAdjust="spacingAndGlyphs" textLength="120" x="440" y="267.5332">CustomerServiceIF</text><!--MD5=[ba723757ffde46ba429618d659790656]
entity BankingService--><rect fill="#F8F8F8" filter="url(#flncm9rye7pej)" height="47.6094" style="stroke: #383838; stroke-width: 1.5;" width="138" x="244" y="334.5"/><rect fill="#F8F8F8" height="10" style="stroke: #383838; stroke-width: 1.5;" width="15" x="362" y="339.5"/><rect fill="#F8F8F8" height="2" style="stroke: #383838; stroke-width: 1.5;" width="4" x="360" y="341.5"/><rect fill="#F8F8F8" height="2" style="stroke: #383838; stroke-width: 1.5;" width="4" x="360" y="345.5"/><text fill="#000000" font-family="sans-serif" font-size="14" lengthAdjust="spacingAndGlyphs" textLength="98" x="259" y="369.0332">BankingService</text><!--MD5=[74d1d086c912edf19e2fe8e565a7e7ff]
entity BankingServiceIF--><ellipse cx="334" cy="236" fill="#F8F8F8" filter="url(#flncm9rye7pej)" rx="8" ry="8" style="stroke: #383838; stroke-width: 1.5;"/><text fill="#000000" font-family="sans-serif" font-size="14" lengthAdjust="spacingAndGlyphs" textLength="110" x="279" y="267.5332">BankingServiceIF</text><!--MD5=[e0dbcdd0b6f6a8c0a95380b7bdd4cfaa]
entity SupportService--><rect fill="#F8F8F8" filter="url(#flncm9rye7pej)" height="47.6094" style="stroke: #383838; stroke-width: 1.5;" width="137" x="600.5" y="334.5"/><rect fill="#F8F8F8" height="10" style="stroke: #383838; stroke-width: 1.5;" width="15" x="717.5" y="339.5"/><rect fill="#F8F8F8" height="2" style="stroke: #383838; stroke-width: 1.5;" width="4" x="715.5" y="341.5"/><rect fill="#F8F8F8" height="2" style="stroke: #383838; stroke-width: 1.5;" width="4" x="715.5" y="345.5"/><text fill="#000000" font-family="sans-serif" font-size="14" lengthAdjust="spacingAndGlyphs" textLength="97" x="615.5" y="369.0332">SupportService</text><!--MD5=[a3e93cdb79a1999521bbbf4acc8f9bf6]
entity SupportServiceIF--><ellipse cx="665" cy="236" fill="#F8F8F8" filter="url(#flncm9rye7pej)" rx="8" ry="8" style="stroke: #383838; stroke-width: 1.5;"/><text fill="#000000" font-family="sans-serif" font-size="14" lengthAdjust="spacingAndGlyphs" textLength="109" x="610.5" y="267.5332">SupportServiceIF</text><!--MD5=[96949bab5c81bdcb09aed95ef177eaf4]
entity IF1--><ellipse cx="130" cy="508.5" fill="#F8F8F8" filter="url(#flncm9rye7pej)" rx="8" ry="8" style="stroke: #383838; stroke-width: 1.5;"/><!--MD5=[e8d73f926623c6a4f73b0854fa679a99]
entity IF2--><ellipse cx="313" cy="508.5" fill="#F8F8F8" filter="url(#flncm9rye7pej)" rx="8" ry="8" style="stroke: #383838; stroke-width: 1.5;"/><!--MD5=[25260a715962a01155005ddcd5495a88]
entity IF3--><ellipse cx="455" cy="508.5" fill="#F8F8F8" filter="url(#flncm9rye7pej)" rx="8" ry="8" style="stroke: #383838; stroke-width: 1.5;"/><!--MD5=[2396bdf90cac695aadc7a209d4e74ed4]
entity IF4--><ellipse cx="809" cy="508.5" fill="#F8F8F8" filter="url(#flncm9rye7pej)" rx="8" ry="8" style="stroke: #383838; stroke-width: 1.5;"/><!--MD5=[9aea221644c2df2b6f73de2b0e108e2e]
entity IF5--><ellipse cx="624" cy="508.5" fill="#F8F8F8" filter="url(#flncm9rye7pej)" rx="8" ry="8" style="stroke: #383838; stroke-width: 1.5;"/><!--MD5=[cc33ee68753cc2405ee06b12bde22df7]
entity SessionRepository--><rect fill="#F8F8F8" filter="url(#flncm9rye7pej)" height="47.6094" style="stroke: #383838; stroke-width: 1.5;" width="158" x="40" y="586.5"/><rect fill="#F8F8F8" height="10" style="stroke: #383838; stroke-width: 1.5;" width="15" x="178" y="591.5"/><rect fill="#F8F8F8" height="2" style="stroke: #383838; stroke-width: 1.5;" width="4" x="176" y="593.5"/><rect fill="#F8F8F8" height="2" style="stroke: #383838; stroke-width: 1.5;" width="4" x="176" y="597.5"/><text fill="#000000" font-family="sans-serif" font-size="14" lengthAdjust="spacingAndGlyphs" textLength="118" x="55" y="621.0332">SessionRepository</text><!--MD5=[5cc9ac11a3f0b123b98e0809612ba330]
entity AccountRepository--><rect fill="#F8F8F8" filter="url(#flncm9rye7pej)" height="47.6094" style="stroke: #383838; stroke-width: 1.5;" width="159" x="233.5" y="586.5"/><rect fill="#F8F8F8" height="10" style="stroke: #383838; stroke-width: 1.5;" width="15" x="372.5" y="591.5"/><rect fill="#F8F8F8" height="2" style="stroke: #383838; stroke-width: 1.5;" width="4" x="370.5" y="593.5"/><rect fill="#F8F8F8" height="2" style="stroke: #383838; stroke-width: 1.5;" width="4" x="370.5" y="597.5"/><text fill="#000000" font-family="sans-serif" font-size="14" lengthAdjust="spacingAndGlyphs" textLength="119" x="248.5" y="621.0332">AccountRepository</text><!--MD5=[e7bc3a3fa62c1df21bef3869c0c37950]
entity TransferRepository--><rect fill="#F8F8F8" filter="url(#flncm9rye7pej)" height="47.6094" style="stroke: #383838; stroke-width: 1.5;" width="162" x="428" y="586.5"/><rect fill="#F8F8F8" height="10" style="stroke: #383838; stroke-width: 1.5;" width="15" x="570" y="591.5"/><rect fill="#F8F8F8" height="2" style="stroke: #383838; stroke-width: 1.5;" width="4" x="568" y="593.5"/><rect fill="#F8F8F8" height="2" style="stroke: #383838; stroke-width: 1.5;" width="4" x="568" y="597.5"/><text fill="#000000" font-family="sans-serif" font-size="14" lengthAdjust="spacingAndGlyphs" textLength="122" x="443" y="621.0332">TransferRepository</text><!--MD5=[b3990cbb38841f9d8fcdaf5297d6dc08]
entity CustomerRepository--><rect fill="#F8F8F8" filter="url(#flncm9rye7pej)" height="47.6094" style="stroke: #383838; stroke-width: 1.5;" width="169" x="820.5" y="586.5"/><rect fill="#F8F8F8" height="10" style="stroke: #383838; stroke-width: 1.5;" width="15" x="969.5" y="591.5"/><rect fill="#F8F8F8" height="2" style="stroke: #383838; stroke-width: 1.5;" width="4" x="967.5" y="593.5"/><rect fill="#F8F8F8" height="2" style="stroke: #383838; stroke-width: 1.5;" width="4" x="967.5" y="597.5"/><text fill="#000000" font-family="sans-serif" font-size="14" lengthAdjust="spacingAndGlyphs" textLength="129" x="835.5" y="621.0332">CustomerRepository</text><!--MD5=[dba78d1918f1bbe6079f47e9b7a97428]
entity AddressRepository--><rect fill="#F8F8F8" filter="url(#flncm9rye7pej)" height="47.6094" style="stroke: #383838; stroke-width: 1.5;" width="160" x="625" y="586.5"/><rect fill="#F8F8F8" height="10" style="stroke: #383838; stroke-width: 1.5;" width="15" x="765" y="591.5"/><rect fill="#F8F8F8" height="2" style="stroke: #383838; stroke-width: 1.5;" width="4" x="763" y="593.5"/><rect fill="#F8F8F8" height="2" style="stroke: #383838; stroke-width: 1.5;" width="4" x="763" y="597.5"/><text fill="#000000" font-family="sans-serif" font-size="14" lengthAdjust="spacingAndGlyphs" textLength="120" x="640" y="621.0332">AddressRepository</text><!--MD5=[4662bc22cd1a5219d3b09b73e91a55ce]
entity paypal--><rect fill="#F8F8F8" filter="url(#flncm9rye7pej)" height="65.2188" style="stroke: #383838; stroke-width: 1.5;" width="133" x="794.5" y="326"/><rect fill="#F8F8F8" height="10" style="stroke: #383838; stroke-width: 1.5;" width="15" x="907.5" y="331"/><rect fill="#F8F8F8" height="2" style="stroke: #383838; stroke-width: 1.5;" width="4" x="905.5" y="333"/><rect fill="#F8F8F8" height="2" style="stroke: #383838; stroke-width: 1.5;" width="4" x="905.5" y="337"/><text fill="#000000" font-family="sans-serif" font-size="14" lengthAdjust="spacingAndGlyphs" textLength="43" x="809.5" y="360.5332">Paypal</text><text fill="#000000" font-family="sans-serif" font-size="14" lengthAdjust="spacingAndGlyphs" textLength="93" x="809.5" y="378.1426">(Gorbatschow)</text><!--MD5=[570597a2b6eaab3b76b5cf13edca2979]
entity chat--><rect fill="#F8F8F8" filter="url(#flncm9rye7pej)" height="65.2188" style="stroke: #383838; stroke-width: 1.5;" width="121" x="962.5" y="326"/><rect fill="#F8F8F8" height="10" style="stroke: #383838; stroke-width: 1.5;" width="15" x="1063.5" y="331"/><rect fill="#F8F8F8" height="2" style="stroke: #383838; stroke-width: 1.5;" width="4" x="1061.5" y="333"/><rect fill="#F8F8F8" height="2" style="stroke: #383838; stroke-width: 1.5;" width="4" x="1061.5" y="337"/><text fill="#000000" font-family="sans-serif" font-size="14" lengthAdjust="spacingAndGlyphs" textLength="81" x="977.5" y="360.5332">Chat Service</text><text fill="#000000" font-family="sans-serif" font-size="14" lengthAdjust="spacingAndGlyphs" textLength="68" x="977.5" y="378.1426">(Bielmeier)</text><!--MD5=[99d0499ea58cdc2f64f8969b709c1dca]
link HTTP to Web Application--><path d="M472.43,74 C483.84,74 495.25,74 506.66,74 " fill="none" id="HTTP-Web Application" style="stroke: #383838; stroke-width: 1.0;"/><!--MD5=[fc226dc9b77288bbf0408d8c4b2c8847]
link SessionServiceIF to SessionService--><path d="M155.83,245.28 C153.28,263.36 147.14,306.91 143.3,334.14 " fill="none" id="SessionServiceIF-SessionService" style="stroke: #383838; stroke-width: 1.0;"/><!--MD5=[94cb2be6564b3818166a3f279d1d73cf]
link Web Application to SessionServiceIF--><path d="M553.75,98.13 C536.99,112.51 513.4,129.78 489,138 C439.27,154.75 301.52,126.01 253,146 C216.04,161.22 184.55,197.54 168.46,218.78 " fill="none" id="Web Application-to-SessionServiceIF" style="stroke: #383838; stroke-width: 1.0;"/><path d="M171.1812,229.3657 A9,9 0 0 0 157.5375 219.3684" fill="none" style="stroke: #383838; stroke-width: 1.5;"/><!--MD5=[b8c269d75471c9234d9dbe75e9c0858b]
link CustomerServiceIF to CustomerService--><path d="M499.38,245.28 C498.03,263.36 494.78,306.91 492.74,334.14 " fill="none" id="CustomerServiceIF-CustomerService" style="stroke: #383838; stroke-width: 1.0;"/><!--MD5=[73e4159f538ab447a78d5176e3c7b516]
link Web Application to CustomerServiceIF--><path d="M566.66,98.27 C550.85,130.69 522.56,188.72 508.47,217.63 " fill="none" id="Web Application-to-CustomerServiceIF" style="stroke: #383838; stroke-width: 1.0;"/><path d="M512.9116,227.8017 A9,9 0 0 0 497.7016 220.4022" fill="none" style="stroke: #383838; stroke-width: 1.5;"/><!--MD5=[000171fd176f7281bbf2624e77c310eb]
reverse link CustomerServiceIF to paypal--><path d="M519.37,243.66 C536.59,249.57 562.45,258.42 585,266 C656.41,290.02 738.37,317.13 794.3,335.57 " fill="none" id="CustomerServiceIF-backto-paypal" style="stroke: #383838; stroke-width: 1.0;"/><path d="M509.5764,249.2486 A9,9 0 0 0 515.0844 233.2561" fill="none" style="stroke: #383838; stroke-width: 1.5;"/><!--MD5=[2da2f9c21c05087eb502daaeaaa1e29b]
link BankingServiceIF to BankingService--><path d="M332.56,245.28 C329.41,263.36 321.82,306.91 317.07,334.14 " fill="none" id="BankingServiceIF-BankingService" style="stroke: #383838; stroke-width: 1.0;"/><!--MD5=[59f839ceb75337f8f72ca5552e00e4b2]
reverse link BankingServiceIF to Web Application--><path d="M343.76,218.03 C356.81,197.11 382.06,162.32 414,146 C443.85,130.75 457.64,149.84 489,138 C512.73,129.04 536,112.2 552.8,98.18 " fill="none" id="BankingServiceIF-backto-Web Application" style="stroke: #383838; stroke-width: 1.0;"/><path d="M347.3357,228.5117 A9,9 0 0 0 332.8317 219.8093" fill="none" style="stroke: #383838; stroke-width: 1.5;"/><!--MD5=[a2699a85a2209aff875986e60a373f42]
reverse link BankingServiceIF to paypal--><path d="M352.48,244.73 C368.51,251.19 392.46,260.24 414,266 C562.24,305.63 604.61,290.94 754,326 C767.1,329.07 780.98,332.8 794.24,336.6 " fill="none" id="BankingServiceIF-backto-paypal" style="stroke: #383838; stroke-width: 1.0;"/><path d="M342.8379,249.9231 A9,9 0 0 0 349.2404 234.2672" fill="none" style="stroke: #383838; stroke-width: 1.5;"/><!--MD5=[880938a235d0da089e04b7aa2937496c]
link SupportServiceIF to SupportService--><path d="M665.27,245.28 C665.88,263.36 667.32,306.91 668.22,334.14 " fill="none" id="SupportServiceIF-SupportService" style="stroke: #383838; stroke-width: 1.0;"/><!--MD5=[46f0b5ed647fb037920e20fa160e829c]
link Web Application to SupportServiceIF--><path d="M590.65,98.27 C608.36,130.83 640.11,189.23 655.76,218.01 " fill="none" id="Web Application-to-SupportServiceIF" style="stroke: #383838; stroke-width: 1.0;"/><path d="M666.5429,220.1288 A9,9 0 0 0 651.679 228.2012" fill="none" style="stroke: #383838; stroke-width: 1.5;"/><!--MD5=[5840e6ff15ab51390666f9ade1e19b2b]
reverse link SupportServiceIF to chat--><path d="M683.53,245.98 C696.6,252.11 714.64,260.14 731,266 C824,299.28 851.51,294.12 945,326 C950.67,327.93 956.52,330.05 962.35,332.25 " fill="none" id="SupportServiceIF-backto-chat" style="stroke: #383838; stroke-width: 1.0;"/><path d="M673.3841,250.5102 A9,9 0 0 0 680.6375 235.2298" fill="none" style="stroke: #383838; stroke-width: 1.5;"/><!--MD5=[c22e27395cb36ddffc84a9a51754be31]
link IF1 to SessionRepository--><path d="M129.1,517.68 C127.47,532.52 123.97,564.34 121.55,586.33 " fill="none" id="IF1-SessionRepository" style="stroke: #383838; stroke-width: 1.0;"/><!--MD5=[1d664451de222963e7ffb318cdb39843]
link SessionService to IF1--><path d="M138.44,382.62 C136.46,411.94 133.08,461.91 131.26,488.9 " fill="none" id="SessionService-to-IF1" style="stroke: #383838; stroke-width: 1.0;"/><path d="M139.2047,496.7261 A9,9 0 0 0 122.3283 495.5914" fill="none" style="stroke: #383838; stroke-width: 1.5;"/><!--MD5=[fc68055896bfddcdcad2a1f1b59e7010]
link IF2 to AccountRepository--><path d="M313,517.68 C313,532.52 313,564.34 313,586.33 " fill="none" id="IF2-AccountRepository" style="stroke: #383838; stroke-width: 1.0;"/><!--MD5=[cc158b8c26f6f1d4f86a5c7769849562]
link BankingService to IF2--><path d="M313,382.62 C313,411.94 313,461.91 313,488.9 " fill="none" id="BankingService-to-IF2" style="stroke: #383838; stroke-width: 1.0;"/><path d="M321.4572,496.1518 A9,9 0 0 0 304.5428 496.1518" fill="none" style="stroke: #383838; stroke-width: 1.5;"/><!--MD5=[fc44de56ffcc237b2cdfd17bb1168158]
link IF3 to TransferRepository--><path d="M459.42,517.68 C467.43,532.52 484.62,564.34 496.49,586.33 " fill="none" id="IF3-TransferRepository" style="stroke: #383838; stroke-width: 1.0;"/><!--MD5=[accaeb773c120abe7ae03c01d5cf2479]
link BankingService to IF3--><path d="M335.19,382.62 C364.33,413 414.73,465.53 439.85,491.71 " fill="none" id="BankingService-to-IF3" style="stroke: #383838; stroke-width: 1.0;"/><path d="M451.0359,491.1558 A9,9 0 0 0 438.8243 502.8595" fill="none" style="stroke: #383838; stroke-width: 1.5;"/><!--MD5=[b3a337f14674d60cd4507df9af8dfb9d]
link IF4 to CustomerRepository--><path d="M816.86,517.68 C831.1,532.52 861.65,564.34 882.76,586.33 " fill="none" id="IF4-CustomerRepository" style="stroke: #383838; stroke-width: 1.0;"/><!--MD5=[de4b5685896f66131986cc2d78191d58]
link CustomerService to IF4--><path d="M517.15,382.77 C534.54,396.83 558.61,413.67 583,422.5 C618.68,435.41 631.71,419.4 668,430.5 C715.75,445.1 765.66,476.94 791.37,494.76 " fill="none" id="CustomerService-to-IF4" style="stroke: #383838; stroke-width: 1.0;"/><path d="M802.0546,491.9535 A9,9 0 0 0 792.3127 505.7808" fill="none" style="stroke: #383838; stroke-width: 1.5;"/><!--MD5=[c65efcb2a6a0a054d4e8c40c534aef56]
link IF5 to AddressRepository--><path d="M630.63,517.68 C642.64,532.52 668.42,564.34 686.23,586.33 " fill="none" id="IF5-AddressRepository" style="stroke: #383838; stroke-width: 1.0;"/><!--MD5=[90a19ce40c3f1ca1bdd8207be7fb78a3]
link CustomerService to IF5--><path d="M511.78,382.62 C539.07,413 586.28,465.53 609.81,491.71 " fill="none" id="CustomerService-to-IF5" style="stroke: #383838; stroke-width: 1.0;"/><path d="M620.787,491.2844 A9,9 0 0 0 608.2146 502.5996" fill="none" style="stroke: #383838; stroke-width: 1.5;"/><!--MD5=[0c58043e63b44432a8f5adb464c3c905]
link presentation to logic--><!--MD5=[19cf1190ca52af90fce53ca995832556]
link presentation to persistence--><!--MD5=[117fea87984e9a5cf2665c1f246bd17c]
link logic to persistence--><!--MD5=[76b902ebd6bee2125a6db6e4731da8f8]
link logic to chat--><!--MD5=[f43a067c2cb7cf733a2e73a6565a556e]
link paypal to logic--><!--MD5=[abcc219c4351ea51a12b440917407ec5]
@startuml

skinparam monochrome true

[Paypal\n(Gorbatschow)] as paypal
[Chat Service\n(Bielmeier)] as chat

package "Presentation" as presentation {
  HTTP - [Web Application]
}


package "Logic" as logic {

  [SessionService] -up-() SessionServiceIF
  SessionServiceIF )-up- [Web Application]

  [CustomerService] -up-() CustomerServiceIF
  CustomerServiceIF )-up- [Web Application]
  CustomerServiceIF )- - paypal

  [BankingService] -up-() BankingServiceIF
  BankingServiceIF )- - [Web Application]
  BankingServiceIF )- - paypal

  [SupportService] -up-() SupportServiceIF
  SupportServiceIF )-up- [Web Application]
  SupportServiceIF )- - chat

  'chat -[hidden]-> [SupportService]



}

package "Persistence" as persistence {
  interface " " as IF1
  interface " " as IF2
  interface " " as IF3
  interface " " as IF4
  interface " " as IF5

  [SessionRepository] -up-() IF1
  IF1 )-up- [SessionService]

  [AccountRepository] -up-() IF2
  IF2 )-up- [BankingService]

  [TransferRepository] -up-() IF3
  IF3 )-up- [BankingService]

  [CustomerRepository] -up-() IF4
  IF4 )-up- [CustomerService]

  [AddressRepository] -up-() IF5
  IF5 )-up- [CustomerService]
}

presentation -[hidden]-> logic
presentation -[hidden]-> persistence
logic -[hidden]-> persistence

logic -[hidden]> chat
paypal -[hidden]> logic




@enduml

@startuml

skinparam monochrome true

[Paypal\n(Gorbatschow)] as paypal
[Chat Service\n(Bielmeier)] as chat

package "Presentation" as presentation {
  HTTP - [Web Application]
}


package "Logic" as logic {

  [SessionService] -up-() SessionServiceIF
  SessionServiceIF )-up- [Web Application]

  [CustomerService] -up-() CustomerServiceIF
  CustomerServiceIF )-up- [Web Application]
  CustomerServiceIF )- - paypal

  [BankingService] -up-() BankingServiceIF
  BankingServiceIF )- - [Web Application]
  BankingServiceIF )- - paypal

  [SupportService] -up-() SupportServiceIF
  SupportServiceIF )-up- [Web Application]
  SupportServiceIF )- - chat




}

package "Persistence" as persistence {
  interface " " as IF1
  interface " " as IF2
  interface " " as IF3
  interface " " as IF4
  interface " " as IF5

  [SessionRepository] -up-() IF1
  IF1 )-up- [SessionService]

  [AccountRepository] -up-() IF2
  IF2 )-up- [BankingService]

  [TransferRepository] -up-() IF3
  IF3 )-up- [BankingService]

  [CustomerRepository] -up-() IF4
  IF4 )-up- [CustomerService]

  [AddressRepository] -up-() IF5
  IF5 )-up- [CustomerService]
}

presentation -[hidden]-> logic
presentation -[hidden]-> persistence
logic -[hidden]-> persistence

logic -[hidden]> chat
paypal -[hidden]> logic




@enduml

PlantUML version 1.2020.19(Mon Oct 12 17:10:01 CEST 2020)
(GPL source distribution)
Java Runtime: Java(TM) SE Runtime Environment
JVM: Java HotSpot(TM) 64-Bit Server VM
Default Encoding: Cp1252
Language: de
Country: DE
--></g></svg>