<?xml version="1.0" encoding="UTF-8" standalone="no"?><svg xmlns="http://www.w3.org/2000/svg" xmlns:xlink="http://www.w3.org/1999/xlink" contentScriptType="application/ecmascript" contentStyleType="text/css" height="625px" preserveAspectRatio="none" style="width:668px;height:625px;" version="1.1" viewBox="0 0 668 625" width="668px" zoomAndPan="magnify"><defs><filter height="300%" id="f1n2sz9jvraqp3" width="300%" x="-1" y="-1"><feGaussianBlur result="blurOut" stdDeviation="2.0"/><feColorMatrix in="blurOut" result="blurOut2" type="matrix" values="0 0 0 0 0 0 0 0 0 0 0 0 0 0 0 0 0 0 .4 0"/><feOffset dx="4.0" dy="4.0" in="blurOut2" result="blurOut3"/><feBlend in="SourceGraphic" in2="blurOut3" mode="normal"/></filter></defs><g><!--MD5=[88ca6809156eb879dc8ea75d9b4ec4d1]
cluster Banking--><rect fill="#FFFFFF" filter="url(#f1n2sz9jvraqp3)" height="514" style="stroke: #000000; stroke-width: 1.5;" width="492" x="7" y="7"/><text fill="#000000" font-family="sans-serif" font-size="14" font-weight="bold" lengthAdjust="spacingAndGlyphs" textLength="115" x="195.5" y="23.5332">Banking Service</text><ellipse cx="118.6143" cy="195.2229" fill="#F8F8F8" filter="url(#f1n2sz9jvraqp3)" rx="76.6143" ry="17.7229" style="stroke: #383838; stroke-width: 1.5;"/><text fill="#000000" font-family="sans-serif" font-size="14" lengthAdjust="spacingAndGlyphs" textLength="118" x="59.6143" y="200.5275">Register Customer</text><ellipse cx="379.0337" cy="366.8067" fill="#F8F8F8" filter="url(#f1n2sz9jvraqp3)" rx="67.0337" ry="15.8067" style="stroke: #383838; stroke-width: 1.5;"/><text fill="#000000" font-family="sans-serif" font-size="14" lengthAdjust="spacingAndGlyphs" textLength="93" x="332.5337" y="372.1114">Find Customer</text><ellipse cx="378.8989" cy="59.7798" fill="#F8F8F8" filter="url(#f1n2sz9jvraqp3)" rx="71.8989" ry="16.7798" style="stroke: #383838; stroke-width: 1.5;"/><text fill="#000000" font-family="sans-serif" font-size="14" lengthAdjust="spacingAndGlyphs" textLength="106" x="325.8989" y="65.0845">Delete Customer</text><ellipse cx="378.813" cy="133.7626" fill="#F8F8F8" filter="url(#f1n2sz9jvraqp3)" rx="94.313" ry="21.2626" style="stroke: #383838; stroke-width: 1.5;"/><text fill="#000000" font-family="sans-serif" font-size="14" lengthAdjust="spacingAndGlyphs" textLength="160" x="298.813" y="139.0673">Get Address of Customer</text><ellipse cx="379.0894" cy="214.2179" fill="#F8F8F8" filter="url(#f1n2sz9jvraqp3)" rx="104.0894" ry="23.2179" style="stroke: #383838; stroke-width: 1.5;"/><text fill="#000000" font-family="sans-serif" font-size="14" lengthAdjust="spacingAndGlyphs" textLength="182" x="288.0894" y="219.5226">Update Address of Customer</text><ellipse cx="118.63" cy="269.026" fill="#F8F8F8" filter="url(#f1n2sz9jvraqp3)" rx="95.63" ry="21.526" style="stroke: #383838; stroke-width: 1.5;"/><text fill="#000000" font-family="sans-serif" font-size="14" lengthAdjust="spacingAndGlyphs" textLength="163" x="37.13" y="274.3307">Create Customer Account</text><ellipse cx="378.7514" cy="293.8503" fill="#F8F8F8" filter="url(#f1n2sz9jvraqp3)" rx="94.7514" ry="21.3503" style="stroke: #383838; stroke-width: 1.5;"/><text fill="#000000" font-family="sans-serif" font-size="14" lengthAdjust="spacingAndGlyphs" textLength="161" x="298.2514" y="299.155">Delete Customer Account</text><ellipse cx="118.5964" cy="59.0193" fill="#F8F8F8" filter="url(#f1n2sz9jvraqp3)" rx="65.5964" ry="15.5193" style="stroke: #383838; stroke-width: 1.5;"/><text fill="#000000" font-family="sans-serif" font-size="14" lengthAdjust="spacingAndGlyphs" textLength="89" x="74.0964" y="64.324">Open Session</text><ellipse cx="379.1543" cy="433.9517" fill="#F8F8F8" filter="url(#f1n2sz9jvraqp3)" rx="58.1543" ry="15.4517" style="stroke: #383838; stroke-width: 1.5;"/><text fill="#000000" font-family="sans-serif" font-size="14" lengthAdjust="spacingAndGlyphs" textLength="78" x="340.1543" y="439.2564">Use Support</text><ellipse cx="118.6143" cy="343.2229" fill="#F8F8F8" filter="url(#f1n2sz9jvraqp3)" rx="76.6143" ry="17.7229" style="stroke: #383838; stroke-width: 1.5;"/><text fill="#000000" font-family="sans-serif" font-size="14" lengthAdjust="spacingAndGlyphs" textLength="118" x="59.6143" y="348.5275">Get Account Value</text><ellipse cx="118.4661" cy="415.7932" fill="#F8F8F8" filter="url(#f1n2sz9jvraqp3)" rx="86.9661" ry="19.7932" style="stroke: #383838; stroke-width: 1.5;"/><text fill="#000000" font-family="sans-serif" font-size="14" lengthAdjust="spacingAndGlyphs" textLength="143" x="46.9661" y="421.0979">Get Account Transfers</text><ellipse cx="118.6188" cy="487.8238" fill="#F8F8F8" filter="url(#f1n2sz9jvraqp3)" rx="69.6188" ry="16.3238" style="stroke: #383838; stroke-width: 1.5;"/><text fill="#000000" font-family="sans-serif" font-size="14" lengthAdjust="spacingAndGlyphs" textLength="100" x="68.6188" y="493.1284">Transfer Money</text><ellipse cx="118.4949" cy="125.899" fill="#F8F8F8" filter="url(#f1n2sz9jvraqp3)" rx="69.9949" ry="16.399" style="stroke: #383838; stroke-width: 1.5;"/><text fill="#000000" font-family="sans-serif" font-size="14" lengthAdjust="spacingAndGlyphs" textLength="101" x="67.9949" y="131.2037">Mandate Money</text><!--MD5=[8e9b2d9d80e066cced8e5d90e9bdea61]
entity c--><ellipse cx="379" cy="547" fill="#F8F8F8" filter="url(#f1n2sz9jvraqp3)" rx="8" ry="8" style="stroke: #383838; stroke-width: 1.5;"/><path d="M379,555 L379,582 M366,563 L392,563 M379,582 L366,597 M379,582 L392,597 " fill="none" filter="url(#f1n2sz9jvraqp3)" style="stroke: #383838; stroke-width: 1.5;"/><text fill="#000000" font-family="sans-serif" font-size="14" lengthAdjust="spacingAndGlyphs" textLength="61" x="348.5" y="617.0332">Customer</text><!--MD5=[e32773a0da76c445e84e5885468a4484]
entity e--><ellipse cx="630" cy="262" fill="#F8F8F8" filter="url(#f1n2sz9jvraqp3)" rx="8" ry="8" style="stroke: #383838; stroke-width: 1.5;"/><path d="M630,270 L630,297 M617,278 L643,278 M630,297 L617,312 M630,297 L643,312 " fill="none" filter="url(#f1n2sz9jvraqp3)" style="stroke: #383838; stroke-width: 1.5;"/><text fill="#000000" font-family="sans-serif" font-size="14" lengthAdjust="spacingAndGlyphs" textLength="62" x="599" y="332.0332">Employee</text><!--MD5=[a7735e767aa86eebe444b5075fc993c7]
link c to e--><path d="M409.72,571.24 C437.56,562.73 478.97,546.74 507,521 C556.6,475.44 590.05,404.98 609.19,354.65 " fill="none" id="c-to-e" style="stroke: #383838; stroke-width: 1.0;"/><polygon fill="none" points="602.64,352.18,616.06,335.78,615.8,356.97,602.64,352.18" style="stroke: #383838; stroke-width: 1.0;"/><!--MD5=[0750bae649bba517013f6d2ddc00b20a]
reverse link uc11 to c--><path d="M181.55,208.4 C193.63,213.46 205.24,220.43 214,230 C249.44,268.75 233.71,292.72 245,344 C262.16,421.92 229.1,455.74 275,521 C292.59,546.01 324.6,561.56 348.28,570.18 " fill="none" id="uc11-backto-c" style="stroke: #383838; stroke-width: 1.0;"/><polygon fill="#383838" points="176.72,206.48,183.5907,213.5364,181.3624,208.337,186.5619,206.1086,176.72,206.48" style="stroke: #383838; stroke-width: 1.0;"/><!--MD5=[a8502da0e2a97a807084b55d93e49e30]
reverse link uc16 to c--><path d="M186.32,287.62 C196.64,292.87 206.38,299.54 214,308 C279.91,381.17 214.28,443.48 275,521 C293.73,544.91 325.23,560.56 348.47,569.51 " fill="none" id="uc16-backto-c" style="stroke: #383838; stroke-width: 1.0;"/><polygon fill="#383838" points="181.55,285.31,187.9173,292.8238,186.0531,287.4829,191.394,285.6188,181.55,285.31" style="stroke: #383838; stroke-width: 1.0;"/><!--MD5=[74af7b9beac97157247d54ba03b4303d]
link e to uc12--><path d="M598.79,304.1 C574.18,312.22 538.47,323.76 507,333 C481.85,340.38 453.71,347.98 430.32,354.12 " fill="none" id="e-to-uc12" style="stroke: #383838; stroke-width: 1.0;"/><polygon fill="#383838" points="425.41,355.41,435.1319,356.9864,430.2452,354.1368,433.0948,349.2501,425.41,355.41" style="stroke: #383838; stroke-width: 1.0;"/><!--MD5=[01f852f723579516bb24f51b3c7cae60]
link e to uc13--><path d="M615.36,252.29 C597.93,205.99 563.11,132.83 507,95 C489.09,82.93 467.12,75 446.51,69.8 " fill="none" id="e-to-uc13" style="stroke: #383838; stroke-width: 1.0;"/><polygon fill="#383838" points="441.58,68.6,449.3913,74.5986,446.4406,69.7723,451.267,66.8216,441.58,68.6" style="stroke: #383838; stroke-width: 1.0;"/><!--MD5=[874f875b7411d5015c8041a196a73f46]
link e to uc14--><path d="M598.89,255.44 C576.23,228.81 543,194.46 507,173 C490.79,163.34 471.97,155.87 453.87,150.18 " fill="none" id="e-to-uc14" style="stroke: #383838; stroke-width: 1.0;"/><polygon fill="#383838" points="448.78,148.62,456.207,155.0883,453.5592,150.0894,458.5581,147.4416,448.78,148.62" style="stroke: #383838; stroke-width: 1.0;"/><!--MD5=[3dd15030e115705e631dc42ba8291197]
link e to uc15--><path d="M598.78,279.99 C589.35,275.87 578.83,271.52 569,268 C531.48,254.58 488.88,242.17 453.62,232.63 " fill="none" id="e-to-uc15" style="stroke: #383838; stroke-width: 1.0;"/><polygon fill="#383838" points="448.48,231.25,456.1306,237.4522,453.3081,232.5499,458.2104,229.7273,448.48,231.25" style="stroke: #383838; stroke-width: 1.0;"/><!--MD5=[877e6b803e7c8512c543cff1734550b7]
link e to uc17--><path d="M598.88,294 C569.2,294 522.19,294 479.34,294 " fill="none" id="e-to-uc17" style="stroke: #383838; stroke-width: 1.0;"/><polygon fill="#383838" points="474.14,294,483.14,298,479.14,294,483.14,290,474.14,294" style="stroke: #383838; stroke-width: 1.0;"/><!--MD5=[3a6f16a45b1ed29d18f2f8f7f333ad37]
reverse link uc21 to c--><path d="M178.71,69.22 C191.97,74.1 204.81,81.33 214,92 C262.4,148.22 233.93,182.65 245,256 C253.84,314.6 242.26,471.6 275,521 C292.01,546.66 324.45,562.16 348.39,570.6 " fill="none" id="uc21-backto-c" style="stroke: #383838; stroke-width: 1.0;"/><polygon fill="#383838" points="173.81,67.52,180.9988,74.2521,178.5331,69.1609,183.6243,66.6952,173.81,67.52" style="stroke: #383838; stroke-width: 1.0;"/><!--MD5=[ccf5115888626c19bdf9395eb3cffc68]
reverse link uc31 to c--><path d="M379,454.9 C379,476.39 379,510.45 379,537.45 " fill="none" id="uc31-backto-c" style="stroke: #383838; stroke-width: 1.0;"/><polygon fill="#383838" points="379,449.72,375,458.72,379,454.72,383,458.72,379,449.72" style="stroke: #383838; stroke-width: 1.0;"/><text fill="#000000" font-family="sans-serif" font-size="13" lengthAdjust="spacingAndGlyphs" textLength="23" x="347.5" y="490.9951">Ask</text><text fill="#000000" font-family="sans-serif" font-size="13" lengthAdjust="spacingAndGlyphs" textLength="52" x="333" y="507.3467">Question</text><!--MD5=[2788e32d678298093f8e0b0bebbd177d]
link e to uc31--><path d="M603.52,335.62 C593.93,348.84 582.14,362.68 569,373 C530.73,403.07 477.2,418.53 436.87,426.34 " fill="none" id="e-to-uc31" style="stroke: #383838; stroke-width: 1.0;"/><polygon fill="#383838" points="431.52,427.35,441.1062,429.6094,436.4331,426.4217,439.6208,421.7485,431.52,427.35" style="stroke: #383838; stroke-width: 1.0;"/><text fill="#000000" font-family="sans-serif" font-size="13" lengthAdjust="spacingAndGlyphs" textLength="43" x="520.5" y="353.4951">Answer</text><text fill="#000000" font-family="sans-serif" font-size="13" lengthAdjust="spacingAndGlyphs" textLength="52" x="516" y="369.8467">Question</text><!--MD5=[7e5d90e345fffe4640844c8dff94e79c]
reverse link uc41 to c--><path d="M179.72,356.99 C192.16,362.03 204.38,368.84 214,378 C264.03,425.66 228.89,469.54 275,521 C294.99,543.32 325.68,559.04 348.37,568.44 " fill="none" id="uc41-backto-c" style="stroke: #383838; stroke-width: 1.0;"/><polygon fill="#383838" points="174.76,355.07,181.7199,362.0385,179.4256,356.8678,184.5963,354.5735,174.76,355.07" style="stroke: #383838; stroke-width: 1.0;"/><!--MD5=[9c85be515a50f0533800359627e7fff6]
reverse link uc42 to c--><path d="M175.97,433.89 C189.05,439.31 202.49,446 214,454 C247.07,476.98 243.5,495.91 275,521 C297.8,539.15 326.99,555.01 348.48,565.54 " fill="none" id="uc42-backto-c" style="stroke: #383838; stroke-width: 1.0;"/><polygon fill="#383838" points="171.18,431.95,178.032,439.0246,175.8174,433.8192,181.0228,431.6047,171.18,431.95" style="stroke: #383838; stroke-width: 1.0;"/><!--MD5=[fe14c2cffb9021b682dc15d7777411a0]
reverse link uc43 to c--><path d="M163.18,503.38 C215.83,521.91 302.86,552.55 348.3,568.55 " fill="none" id="uc43-backto-c" style="stroke: #383838; stroke-width: 1.0;"/><polygon fill="#383838" points="158.2,501.62,165.3642,508.3783,162.9171,503.2781,168.0172,500.831,158.2,501.62" style="stroke: #383838; stroke-width: 1.0;"/><!--MD5=[9b84724ed79cf4350ad9e775071c2505]
reverse link uc44 to c--><path d="M179.98,137.43 C192.78,142.43 205.09,149.64 214,160 C267.04,221.69 228.93,453.94 275,521 C292.32,546.2 324.37,561.72 348.14,570.28 " fill="none" id="uc44-backto-c" style="stroke: #383838; stroke-width: 1.0;"/><polygon fill="#383838" points="175.25,135.68,182.3094,142.5477,179.941,137.4105,185.0782,135.0421,175.25,135.68" style="stroke: #383838; stroke-width: 1.0;"/><!--MD5=[faad59fa2d204daa29ded518a206a487]
link uc21 to uc12--><!--MD5=[c924391a7c8d710a3199196920068c2f]
link uc21 to uc13--><!--MD5=[a8914b31170e3e6fffc817d76af440c0]
link uc21 to uc14--><!--MD5=[6eaba2ed186f22d3e3c92b2100f55c0f]
link uc21 to uc15--><!--MD5=[aaa57c62f38c7b4b378e409e8c73ed6b]
link uc21 to uc17--><!--MD5=[5b87b8933d1147ff15f1772cecab31ff]
link uc44 to uc31--><!--MD5=[2171ca06079334f9b08f5e44f16bd075]
@startuml

left to right direction
skinparam monochrome true

actor "Customer" as c
actor "Employee" as e

e <|-up- c

'entity "Chat" as chat


rectangle "Banking Service" as Banking {

  usecase "Register Customer" as uc11
  usecase "Find Customer" as uc12
  usecase "Delete Customer" as uc13
  usecase "Get Address of Customer" as uc14
  usecase "Update Address of Customer" as uc15
  usecase "Create Customer Account" as uc16
  usecase "Delete Customer Account" as uc17

  usecase "Open Session" as uc21

  usecase "Use Support" as uc31


  usecase "Get Account Value" as uc41
  usecase "Get Account Transfers" as uc42
  usecase "Transfer Money" as uc43
  usecase "Mandate Money" as uc44



}

' Customer Service
uc11 <- - c
uc16 <- - c

e - -> uc12
e - -> uc13
e - -> uc14
e - -> uc15
e - -> uc17


' Session Service
uc21 <- - c


' Support Service
'uc31 - -> chat
uc31 <- - c : Ask\nQuestion
e - -> uc31 : Answer\nQuestion


' Banking Service
uc41 <- - c
uc42 <- - c
uc43 <- - c
uc44 <- - c

' Layout
uc21 -[hidden]-> uc12
uc21 -[hidden]-> uc13
uc21 -[hidden]-> uc14
uc21 -[hidden]-> uc15
uc21 -[hidden]-> uc17
uc44 -[hidden]-> uc31
'e -[hidden]> chat
'chat -[hidden]> c

@enduml

@startuml

left to right direction
skinparam monochrome true

actor "Customer" as c
actor "Employee" as e

e <|-up- c



rectangle "Banking Service" as Banking {

  usecase "Register Customer" as uc11
  usecase "Find Customer" as uc12
  usecase "Delete Customer" as uc13
  usecase "Get Address of Customer" as uc14
  usecase "Update Address of Customer" as uc15
  usecase "Create Customer Account" as uc16
  usecase "Delete Customer Account" as uc17

  usecase "Open Session" as uc21

  usecase "Use Support" as uc31


  usecase "Get Account Value" as uc41
  usecase "Get Account Transfers" as uc42
  usecase "Transfer Money" as uc43
  usecase "Mandate Money" as uc44



}

uc11 <- - c
uc16 <- - c

e - -> uc12
e - -> uc13
e - -> uc14
e - -> uc15
e - -> uc17


uc21 <- - c


uc31 <- - c : Ask\nQuestion
e - -> uc31 : Answer\nQuestion


uc41 <- - c
uc42 <- - c
uc43 <- - c
uc44 <- - c

uc21 -[hidden]-> uc12
uc21 -[hidden]-> uc13
uc21 -[hidden]-> uc14
uc21 -[hidden]-> uc15
uc21 -[hidden]-> uc17
uc44 -[hidden]-> uc31

@enduml

PlantUML version 1.2020.19(Mon Oct 12 17:10:01 CEST 2020)
(GPL source distribution)
Java Runtime: Java(TM) SE Runtime Environment
JVM: Java HotSpot(TM) 64-Bit Server VM
Default Encoding: Cp1252
Language: de
Country: DE
--></g></svg>