<?xml version="1.0" encoding="UTF-8" standalone="no"?><svg xmlns="http://www.w3.org/2000/svg" xmlns:xlink="http://www.w3.org/1999/xlink" contentScriptType="application/ecmascript" contentStyleType="text/css" height="827px" preserveAspectRatio="none" style="width:841px;height:827px;" version="1.1" viewBox="0 0 841 827" width="841px" zoomAndPan="magnify"><defs><filter height="300%" id="fo9qrf3ia2fgv" width="300%" x="-1" y="-1"><feGaussianBlur result="blurOut" stdDeviation="2.0"/><feColorMatrix in="blurOut" result="blurOut2" type="matrix" values="0 0 0 0 0 0 0 0 0 0 0 0 0 0 0 0 0 0 .4 0"/><feOffset dx="4.0" dy="4.0" in="blurOut2" result="blurOut3"/><feBlend in="SourceGraphic" in2="blurOut3" mode="normal"/></filter></defs><g><!--MD5=[3dcf69e4e87a10af00fce8354034ba4c]
cluster presentation--><polygon fill="#FFFFFF" filter="url(#fo9qrf3ia2fgv)" points="174,6,298,6,305,29.6094,436,29.6094,436,122,174,122,174,6" style="stroke: #000000; stroke-width: 1.5;"/><line style="stroke: #000000; stroke-width: 1.5;" x1="174" x2="305" y1="29.6094" y2="29.6094"/><text fill="#000000" font-family="sans-serif" font-size="14" font-weight="bold" lengthAdjust="spacingAndGlyphs" textLength="118" x="178" y="22.5332">Presentation tier</text><!--MD5=[cbbcdfd2ff286cf453505908e439d9c0]
cluster logic--><polygon fill="#FFFFFF" filter="url(#fo9qrf3ia2fgv)" points="57,162,129,162,136,185.6094,779,185.6094,779,523,57,523,57,162" style="stroke: #000000; stroke-width: 1.5;"/><line style="stroke: #000000; stroke-width: 1.5;" x1="57" x2="136" y1="185.6094" y2="185.6094"/><text fill="#000000" font-family="sans-serif" font-size="14" font-weight="bold" lengthAdjust="spacingAndGlyphs" textLength="66" x="61" y="178.5332">Logic tier</text><!--MD5=[dce4c2b5694dd28223e7b1d160ba96c4]
cluster data--><polygon fill="#FFFFFF" filter="url(#fo9qrf3ia2fgv)" points="16,584,81,584,88,607.6094,824,607.6094,824,820,16,820,16,584" style="stroke: #000000; stroke-width: 1.5;"/><line style="stroke: #000000; stroke-width: 1.5;" x1="16" x2="88" y1="607.6094" y2="607.6094"/><text fill="#000000" font-family="sans-serif" font-size="14" font-weight="bold" lengthAdjust="spacingAndGlyphs" textLength="59" x="20" y="600.5332">Data tier</text><!--MD5=[96f7e1299d4a43069e6ed32352fcac20]
entity HTTP--><ellipse cx="207" cy="74" fill="#FEFECE" filter="url(#fo9qrf3ia2fgv)" rx="8" ry="8" style="stroke: #A80036; stroke-width: 1.5;"/><text fill="#000000" font-family="sans-serif" font-size="14" lengthAdjust="spacingAndGlyphs" textLength="36" x="189" y="105.5332">HTTP</text><!--MD5=[5f72b1e1b6bcd2ac922e89c6c0b5c71b]
entity Web Application--><rect fill="#FEFECE" filter="url(#fo9qrf3ia2fgv)" height="47.6094" style="stroke: #A80036; stroke-width: 1.5;" width="142" x="251" y="50"/><rect fill="#FEFECE" height="10" style="stroke: #A80036; stroke-width: 1.5;" width="15" x="373" y="55"/><rect fill="#FEFECE" height="2" style="stroke: #A80036; stroke-width: 1.5;" width="4" x="371" y="57"/><rect fill="#FEFECE" height="2" style="stroke: #A80036; stroke-width: 1.5;" width="4" x="371" y="61"/><text fill="#000000" font-family="sans-serif" font-size="14" lengthAdjust="spacingAndGlyphs" textLength="102" x="266" y="84.5332">Web Application</text><!--MD5=[dd48e2b1ec5bbad274ef16ba535c017d]
entity IFSupportService--><ellipse cx="180" cy="361" fill="#FEFECE" filter="url(#fo9qrf3ia2fgv)" rx="8" ry="8" style="stroke: #A80036; stroke-width: 1.5;"/><text fill="#000000" font-family="sans-serif" font-size="14" lengthAdjust="spacingAndGlyphs" textLength="109" x="125.5" y="392.5332">IFSupportService</text><!--MD5=[e0dbcdd0b6f6a8c0a95380b7bdd4cfaa]
entity SupportService--><rect fill="#FEFECE" filter="url(#fo9qrf3ia2fgv)" height="47.6094" style="stroke: #A80036; stroke-width: 1.5;" width="137" x="81.5" y="451"/><rect fill="#FEFECE" height="10" style="stroke: #A80036; stroke-width: 1.5;" width="15" x="198.5" y="456"/><rect fill="#FEFECE" height="2" style="stroke: #A80036; stroke-width: 1.5;" width="4" x="196.5" y="458"/><rect fill="#FEFECE" height="2" style="stroke: #A80036; stroke-width: 1.5;" width="4" x="196.5" y="462"/><text fill="#000000" font-family="sans-serif" font-size="14" lengthAdjust="spacingAndGlyphs" textLength="97" x="96.5" y="485.5332">SupportService</text><!--MD5=[ec3e7e2aa057a364e097610d2bd1153b]
entity IFBankingService--><ellipse cx="495" cy="361" fill="#FEFECE" filter="url(#fo9qrf3ia2fgv)" rx="8" ry="8" style="stroke: #A80036; stroke-width: 1.5;"/><text fill="#000000" font-family="sans-serif" font-size="14" lengthAdjust="spacingAndGlyphs" textLength="110" x="440" y="392.5332">IFBankingService</text><!--MD5=[ba723757ffde46ba429618d659790656]
entity BankingService--><rect fill="#FEFECE" filter="url(#fo9qrf3ia2fgv)" height="47.6094" style="stroke: #A80036; stroke-width: 1.5;" width="138" x="426" y="451"/><rect fill="#FEFECE" height="10" style="stroke: #A80036; stroke-width: 1.5;" width="15" x="544" y="456"/><rect fill="#FEFECE" height="2" style="stroke: #A80036; stroke-width: 1.5;" width="4" x="542" y="458"/><rect fill="#FEFECE" height="2" style="stroke: #A80036; stroke-width: 1.5;" width="4" x="542" y="462"/><text fill="#000000" font-family="sans-serif" font-size="14" lengthAdjust="spacingAndGlyphs" textLength="98" x="441" y="485.5332">BankingService</text><!--MD5=[363f5c16e87f4383546ac8b7af3bf0de]
entity IFSessionService--><ellipse cx="322" cy="361" fill="#FEFECE" filter="url(#fo9qrf3ia2fgv)" rx="8" ry="8" style="stroke: #A80036; stroke-width: 1.5;"/><text fill="#000000" font-family="sans-serif" font-size="14" lengthAdjust="spacingAndGlyphs" textLength="109" x="267.5" y="392.5332">IFSessionService</text><!--MD5=[d2f5cb2edd50ea0698f8feadbed97ba1]
entity SessionService--><rect fill="#FEFECE" filter="url(#fo9qrf3ia2fgv)" height="47.6094" style="stroke: #A80036; stroke-width: 1.5;" width="137" x="253.5" y="451"/><rect fill="#FEFECE" height="10" style="stroke: #A80036; stroke-width: 1.5;" width="15" x="370.5" y="456"/><rect fill="#FEFECE" height="2" style="stroke: #A80036; stroke-width: 1.5;" width="4" x="368.5" y="458"/><rect fill="#FEFECE" height="2" style="stroke: #A80036; stroke-width: 1.5;" width="4" x="368.5" y="462"/><text fill="#000000" font-family="sans-serif" font-size="14" lengthAdjust="spacingAndGlyphs" textLength="97" x="268.5" y="485.5332">SessionService</text><!--MD5=[5d230ed10d1fc6f00878a9a2f934a889]
entity IFCustomerService--><ellipse cx="669" cy="361" fill="#FEFECE" filter="url(#fo9qrf3ia2fgv)" rx="8" ry="8" style="stroke: #A80036; stroke-width: 1.5;"/><text fill="#000000" font-family="sans-serif" font-size="14" lengthAdjust="spacingAndGlyphs" textLength="120" x="609" y="392.5332">IFCustomerService</text><!--MD5=[76d0c25527896f67cb6aa4ccab7e7ab8]
entity CustomerService--><rect fill="#FEFECE" filter="url(#fo9qrf3ia2fgv)" height="47.6094" style="stroke: #A80036; stroke-width: 1.5;" width="148" x="599" y="451"/><rect fill="#FEFECE" height="10" style="stroke: #A80036; stroke-width: 1.5;" width="15" x="727" y="456"/><rect fill="#FEFECE" height="2" style="stroke: #A80036; stroke-width: 1.5;" width="4" x="725" y="458"/><rect fill="#FEFECE" height="2" style="stroke: #A80036; stroke-width: 1.5;" width="4" x="725" y="462"/><text fill="#000000" font-family="sans-serif" font-size="14" lengthAdjust="spacingAndGlyphs" textLength="108" x="614" y="485.5332">CustomerService</text><!--MD5=[f84c61046119ead14bf503026542d0ed]
entity Paypal\n(Gorbatschow)--><rect fill="#FEFECE" filter="url(#fo9qrf3ia2fgv)" height="65.2188" style="stroke: #A80036; stroke-width: 1.5;" width="133" x="602.5" y="206"/><rect fill="#FEFECE" height="10" style="stroke: #A80036; stroke-width: 1.5;" width="15" x="715.5" y="211"/><rect fill="#FEFECE" height="2" style="stroke: #A80036; stroke-width: 1.5;" width="4" x="713.5" y="213"/><rect fill="#FEFECE" height="2" style="stroke: #A80036; stroke-width: 1.5;" width="4" x="713.5" y="217"/><text fill="#000000" font-family="sans-serif" font-size="14" lengthAdjust="spacingAndGlyphs" textLength="43" x="617.5" y="240.5332">Paypal</text><text fill="#000000" font-family="sans-serif" font-size="14" lengthAdjust="spacingAndGlyphs" textLength="93" x="617.5" y="258.1426">(Gorbatschow)</text><!--MD5=[07a980ba32f4c0751eab462dd9ba1fd5]
entity Chat Service\n(Bielmeier)--><rect fill="#FEFECE" filter="url(#fo9qrf3ia2fgv)" height="65.2188" style="stroke: #A80036; stroke-width: 1.5;" width="121" x="446.5" y="206"/><rect fill="#FEFECE" height="10" style="stroke: #A80036; stroke-width: 1.5;" width="15" x="547.5" y="211"/><rect fill="#FEFECE" height="2" style="stroke: #A80036; stroke-width: 1.5;" width="4" x="545.5" y="213"/><rect fill="#FEFECE" height="2" style="stroke: #A80036; stroke-width: 1.5;" width="4" x="545.5" y="217"/><text fill="#000000" font-family="sans-serif" font-size="14" lengthAdjust="spacingAndGlyphs" textLength="81" x="461.5" y="240.5332">Chat Service</text><text fill="#000000" font-family="sans-serif" font-size="14" lengthAdjust="spacingAndGlyphs" textLength="68" x="461.5" y="258.1426">(Bielmeier)</text><!--MD5=[8f00b82b5d8db756626ca20348204bf7]
entity CustomerRepo--><ellipse cx="322" cy="658" fill="#FEFECE" filter="url(#fo9qrf3ia2fgv)" rx="8" ry="8" style="stroke: #A80036; stroke-width: 1.5;"/><text fill="#000000" font-family="sans-serif" font-size="14" lengthAdjust="spacingAndGlyphs" textLength="95" x="274.5" y="689.5332">CustomerRepo</text><!--MD5=[b3990cbb38841f9d8fcdaf5297d6dc08]
entity CustomerRepository--><rect fill="#FEFECE" filter="url(#fo9qrf3ia2fgv)" height="47.6094" style="stroke: #A80036; stroke-width: 1.5;" width="169" x="233.5" y="748"/><rect fill="#FEFECE" height="10" style="stroke: #A80036; stroke-width: 1.5;" width="15" x="382.5" y="753"/><rect fill="#FEFECE" height="2" style="stroke: #A80036; stroke-width: 1.5;" width="4" x="380.5" y="755"/><rect fill="#FEFECE" height="2" style="stroke: #A80036; stroke-width: 1.5;" width="4" x="380.5" y="759"/><text fill="#000000" font-family="sans-serif" font-size="14" lengthAdjust="spacingAndGlyphs" textLength="129" x="248.5" y="782.5332">CustomerRepository</text><!--MD5=[9a93cbfaa13b410297ce7f2a21ca8600]
entity AccountRepo--><ellipse cx="517" cy="658" fill="#FEFECE" filter="url(#fo9qrf3ia2fgv)" rx="8" ry="8" style="stroke: #A80036; stroke-width: 1.5;"/><text fill="#000000" font-family="sans-serif" font-size="14" lengthAdjust="spacingAndGlyphs" textLength="85" x="474.5" y="689.5332">AccountRepo</text><!--MD5=[5cc9ac11a3f0b123b98e0809612ba330]
entity AccountRepository--><rect fill="#FEFECE" filter="url(#fo9qrf3ia2fgv)" height="47.6094" style="stroke: #A80036; stroke-width: 1.5;" width="159" x="437.5" y="748"/><rect fill="#FEFECE" height="10" style="stroke: #A80036; stroke-width: 1.5;" width="15" x="576.5" y="753"/><rect fill="#FEFECE" height="2" style="stroke: #A80036; stroke-width: 1.5;" width="4" x="574.5" y="755"/><rect fill="#FEFECE" height="2" style="stroke: #A80036; stroke-width: 1.5;" width="4" x="574.5" y="759"/><text fill="#000000" font-family="sans-serif" font-size="14" lengthAdjust="spacingAndGlyphs" textLength="119" x="452.5" y="782.5332">AccountRepository</text><!--MD5=[da8edd1c03438c7def6f252922db0850]
entity AddressRepo--><ellipse cx="708" cy="658" fill="#FEFECE" filter="url(#fo9qrf3ia2fgv)" rx="8" ry="8" style="stroke: #A80036; stroke-width: 1.5;"/><text fill="#000000" font-family="sans-serif" font-size="14" lengthAdjust="spacingAndGlyphs" textLength="86" x="665" y="689.5332">AddressRepo</text><!--MD5=[dba78d1918f1bbe6079f47e9b7a97428]
entity AddressRepository--><rect fill="#FEFECE" filter="url(#fo9qrf3ia2fgv)" height="47.6094" style="stroke: #A80036; stroke-width: 1.5;" width="160" x="632" y="748"/><rect fill="#FEFECE" height="10" style="stroke: #A80036; stroke-width: 1.5;" width="15" x="772" y="753"/><rect fill="#FEFECE" height="2" style="stroke: #A80036; stroke-width: 1.5;" width="4" x="770" y="755"/><rect fill="#FEFECE" height="2" style="stroke: #A80036; stroke-width: 1.5;" width="4" x="770" y="759"/><text fill="#000000" font-family="sans-serif" font-size="14" lengthAdjust="spacingAndGlyphs" textLength="120" x="647" y="782.5332">AddressRepository</text><!--MD5=[a0161680b77bca079bf695f1d554d9c8]
entity SessionRepo--><ellipse cx="150" cy="658" fill="#FEFECE" filter="url(#fo9qrf3ia2fgv)" rx="8" ry="8" style="stroke: #A80036; stroke-width: 1.5;"/><text fill="#000000" font-family="sans-serif" font-size="14" lengthAdjust="spacingAndGlyphs" textLength="84" x="108" y="689.5332">SessionRepo</text><!--MD5=[cc33ee68753cc2405ee06b12bde22df7]
entity SessionRepository--><rect fill="#FEFECE" filter="url(#fo9qrf3ia2fgv)" height="47.6094" style="stroke: #A80036; stroke-width: 1.5;" width="158" x="40" y="748"/><rect fill="#FEFECE" height="10" style="stroke: #A80036; stroke-width: 1.5;" width="15" x="178" y="753"/><rect fill="#FEFECE" height="2" style="stroke: #A80036; stroke-width: 1.5;" width="4" x="176" y="755"/><rect fill="#FEFECE" height="2" style="stroke: #A80036; stroke-width: 1.5;" width="4" x="176" y="759"/><text fill="#000000" font-family="sans-serif" font-size="14" lengthAdjust="spacingAndGlyphs" textLength="118" x="55" y="782.5332">SessionRepository</text><!--MD5=[99d0499ea58cdc2f64f8969b709c1dca]
link HTTP to Web Application--><path d="M216.43,74 C227.84,74 239.25,74 250.66,74 " fill="none" id="HTTP-Web Application" style="stroke: #A80036; stroke-width: 1.0;"/><!--MD5=[5e453f200dc756354ab45e055b2b41ce]
link IFSupportService to SupportService--><path d="M177.84,370.05 C173.38,386.71 163,425.47 156.25,450.67 " fill="none" id="IFSupportService-SupportService" style="stroke: #A80036; stroke-width: 1.0;"/><!--MD5=[d86d3bb6aece21acd13d5dafa20bd9c4]
link IFBankingService to BankingService--><path d="M495,370.05 C495,386.71 495,425.47 495,450.67 " fill="none" id="IFBankingService-BankingService" style="stroke: #A80036; stroke-width: 1.0;"/><!--MD5=[0adcaafa4c22125a6ad619e07717e669]
link IFSessionService to SessionService--><path d="M322,370.05 C322,386.71 322,425.47 322,450.67 " fill="none" id="IFSessionService-SessionService" style="stroke: #A80036; stroke-width: 1.0;"/><!--MD5=[7f1f49a09eb55e9213ceeb235d37460a]
link IFCustomerService to CustomerService--><path d="M669.29,370.05 C669.88,386.71 671.27,425.47 672.17,450.67 " fill="none" id="IFCustomerService-CustomerService" style="stroke: #A80036; stroke-width: 1.0;"/><!--MD5=[ccfd00048727cd5f497e4ae8d5c87fa4]
link Web Application to IFBankingService--><path d="M322.08,98.25 C323.28,137.26 330.44,216.91 367,271 C396.27,314.3 454.23,342.92 480.93,354.37 " fill="none" id="Web Application-to-IFBankingService" style="stroke: #A80036; stroke-width: 1.0; stroke-dasharray: 7.0,7.0;"/><polygon fill="#A80036" points="485.83,356.43,479.0875,349.2509,481.2218,354.4897,475.9831,356.624,485.83,356.43" style="stroke: #A80036; stroke-width: 1.0;"/><!--MD5=[2fd54bf6f614f46a8d244bdf27a211cc]
link Web Application to IFSessionService--><path d="M311.2,98.09 C305.43,111.71 298.93,129.46 296,146 C286.3,200.7 288.13,216 296,271 C299.97,298.73 310.55,329.88 316.93,346.99 " fill="none" id="Web Application-to-IFSessionService" style="stroke: #A80036; stroke-width: 1.0; stroke-dasharray: 7.0,7.0;"/><polygon fill="#A80036" points="318.76,351.83,319.319,341.997,316.9919,347.1531,311.8358,344.826,318.76,351.83" style="stroke: #A80036; stroke-width: 1.0;"/><!--MD5=[59ebb05dfeaa686d3d9a18b15b729369]
link Web Application to IFCustomerService--><path d="M339.37,98.02 C349.24,111.61 361.49,129.36 371,146 C401.39,199.17 384.01,229.44 429,271 C497.14,333.94 613.72,353.41 654.45,358.46 " fill="none" id="Web Application-to-IFCustomerService" style="stroke: #A80036; stroke-width: 1.0; stroke-dasharray: 7.0,7.0;"/><polygon fill="#A80036" points="659.89,359.1,651.4198,354.0744,654.9243,358.515,650.4838,362.0195,659.89,359.1" style="stroke: #A80036; stroke-width: 1.0;"/><!--MD5=[104a977ef427154ee1e21bee34e94c44]
link Web Application to IFSupportService--><path d="M308.03,98.07 C299.86,111.83 289.52,129.73 281,146 C241.93,220.62 200.66,312.98 185.77,346.8 " fill="none" id="Web Application-to-IFSupportService" style="stroke: #A80036; stroke-width: 1.0; stroke-dasharray: 7.0,7.0;"/><polygon fill="#A80036" points="183.61,351.72,190.8744,345.0695,185.6088,347.1369,183.5415,341.8714,183.61,351.72" style="stroke: #A80036; stroke-width: 1.0;"/><!--MD5=[1c53fbc43e4680310149e110914fe96a]
link Paypal\n(Gorbatschow) to IFBankingService--><path d="M623.28,271.16 C584.99,297.68 532.8,333.82 508.49,350.66 " fill="none" id="Paypal\n(Gorbatschow)-to-IFBankingService" style="stroke: #A80036; stroke-width: 1.0; stroke-dasharray: 7.0,7.0;"/><polygon fill="#A80036" points="504.29,353.57,513.9682,351.7446,508.4035,350.7277,509.4205,345.163,504.29,353.57" style="stroke: #A80036; stroke-width: 1.0;"/><!--MD5=[59b09c4c08804d2da6ae75fd2aa3dc61]
link Paypal\n(Gorbatschow) to IFCustomerService--><path d="M669,271.16 C669,295.68 669,328.42 669,346.53 " fill="none" id="Paypal\n(Gorbatschow)-to-IFCustomerService" style="stroke: #A80036; stroke-width: 1.0; stroke-dasharray: 7.0,7.0;"/><polygon fill="#A80036" points="669,351.65,673,342.65,669,346.65,665,342.65,669,351.65" style="stroke: #A80036; stroke-width: 1.0;"/><!--MD5=[b4c8cbad7fe52b58574d33e7e32d1dc9]
link Paypal\n(Gorbatschow) to IFSessionService--><path d="M602.13,264.8 C596.35,266.92 590.57,269.01 585,271 C490.27,304.78 375.27,342.61 335.95,355.46 " fill="none" id="Paypal\n(Gorbatschow)-to-IFSessionService" style="stroke: #A80036; stroke-width: 1.0; stroke-dasharray: 7.0,7.0;"/><polygon fill="#A80036" points="331.12,357.03,340.9187,358.023,335.8705,355.4703,338.4232,350.4222,331.12,357.03" style="stroke: #A80036; stroke-width: 1.0;"/><!--MD5=[c6b9de86fbb93a126cf28435d06fb03a]
reverse link Chat Service\n(Bielmeier) to IFSupportService--><path d="M441.55,260.21 C387.72,277.71 309.73,304.15 243,331 C223.56,338.82 201.44,349.41 189.27,355.39 " fill="none" id="Chat Service\n(Bielmeier)-backto-IFSupportService" style="stroke: #A80036; stroke-width: 1.0; stroke-dasharray: 7.0,7.0;"/><polygon fill="#A80036" points="446.35,258.65,436.555,257.6217,441.5939,260.1925,439.023,265.2314,446.35,258.65" style="stroke: #A80036; stroke-width: 1.0;"/><!--MD5=[82462e0f5fb06176f95aa9dc5c0cbe93]
link CustomerRepo to CustomerRepository--><path d="M321.71,667.05 C321.12,683.71 319.73,722.47 318.83,747.67 " fill="none" id="CustomerRepo-CustomerRepository" style="stroke: #A80036; stroke-width: 1.0;"/><!--MD5=[534fa58eed276944da3448396035762e]
link AccountRepo to AccountRepository--><path d="M517,667.05 C517,683.71 517,722.47 517,747.67 " fill="none" id="AccountRepo-AccountRepository" style="stroke: #A80036; stroke-width: 1.0;"/><!--MD5=[d08bbb9ffbfc7e1972c45af233c1f707]
link AddressRepo to AddressRepository--><path d="M708.29,667.05 C708.88,683.71 710.27,722.47 711.17,747.67 " fill="none" id="AddressRepo-AddressRepository" style="stroke: #A80036; stroke-width: 1.0;"/><!--MD5=[3a0497f2d68db5aff44f0b2f97811cd2]
link SessionRepo to SessionRepository--><path d="M147.77,667.05 C143.16,683.71 132.43,722.47 125.46,747.67 " fill="none" id="SessionRepo-SessionRepository" style="stroke: #A80036; stroke-width: 1.0;"/><!--MD5=[52b800ac4be7430d91b8794978eb2c4a]
link BankingService to CustomerRepo--><path d="M472.74,499.29 C435.36,538.4 361.31,615.87 333.19,645.29 " fill="none" id="BankingService-to-CustomerRepo" style="stroke: #A80036; stroke-width: 1.0; stroke-dasharray: 7.0,7.0;"/><polygon fill="#A80036" points="329.69,648.96,338.8016,645.2211,333.1461,645.3468,333.0204,639.6913,329.69,648.96" style="stroke: #A80036; stroke-width: 1.0;"/><!--MD5=[48b8e5472dfa3ad495fdf6685d289581]
link SessionService to CustomerRepo--><path d="M322,499.29 C322,537.76 322,613.35 322,643.81 " fill="none" id="SessionService-to-CustomerRepo" style="stroke: #A80036; stroke-width: 1.0; stroke-dasharray: 7.0,7.0;"/><polygon fill="#A80036" points="322,648.96,326,639.96,322,643.96,318,639.96,322,648.96" style="stroke: #A80036; stroke-width: 1.0;"/><!--MD5=[9de9ee403c23975fd0a96839d821ba25]
link BankingService to AddressRepo--><path d="M522.41,499.29 C568.84,538.74 661.2,617.23 695.12,646.06 " fill="none" id="BankingService-to-AddressRepo" style="stroke: #A80036; stroke-width: 1.0; stroke-dasharray: 7.0,7.0;"/><polygon fill="#A80036" points="698.96,649.32,694.6748,640.4523,695.1436,646.0896,689.5062,646.5585,698.96,649.32" style="stroke: #A80036; stroke-width: 1.0;"/><!--MD5=[fd065f9b0fb9fbd3aeb945f70e136d5d]
link CustomerService to AddressRepo--><path d="M677.5,499.29 C684.94,537.76 699.56,613.35 705.45,643.81 " fill="none" id="CustomerService-to-AddressRepo" style="stroke: #A80036; stroke-width: 1.0; stroke-dasharray: 7.0,7.0;"/><polygon fill="#A80036" points="706.44,648.96,708.6674,639.3663,705.4952,644.0501,700.8115,640.8779,706.44,648.96" style="stroke: #A80036; stroke-width: 1.0;"/><!--MD5=[e9ca94a4bf200c294d17f75b8bab4d0d]
link BankingService to AccountRepo--><path d="M497.83,499.29 C502.51,537.76 511.69,613.35 515.4,643.81 " fill="none" id="BankingService-to-AccountRepo" style="stroke: #A80036; stroke-width: 1.0; stroke-dasharray: 7.0,7.0;"/><polygon fill="#A80036" points="516.02,648.96,518.8861,639.5374,515.4068,643.9977,510.9465,640.5185,516.02,648.96" style="stroke: #A80036; stroke-width: 1.0;"/><!--MD5=[1e5a95a2780feb6f843cd3cd7905e537]
link CustomerService to AccountRepo--><path d="M652.93,499.29 C619.36,538.24 552.99,615.24 527.4,644.93 " fill="none" id="CustomerService-to-AccountRepo" style="stroke: #A80036; stroke-width: 1.0; stroke-dasharray: 7.0,7.0;"/><polygon fill="#A80036" points="523.93,648.96,532.832,644.7464,527.191,645.1698,526.7677,639.5288,523.93,648.96" style="stroke: #A80036; stroke-width: 1.0;"/><!--MD5=[bdf1e82c9af14f521784cdb83eb95f61]
link SessionService to SessionRepo--><path d="M299.87,499.29 C262.7,538.4 189.08,615.87 161.12,645.29 " fill="none" id="SessionService-to-SessionRepo" style="stroke: #A80036; stroke-width: 1.0; stroke-dasharray: 7.0,7.0;"/><polygon fill="#A80036" points="157.64,648.96,166.7364,645.1844,161.0815,645.3329,160.933,639.678,157.64,648.96" style="stroke: #A80036; stroke-width: 1.0;"/><!--MD5=[0c58043e63b44432a8f5adb464c3c905]
link presentation to logic--><!--MD5=[648d8934d74076bae337f9a17d07d1b7]
link logic to data--><!--MD5=[9708b1e8d1d47d35e9e5209fe7e8be41]
@startuml

package "Presentation tier" as presentation {
  HTTP - [Web Application]
}

package "Logic tier" as logic {
  IFSupportService -down- [SupportService]
  IFBankingService -down- [BankingService]
  IFSessionService -down- [SessionService]
  IFCustomerService -down- [CustomerService]
  
  [Web Application] .> IFBankingService
  [Web Application] ...> IFSessionService
  [Web Application] .> IFCustomerService
  [Web Application] .> IFSupportService

  ' used Services
  [Paypal\n(Gorbatschow)] .down.> IFBankingService
  [Paypal\n(Gorbatschow)] .down.> IFCustomerService
  [Paypal\n(Gorbatschow)] .down.> IFSessionService

  IFSupportService .up.> [Chat Service\n(Bielmeier)]

}

package "Data tier" as data {
  CustomerRepo -down- [CustomerRepository]
  AccountRepo -down- [AccountRepository]
  AddressRepo -down- [AddressRepository]
  SessionRepo -down- [SessionRepository]

  [BankingService] ...> CustomerRepo
  [SessionService] ...> CustomerRepo
  
  [BankingService] .> AddressRepo
  [CustomerService] .> AddressRepo
  
  [BankingService] .> AccountRepo
  [CustomerService] .> AccountRepo

  [SessionService] -..> SessionRepo
}

presentation -[hidden]-> logic
logic -[hidden]-> data




@enduml

@startuml

package "Presentation tier" as presentation {
  HTTP - [Web Application]
}

package "Logic tier" as logic {
  IFSupportService -down- [SupportService]
  IFBankingService -down- [BankingService]
  IFSessionService -down- [SessionService]
  IFCustomerService -down- [CustomerService]
  
  [Web Application] .> IFBankingService
  [Web Application] ...> IFSessionService
  [Web Application] .> IFCustomerService
  [Web Application] .> IFSupportService

  [Paypal\n(Gorbatschow)] .down.> IFBankingService
  [Paypal\n(Gorbatschow)] .down.> IFCustomerService
  [Paypal\n(Gorbatschow)] .down.> IFSessionService

  IFSupportService .up.> [Chat Service\n(Bielmeier)]

}

package "Data tier" as data {
  CustomerRepo -down- [CustomerRepository]
  AccountRepo -down- [AccountRepository]
  AddressRepo -down- [AddressRepository]
  SessionRepo -down- [SessionRepository]

  [BankingService] ...> CustomerRepo
  [SessionService] ...> CustomerRepo
  
  [BankingService] .> AddressRepo
  [CustomerService] .> AddressRepo
  
  [BankingService] .> AccountRepo
  [CustomerService] .> AccountRepo

  [SessionService] -..> SessionRepo
}

presentation -[hidden]-> logic
logic -[hidden]-> data




@enduml

PlantUML version 1.2020.19(Mon Oct 12 17:10:01 CEST 2020)
(GPL source distribution)
Java Runtime: Java(TM) SE Runtime Environment
JVM: Java HotSpot(TM) 64-Bit Server VM
Default Encoding: Cp1252
Language: de
Country: DE
--></g></svg>