<?xml version="1.0" encoding="UTF-8" standalone="no"?><svg xmlns="http://www.w3.org/2000/svg" xmlns:xlink="http://www.w3.org/1999/xlink" contentScriptType="application/ecmascript" contentStyleType="text/css" height="553px" preserveAspectRatio="none" style="width:396px;height:553px;" version="1.1" viewBox="0 0 396 553" width="396px" zoomAndPan="magnify"><defs><filter height="300%" id="fdtw4615dey4j" width="300%" x="-1" y="-1"><feGaussianBlur result="blurOut" stdDeviation="2.0"/><feColorMatrix in="blurOut" result="blurOut2" type="matrix" values="0 0 0 0 0 0 0 0 0 0 0 0 0 0 0 0 0 0 .4 0"/><feOffset dx="4.0" dy="4.0" in="blurOut2" result="blurOut3"/><feBlend in="SourceGraphic" in2="blurOut3" mode="normal"/></filter></defs><g><!--MD5=[f9a29335b499db729be669fd1bd54958]
class Account--><rect codeLine="6" fill="#F8F8F8" filter="url(#fdtw4615dey4j)" height="89.5078" id="Account" style="stroke: #383838; stroke-width: 1.5;" width="80" x="291" y="450"/><ellipse cx="308.25" cy="466" fill="#C2C2C2" rx="11" ry="11" style="stroke: #383838; stroke-width: 1.0;"/><path d="M311.0156,461.875 Q311.1719,461.6563 311.3594,461.5469 Q311.5469,461.4375 311.7656,461.4375 Q312.1406,461.4375 312.375,461.7031 Q312.6094,461.9531 312.6094,462.5625 L312.6094,464.0156 Q312.6094,464.625 312.375,464.8906 Q312.1406,465.1563 311.7656,465.1563 Q311.4219,465.1563 311.2188,464.9531 Q311.0156,464.7656 310.9063,464.25 Q310.8594,463.8906 310.6719,463.7031 Q310.3438,463.3281 309.7344,463.1094 Q309.125,462.8906 308.5,462.8906 Q307.7344,462.8906 307.0938,463.2188 Q306.4688,463.5469 305.9688,464.2969 Q305.4844,465.0469 305.4844,466.0781 L305.4844,467.1719 Q305.4844,468.4063 306.375,469.2344 Q307.2656,470.0469 308.8594,470.0469 Q309.7969,470.0469 310.4531,469.7969 Q310.8438,469.6406 311.2656,469.2031 Q311.5313,468.9375 311.6719,468.8594 Q311.8281,468.7813 312.0313,468.7813 Q312.3594,468.7813 312.6094,469.0469 Q312.875,469.2969 312.875,469.6406 Q312.875,469.9844 312.5313,470.3906 Q312.0313,470.9688 311.2344,471.2969 Q310.1563,471.75 308.8594,471.75 Q307.3438,471.75 306.1406,471.125 Q305.1563,470.625 304.4688,469.5625 Q303.7813,468.4844 303.7813,467.2031 L303.7813,466.0469 Q303.7813,464.7188 304.3906,463.5781 Q305.0156,462.4219 306.1094,461.8125 Q307.2031,461.1875 308.4375,461.1875 Q309.1719,461.1875 309.8125,461.3594 Q310.4688,461.5156 311.0156,461.875 Z "/><text fill="#000000" font-family="sans-serif" font-size="12" lengthAdjust="spacingAndGlyphs" textLength="43" x="322.75" y="470.9102">Account</text><line style="stroke: #383838; stroke-width: 1.5;" x1="292" x2="370" y1="482" y2="482"/><text fill="#000000" font-family="sans-serif" font-size="11" lengthAdjust="spacingAndGlyphs" textLength="38" x="297" y="497.4189">-id: long</text><text fill="#000000" font-family="sans-serif" font-size="11" lengthAdjust="spacingAndGlyphs" textLength="58" x="297" y="511.2549">-iban: String</text><text fill="#000000" font-family="sans-serif" font-size="11" lengthAdjust="spacingAndGlyphs" textLength="68" x="297" y="525.0908">-balance: long</text><line style="stroke: #383838; stroke-width: 1.5;" x1="292" x2="370" y1="531.5078" y2="531.5078"/><!--MD5=[0f39e4cb6f03951afbf6d14bd2505654]
class Address--><rect codeLine="12" fill="#F8F8F8" filter="url(#fdtw4615dey4j)" height="131.0156" id="Address" style="stroke: #383838; stroke-width: 1.5;" width="87" x="149.5" y="7"/><ellipse cx="168.55" cy="23" fill="#C2C2C2" rx="11" ry="11" style="stroke: #383838; stroke-width: 1.0;"/><path d="M171.3156,18.875 Q171.4719,18.6563 171.6594,18.5469 Q171.8469,18.4375 172.0656,18.4375 Q172.4406,18.4375 172.675,18.7031 Q172.9094,18.9531 172.9094,19.5625 L172.9094,21.0156 Q172.9094,21.625 172.675,21.8906 Q172.4406,22.1563 172.0656,22.1563 Q171.7219,22.1563 171.5188,21.9531 Q171.3156,21.7656 171.2063,21.25 Q171.1594,20.8906 170.9719,20.7031 Q170.6438,20.3281 170.0344,20.1094 Q169.425,19.8906 168.8,19.8906 Q168.0344,19.8906 167.3938,20.2188 Q166.7688,20.5469 166.2688,21.2969 Q165.7844,22.0469 165.7844,23.0781 L165.7844,24.1719 Q165.7844,25.4063 166.675,26.2344 Q167.5656,27.0469 169.1594,27.0469 Q170.0969,27.0469 170.7531,26.7969 Q171.1438,26.6406 171.5656,26.2031 Q171.8313,25.9375 171.9719,25.8594 Q172.1281,25.7813 172.3313,25.7813 Q172.6594,25.7813 172.9094,26.0469 Q173.175,26.2969 173.175,26.6406 Q173.175,26.9844 172.8313,27.3906 Q172.3313,27.9688 171.5344,28.2969 Q170.4563,28.75 169.1594,28.75 Q167.6438,28.75 166.4406,28.125 Q165.4563,27.625 164.7688,26.5625 Q164.0813,25.4844 164.0813,24.2031 L164.0813,23.0469 Q164.0813,21.7188 164.6906,20.5781 Q165.3156,19.4219 166.4094,18.8125 Q167.5031,18.1875 168.7375,18.1875 Q169.4719,18.1875 170.1125,18.3594 Q170.7688,18.5156 171.3156,18.875 Z "/><text fill="#000000" font-family="sans-serif" font-size="12" lengthAdjust="spacingAndGlyphs" textLength="46" x="183.45" y="27.9102">Address</text><line style="stroke: #383838; stroke-width: 1.5;" x1="150.5" x2="235.5" y1="39" y2="39"/><text fill="#000000" font-family="sans-serif" font-size="11" lengthAdjust="spacingAndGlyphs" textLength="38" x="155.5" y="54.4189">-id: long</text><text fill="#000000" font-family="sans-serif" font-size="11" lengthAdjust="spacingAndGlyphs" textLength="66" x="155.5" y="68.2549">-street: String</text><text fill="#000000" font-family="sans-serif" font-size="11" lengthAdjust="spacingAndGlyphs" textLength="62" x="155.5" y="82.0908">-houseNr: int</text><text fill="#000000" font-family="sans-serif" font-size="11" lengthAdjust="spacingAndGlyphs" textLength="69" x="155.5" y="95.9268">-zipCode: long</text><text fill="#000000" font-family="sans-serif" font-size="11" lengthAdjust="spacingAndGlyphs" textLength="55" x="155.5" y="109.7627">-city: String</text><text fill="#000000" font-family="sans-serif" font-size="11" lengthAdjust="spacingAndGlyphs" textLength="75" x="155.5" y="123.5986">-country: String</text><line style="stroke: #383838; stroke-width: 1.5;" x1="150.5" x2="235.5" y1="130.0156" y2="130.0156"/><!--MD5=[09ce52be0ee7de43c61b6e2d59bf108b]
class Person--><rect codeLine="23" fill="#F8F8F8" filter="url(#fdtw4615dey4j)" height="131.0156" id="Person" style="stroke: #383838; stroke-width: 1.5;" width="100" x="7" y="198"/><ellipse cx="34.6" cy="214" fill="#C2C2C2" rx="11" ry="11" style="stroke: #383838; stroke-width: 1.0;"/><path d="M37.3656,209.875 Q37.5219,209.6563 37.7094,209.5469 Q37.8969,209.4375 38.1156,209.4375 Q38.4906,209.4375 38.725,209.7031 Q38.9594,209.9531 38.9594,210.5625 L38.9594,212.0156 Q38.9594,212.625 38.725,212.8906 Q38.4906,213.1563 38.1156,213.1563 Q37.7719,213.1563 37.5688,212.9531 Q37.3656,212.7656 37.2563,212.25 Q37.2094,211.8906 37.0219,211.7031 Q36.6938,211.3281 36.0844,211.1094 Q35.475,210.8906 34.85,210.8906 Q34.0844,210.8906 33.4438,211.2188 Q32.8188,211.5469 32.3188,212.2969 Q31.8344,213.0469 31.8344,214.0781 L31.8344,215.1719 Q31.8344,216.4063 32.725,217.2344 Q33.6156,218.0469 35.2094,218.0469 Q36.1469,218.0469 36.8031,217.7969 Q37.1938,217.6406 37.6156,217.2031 Q37.8813,216.9375 38.0219,216.8594 Q38.1781,216.7813 38.3813,216.7813 Q38.7094,216.7813 38.9594,217.0469 Q39.225,217.2969 39.225,217.6406 Q39.225,217.9844 38.8813,218.3906 Q38.3813,218.9688 37.5844,219.2969 Q36.5063,219.75 35.2094,219.75 Q33.6938,219.75 32.4906,219.125 Q31.5063,218.625 30.8188,217.5625 Q30.1313,216.4844 30.1313,215.2031 L30.1313,214.0469 Q30.1313,212.7188 30.7406,211.5781 Q31.3656,210.4219 32.4594,209.8125 Q33.5531,209.1875 34.7875,209.1875 Q35.5219,209.1875 36.1625,209.3594 Q36.8188,209.5156 37.3656,209.875 Z "/><text fill="#000000" font-family="sans-serif" font-size="12" lengthAdjust="spacingAndGlyphs" textLength="40" x="51.4" y="218.9102">Person</text><line style="stroke: #383838; stroke-width: 1.5;" x1="8" x2="106" y1="230" y2="230"/><text fill="#000000" font-family="sans-serif" font-size="11" lengthAdjust="spacingAndGlyphs" textLength="38" x="13" y="245.4189">-id: long</text><text fill="#000000" font-family="sans-serif" font-size="11" lengthAdjust="spacingAndGlyphs" textLength="84" x="13" y="259.2549">-forename: String</text><text fill="#000000" font-family="sans-serif" font-size="11" lengthAdjust="spacingAndGlyphs" textLength="80" x="13" y="273.0908">-surname: String</text><text fill="#000000" font-family="sans-serif" font-size="11" lengthAdjust="spacingAndGlyphs" textLength="86" x="13" y="286.9268">-username: String</text><text fill="#000000" font-family="sans-serif" font-size="11" lengthAdjust="spacingAndGlyphs" textLength="75" x="13" y="300.7627">-birthDate: Date</text><text fill="#000000" font-family="sans-serif" font-size="11" lengthAdjust="spacingAndGlyphs" textLength="88" x="13" y="314.5986">-password: String</text><line style="stroke: #383838; stroke-width: 1.5;" x1="8" x2="106" y1="321.0156" y2="321.0156"/><!--MD5=[7421f545a0d8420c5bec41e74b387d9c]
class Employee--><rect codeLine="32" fill="#F8F8F8" filter="url(#fdtw4615dey4j)" height="75.6719" id="Employee" style="stroke: #383838; stroke-width: 1.5;" width="105" x="50.5" y="457"/><ellipse cx="73.6" cy="473" fill="#C2C2C2" rx="11" ry="11" style="stroke: #383838; stroke-width: 1.0;"/><path d="M76.3656,468.875 Q76.5219,468.6563 76.7094,468.5469 Q76.8969,468.4375 77.1156,468.4375 Q77.4906,468.4375 77.725,468.7031 Q77.9594,468.9531 77.9594,469.5625 L77.9594,471.0156 Q77.9594,471.625 77.725,471.8906 Q77.4906,472.1563 77.1156,472.1563 Q76.7719,472.1563 76.5688,471.9531 Q76.3656,471.7656 76.2563,471.25 Q76.2094,470.8906 76.0219,470.7031 Q75.6938,470.3281 75.0844,470.1094 Q74.475,469.8906 73.85,469.8906 Q73.0844,469.8906 72.4438,470.2188 Q71.8188,470.5469 71.3188,471.2969 Q70.8344,472.0469 70.8344,473.0781 L70.8344,474.1719 Q70.8344,475.4063 71.725,476.2344 Q72.6156,477.0469 74.2094,477.0469 Q75.1469,477.0469 75.8031,476.7969 Q76.1938,476.6406 76.6156,476.2031 Q76.8813,475.9375 77.0219,475.8594 Q77.1781,475.7813 77.3813,475.7813 Q77.7094,475.7813 77.9594,476.0469 Q78.225,476.2969 78.225,476.6406 Q78.225,476.9844 77.8813,477.3906 Q77.3813,477.9688 76.5844,478.2969 Q75.5063,478.75 74.2094,478.75 Q72.6938,478.75 71.4906,478.125 Q70.5063,477.625 69.8188,476.5625 Q69.1313,475.4844 69.1313,474.2031 L69.1313,473.0469 Q69.1313,471.7188 69.7406,470.5781 Q70.3656,469.4219 71.4594,468.8125 Q72.5531,468.1875 73.7875,468.1875 Q74.5219,468.1875 75.1625,468.3594 Q75.8188,468.5156 76.3656,468.875 Z "/><text fill="#000000" font-family="sans-serif" font-size="12" lengthAdjust="spacingAndGlyphs" textLength="55" x="89.4" y="477.9102">Employee</text><line style="stroke: #383838; stroke-width: 1.5;" x1="51.5" x2="154.5" y1="489" y2="489"/><text fill="#000000" font-family="sans-serif" font-size="11" lengthAdjust="spacingAndGlyphs" textLength="93" x="56.5" y="504.4189">-designation: String</text><text fill="#000000" font-family="sans-serif" font-size="11" lengthAdjust="spacingAndGlyphs" textLength="60" x="56.5" y="518.2549">-salary: long</text><line style="stroke: #383838; stroke-width: 1.5;" x1="51.5" x2="154.5" y1="524.6719" y2="524.6719"/><!--MD5=[2ce0c9fb7f55b1e256ab28a8ea6b25ec]
class Customer--><rect codeLine="37" fill="#F8F8F8" filter="url(#fdtw4615dey4j)" height="61.8359" id="Customer" style="stroke: #383838; stroke-width: 1.5;" width="102" x="142" y="232.5"/><ellipse cx="163.75" cy="248.5" fill="#C2C2C2" rx="11" ry="11" style="stroke: #383838; stroke-width: 1.0;"/><path d="M166.5156,244.375 Q166.6719,244.1563 166.8594,244.0469 Q167.0469,243.9375 167.2656,243.9375 Q167.6406,243.9375 167.875,244.2031 Q168.1094,244.4531 168.1094,245.0625 L168.1094,246.5156 Q168.1094,247.125 167.875,247.3906 Q167.6406,247.6563 167.2656,247.6563 Q166.9219,247.6563 166.7188,247.4531 Q166.5156,247.2656 166.4063,246.75 Q166.3594,246.3906 166.1719,246.2031 Q165.8438,245.8281 165.2344,245.6094 Q164.625,245.3906 164,245.3906 Q163.2344,245.3906 162.5938,245.7188 Q161.9688,246.0469 161.4688,246.7969 Q160.9844,247.5469 160.9844,248.5781 L160.9844,249.6719 Q160.9844,250.9063 161.875,251.7344 Q162.7656,252.5469 164.3594,252.5469 Q165.2969,252.5469 165.9531,252.2969 Q166.3438,252.1406 166.7656,251.7031 Q167.0313,251.4375 167.1719,251.3594 Q167.3281,251.2813 167.5313,251.2813 Q167.8594,251.2813 168.1094,251.5469 Q168.375,251.7969 168.375,252.1406 Q168.375,252.4844 168.0313,252.8906 Q167.5313,253.4688 166.7344,253.7969 Q165.6563,254.25 164.3594,254.25 Q162.8438,254.25 161.6406,253.625 Q160.6563,253.125 159.9688,252.0625 Q159.2813,250.9844 159.2813,249.7031 L159.2813,248.5469 Q159.2813,247.2188 159.8906,246.0781 Q160.5156,244.9219 161.6094,244.3125 Q162.7031,243.6875 163.9375,243.6875 Q164.6719,243.6875 165.3125,243.8594 Q165.9688,244.0156 166.5156,244.375 Z "/><text fill="#000000" font-family="sans-serif" font-size="12" lengthAdjust="spacingAndGlyphs" textLength="55" x="179.25" y="253.4102">Customer</text><line style="stroke: #383838; stroke-width: 1.5;" x1="143" x2="243" y1="264.5" y2="264.5"/><text fill="#000000" font-family="sans-serif" font-size="11" lengthAdjust="spacingAndGlyphs" textLength="90" x="148" y="279.9189">-taxNumber: String</text><line style="stroke: #383838; stroke-width: 1.5;" x1="143" x2="243" y1="286.3359" y2="286.3359"/><!--MD5=[02f52dd76b6d93c484e98adf8cb1a92d]
class Transfer--><rect codeLine="42" fill="#F8F8F8" filter="url(#fdtw4615dey4j)" height="103.3438" id="Transfer" style="stroke: #383838; stroke-width: 1.5;" width="103" x="279.5" y="212"/><ellipse cx="305.75" cy="228" fill="#C2C2C2" rx="11" ry="11" style="stroke: #383838; stroke-width: 1.0;"/><path d="M308.5156,223.875 Q308.6719,223.6563 308.8594,223.5469 Q309.0469,223.4375 309.2656,223.4375 Q309.6406,223.4375 309.875,223.7031 Q310.1094,223.9531 310.1094,224.5625 L310.1094,226.0156 Q310.1094,226.625 309.875,226.8906 Q309.6406,227.1563 309.2656,227.1563 Q308.9219,227.1563 308.7188,226.9531 Q308.5156,226.7656 308.4063,226.25 Q308.3594,225.8906 308.1719,225.7031 Q307.8438,225.3281 307.2344,225.1094 Q306.625,224.8906 306,224.8906 Q305.2344,224.8906 304.5938,225.2188 Q303.9688,225.5469 303.4688,226.2969 Q302.9844,227.0469 302.9844,228.0781 L302.9844,229.1719 Q302.9844,230.4063 303.875,231.2344 Q304.7656,232.0469 306.3594,232.0469 Q307.2969,232.0469 307.9531,231.7969 Q308.3438,231.6406 308.7656,231.2031 Q309.0313,230.9375 309.1719,230.8594 Q309.3281,230.7813 309.5313,230.7813 Q309.8594,230.7813 310.1094,231.0469 Q310.375,231.2969 310.375,231.6406 Q310.375,231.9844 310.0313,232.3906 Q309.5313,232.9688 308.7344,233.2969 Q307.6563,233.75 306.3594,233.75 Q304.8438,233.75 303.6406,233.125 Q302.6563,232.625 301.9688,231.5625 Q301.2813,230.4844 301.2813,229.2031 L301.2813,228.0469 Q301.2813,226.7188 301.8906,225.5781 Q302.5156,224.4219 303.6094,223.8125 Q304.7031,223.1875 305.9375,223.1875 Q306.6719,223.1875 307.3125,223.3594 Q307.9688,223.5156 308.5156,223.875 Z "/><text fill="#000000" font-family="sans-serif" font-size="12" lengthAdjust="spacingAndGlyphs" textLength="46" x="322.25" y="232.9102">Transfer</text><line style="stroke: #383838; stroke-width: 1.5;" x1="280.5" x2="381.5" y1="244" y2="244"/><text fill="#000000" font-family="sans-serif" font-size="11" lengthAdjust="spacingAndGlyphs" textLength="38" x="285.5" y="259.4189">-id: long</text><text fill="#000000" font-family="sans-serif" font-size="11" lengthAdjust="spacingAndGlyphs" textLength="65" x="285.5" y="273.2549">-amount: long</text><text fill="#000000" font-family="sans-serif" font-size="11" lengthAdjust="spacingAndGlyphs" textLength="53" x="285.5" y="287.0908">-date: Date</text><text fill="#000000" font-family="sans-serif" font-size="11" lengthAdjust="spacingAndGlyphs" textLength="91" x="285.5" y="300.9268">-description: String</text><line style="stroke: #383838; stroke-width: 1.5;" x1="280.5" x2="381.5" y1="307.3438" y2="307.3438"/><!--MD5=[21cfb2b851e490ed59dc6f2f8039176f]
reverse link Customer to Account--><path codeLine="51" d="M199.75,307.53 C199.75,307.53 199.75,454 199.75,454 C199.75,454 252.31,454 290.91,454 " fill="none" id="Customer-backto-Account" style="stroke: #383838; stroke-width: 1.0;"/><polygon fill="#383838" points="199.75,294.53,195.75,300.53,199.75,306.53,203.75,300.53,199.75,294.53" style="stroke: #383838; stroke-width: 1.0;"/><text fill="#000000" font-family="sans-serif" font-size="13" lengthAdjust="spacingAndGlyphs" textLength="7" x="194.318" y="317.177">1</text><text fill="#000000" font-family="sans-serif" font-size="13" lengthAdjust="spacingAndGlyphs" textLength="83" x="188.318" y="333.5286">accountOwner</text><text fill="#000000" font-family="sans-serif" font-size="13" lengthAdjust="spacingAndGlyphs" textLength="53" x="229.7943" y="464.5211">accounts</text><text fill="#000000" font-family="sans-serif" font-size="13" lengthAdjust="spacingAndGlyphs" textLength="20" x="262.2943" y="480.8726">0..*</text><!--MD5=[4d6cd11ed83cfd80edd9ca09c146b760]
reverse link Address to Customer--><path codeLine="52" d="M171.25,143.23 C171.25,143.23 171.25,232.48 171.25,232.48 " fill="none" id="Address-backto-Customer" style="stroke: #383838; stroke-width: 1.0;"/><polygon fill="#383838" points="171.25,138.23,167.25,147.23,171.25,143.23,175.25,147.23,171.25,138.23" style="stroke: #383838; stroke-width: 1.0;"/><text fill="#000000" font-family="sans-serif" font-size="13" lengthAdjust="spacingAndGlyphs" textLength="7" x="156.4848" y="159.5478">1</text><text fill="#000000" font-family="sans-serif" font-size="13" lengthAdjust="spacingAndGlyphs" textLength="46" x="120.9848" y="175.8993">address</text><text fill="#000000" font-family="sans-serif" font-size="13" lengthAdjust="spacingAndGlyphs" textLength="53" x="109.3539" y="205.3857">residents</text><text fill="#000000" font-family="sans-serif" font-size="13" lengthAdjust="spacingAndGlyphs" textLength="20" x="141.8539" y="221.7373">1..*</text><!--MD5=[8b6ec0a2a166b0af4960f5d0cb8a9ecc]
link Address to Customer--><!--MD5=[36563a756307975dce7f8a8b2e0cd6b8]
link Transfer to Account--><path codeLine="53" d="M351,315.16 C351,315.16 351,444.75 351,444.75 " fill="none" id="Transfer-to-Account" style="stroke: #383838; stroke-width: 1.0;"/><polygon fill="#383838" points="351,449.75,355,440.75,351,444.75,347,440.75,351,449.75" style="stroke: #383838; stroke-width: 1.0;"/><text fill="#000000" font-family="sans-serif" font-size="13" lengthAdjust="spacingAndGlyphs" textLength="20" x="332.3438" y="336.6725">0..*</text><text fill="#000000" font-family="sans-serif" font-size="13" lengthAdjust="spacingAndGlyphs" textLength="32" x="315.5547" y="406.6461">payer</text><text fill="#000000" font-family="sans-serif" font-size="13" lengthAdjust="spacingAndGlyphs" textLength="0" x="333.5547" y="422.9977"/><text fill="#000000" font-family="sans-serif" font-size="13" lengthAdjust="spacingAndGlyphs" textLength="7" x="344.0547" y="439.3492">1</text><!--MD5=[36563a756307975dce7f8a8b2e0cd6b8]
link Transfer to Account--><path codeLine="54" d="M331,315.16 C331,315.16 331,444.75 331,444.75 " fill="none" id="Transfer-to-Account-1" style="stroke: #383838; stroke-width: 1.0;"/><polygon fill="#383838" points="331,449.75,335,440.75,331,444.75,327,440.75,331,449.75" style="stroke: #383838; stroke-width: 1.0;"/><text fill="#000000" font-family="sans-serif" font-size="13" lengthAdjust="spacingAndGlyphs" textLength="20" x="309.6563" y="336.6725">0..*</text><text fill="#000000" font-family="sans-serif" font-size="13" lengthAdjust="spacingAndGlyphs" textLength="44" x="283.9063" y="422.7159">receiver</text><text fill="#000000" font-family="sans-serif" font-size="13" lengthAdjust="spacingAndGlyphs" textLength="7" x="318.4063" y="439.0674">1</text><!--MD5=[422fed246c07fd4c8c5b045713f9b46e]
link Account to Transfer--><!--MD5=[46a6c4790507828b8686583c940a361f]
link Customer to Employee--><path codeLine="55" d="M148.75,294.72 C148.75,336.81 148.75,411.67 148.75,456.99 " fill="none" id="Customer-Employee" style="stroke: #383838; stroke-width: 1.0;"/><text fill="#000000" font-family="sans-serif" font-size="13" lengthAdjust="spacingAndGlyphs" textLength="20" x="135.2433" y="315.8831">0..*</text><text fill="#000000" font-family="sans-serif" font-size="13" lengthAdjust="spacingAndGlyphs" textLength="61" x="109.2433" y="332.2347">customers</text><text fill="#000000" font-family="sans-serif" font-size="13" lengthAdjust="spacingAndGlyphs" textLength="0" x="181.2433" y="332.2347"/><text fill="#000000" font-family="sans-serif" font-size="13" lengthAdjust="spacingAndGlyphs" textLength="54" x="97.8555" y="429.6251">attendant</text><text fill="#000000" font-family="sans-serif" font-size="13" lengthAdjust="spacingAndGlyphs" textLength="7" x="139.3555" y="445.9767">1</text><!--MD5=[1ca9c1e22cc1eb729b1002e4b7ac82ab]
reverse link Person to Employee--><path codeLine="58" d="M78.75,349.22 C78.75,349.22 78.75,456.96 78.75,456.96 " fill="none" id="Person-backto-Employee" style="stroke: #383838; stroke-width: 1.0;"/><polygon fill="none" points="71.75,349.22,78.75,329.22,85.75,349.22,71.75,349.22" style="stroke: #383838; stroke-width: 1.0;"/><!--MD5=[d19ef17f18fb1d866757ebcde2cdecad]
reverse link Person to Customer--><path codeLine="59" d="M127.25,264 C127.25,264 141.59,264 141.59,264 " fill="none" id="Person-backto-Customer" style="stroke: #383838; stroke-width: 1.0;"/><polygon fill="none" points="127.26,271,107.25,264,127.25,257,127.26,271" style="stroke: #383838; stroke-width: 1.0;"/><!--MD5=[c811a9571c7d236b605918606d713bce]
link Address to Transfer--><!--MD5=[7e13e0515305e3db0ac6a8df70aa4af4]
@startuml
skinparam classAttributeIconSize 0
skinparam linetype ortho
skinparam monochrome true


class Account{
  - id: long
  - iban: String
  - balance: long
}

class Address{
  - id: long
  - street: String
  - houseNr: int
  - zipCode: long
  - city: String
  - country: String
  '+ getResidents(): List<Customer>
  '+ addResident(customer: Customer): void
}

class Person{
  - id: long
  - forename: String
  - surname: String
  - username: String
  - birthDate: Date
  - password: String
}

class Employee{
   - designation: String
   - salary: long
}

class Customer{
  - taxNumber: String
}


class Transfer{
  - id: long
  - amount: long
  - date: Date
  - description: String
}


' Declare relationship of classes
Customer "1\n\t\taccountOwner" *- - - "accounts\n\t0..*" Account
Address "\t1\naddress" <- - "residents\n\t1..*" Customer
Transfer "0..*" - -> "payer\n\n\t1" Account
Transfer "0..*" - -> "receiver\n\t1" Account
Customer "0..*\ncustomers\t  " - - - "attendant\n         1" Employee


Person <|- - Employee
Person <|-right- - Customer

Address -[hidden]-> Customer
Address -[hidden]-> Transfer
Account -[hidden]> Transfer
'Transfer -[hidden]> Account

@enduml

@startuml
skinparam classAttributeIconSize 0
skinparam linetype ortho
skinparam monochrome true


class Account{
  - id: long
  - iban: String
  - balance: long
}

class Address{
  - id: long
  - street: String
  - houseNr: int
  - zipCode: long
  - city: String
  - country: String
}

class Person{
  - id: long
  - forename: String
  - surname: String
  - username: String
  - birthDate: Date
  - password: String
}

class Employee{
   - designation: String
   - salary: long
}

class Customer{
  - taxNumber: String
}


class Transfer{
  - id: long
  - amount: long
  - date: Date
  - description: String
}


Customer "1\n\t\taccountOwner" *- - - "accounts\n\t0..*" Account
Address "\t1\naddress" <- - "residents\n\t1..*" Customer
Transfer "0..*" - -> "payer\n\n\t1" Account
Transfer "0..*" - -> "receiver\n\t1" Account
Customer "0..*\ncustomers\t  " - - - "attendant\n         1" Employee


Person <|- - Employee
Person <|-right- - Customer

Address -[hidden]-> Customer
Address -[hidden]-> Transfer
Account -[hidden]> Transfer

@enduml

PlantUML version 1.2020.19(Mon Oct 12 17:10:01 CEST 2020)
(GPL source distribution)
Java Runtime: Java(TM) SE Runtime Environment
JVM: Java HotSpot(TM) 64-Bit Server VM
Default Encoding: Cp1252
Language: de
Country: DE
--></g></svg>