<?xml version="1.0" encoding="UTF-8" standalone="no"?><svg xmlns="http://www.w3.org/2000/svg" xmlns:xlink="http://www.w3.org/1999/xlink" contentScriptType="application/ecmascript" contentStyleType="text/css" height="672px" preserveAspectRatio="none" style="width:845px;height:672px;" version="1.1" viewBox="0 0 845 672" width="845px" zoomAndPan="magnify"><defs><filter height="300%" id="fp9avkfpt7f17" width="300%" x="-1" y="-1"><feGaussianBlur result="blurOut" stdDeviation="2.0"/><feColorMatrix in="blurOut" result="blurOut2" type="matrix" values="0 0 0 0 0 0 0 0 0 0 0 0 0 0 0 0 0 0 .4 0"/><feOffset dx="4.0" dy="4.0" in="blurOut2" result="blurOut3"/><feBlend in="SourceGraphic" in2="blurOut3" mode="normal"/></filter></defs><g><!--MD5=[88ca6809156eb879dc8ea75d9b4ec4d1]
cluster Banking--><rect fill="#FFFFFF" filter="url(#fp9avkfpt7f17)" height="561" style="stroke: #000000; stroke-width: 1.5;" width="666" x="167" y="7"/><text fill="#000000" font-family="sans-serif" font-size="14" font-weight="bold" lengthAdjust="spacingAndGlyphs" textLength="57" x="471.5" y="23.5332">Banking</text><ellipse cx="259.6543" cy="58.9517" fill="#FEFECE" filter="url(#fp9avkfpt7f17)" rx="58.1543" ry="15.4517" style="stroke: #A80036; stroke-width: 1.5;"/><text fill="#000000" font-family="sans-serif" font-size="14" lengthAdjust="spacingAndGlyphs" textLength="78" x="220.6543" y="64.2564">Use Support</text><ellipse cx="259.6143" cy="127.2229" fill="#FEFECE" filter="url(#fp9avkfpt7f17)" rx="76.6143" ry="17.7229" style="stroke: #A80036; stroke-width: 1.5;"/><text fill="#000000" font-family="sans-serif" font-size="14" lengthAdjust="spacingAndGlyphs" textLength="118" x="200.6143" y="132.5275">Register Customer</text><ellipse cx="259.5337" cy="195.8067" fill="#FEFECE" filter="url(#fp9avkfpt7f17)" rx="67.0337" ry="15.8067" style="stroke: #A80036; stroke-width: 1.5;"/><text fill="#000000" font-family="sans-serif" font-size="14" lengthAdjust="spacingAndGlyphs" textLength="93" x="213.0337" y="201.1114">Find Customer</text><ellipse cx="259.3716" cy="263.1743" fill="#FEFECE" filter="url(#fp9avkfpt7f17)" rx="68.8716" ry="16.1743" style="stroke: #A80036; stroke-width: 1.5;"/><text fill="#000000" font-family="sans-serif" font-size="14" lengthAdjust="spacingAndGlyphs" textLength="98" x="210.3716" y="268.479">Create Account</text><ellipse cx="528.6328" cy="497.1266" fill="#FEFECE" filter="url(#fp9avkfpt7f17)" rx="78.6328" ry="18.1266" style="stroke: #A80036; stroke-width: 1.5;"/><text fill="#000000" font-family="sans-serif" font-size="14" lengthAdjust="spacingAndGlyphs" textLength="123" x="467.1328" y="502.4312">Manage Customers</text><ellipse cx="742.6262" cy="515.8252" fill="#FEFECE" filter="url(#fp9avkfpt7f17)" rx="74.6262" ry="17.3252" style="stroke: #A80036; stroke-width: 1.5;"/><text fill="#000000" font-family="sans-serif" font-size="14" lengthAdjust="spacingAndGlyphs" textLength="113" x="686.1262" y="521.1299">Manage Accounts</text><ellipse cx="259.5964" cy="330.0193" fill="#FEFECE" filter="url(#fp9avkfpt7f17)" rx="65.5964" ry="15.5193" style="stroke: #A80036; stroke-width: 1.5;"/><text fill="#000000" font-family="sans-serif" font-size="14" lengthAdjust="spacingAndGlyphs" textLength="89" x="215.0964" y="335.324">Open Session</text><ellipse cx="259.6143" cy="398.2229" fill="#FEFECE" filter="url(#fp9avkfpt7f17)" rx="76.6143" ry="17.7229" style="stroke: #A80036; stroke-width: 1.5;"/><text fill="#000000" font-family="sans-serif" font-size="14" lengthAdjust="spacingAndGlyphs" textLength="118" x="200.6143" y="403.5275">Get Account Value</text><ellipse cx="259.6188" cy="466.8238" fill="#FEFECE" filter="url(#fp9avkfpt7f17)" rx="69.6188" ry="16.3238" style="stroke: #A80036; stroke-width: 1.5;"/><text fill="#000000" font-family="sans-serif" font-size="14" lengthAdjust="spacingAndGlyphs" textLength="100" x="209.6188" y="472.1284">Transfer Money</text><ellipse cx="259.4949" cy="534.899" fill="#FEFECE" filter="url(#fp9avkfpt7f17)" rx="69.9949" ry="16.399" style="stroke: #A80036; stroke-width: 1.5;"/><text fill="#000000" font-family="sans-serif" font-size="14" lengthAdjust="spacingAndGlyphs" textLength="101" x="208.9949" y="540.2037">Mandate Money</text><!--MD5=[8e9b2d9d80e066cced8e5d90e9bdea61]
entity c--><ellipse cx="36.5" cy="298" fill="#FEFECE" filter="url(#fp9avkfpt7f17)" rx="8" ry="8" style="stroke: #A80036; stroke-width: 1.5;"/><path d="M36.5,306 L36.5,333 M23.5,314 L49.5,314 M36.5,333 L23.5,348 M36.5,333 L49.5,348 " fill="none" filter="url(#fp9avkfpt7f17)" style="stroke: #A80036; stroke-width: 1.5;"/><text fill="#000000" font-family="sans-serif" font-size="14" lengthAdjust="spacingAndGlyphs" textLength="61" x="6" y="368.0332">Customer</text><!--MD5=[e32773a0da76c445e84e5885468a4484]
entity e--><ellipse cx="528.5" cy="594" fill="#FEFECE" filter="url(#fp9avkfpt7f17)" rx="8" ry="8" style="stroke: #A80036; stroke-width: 1.5;"/><path d="M528.5,602 L528.5,629 M515.5,610 L541.5,610 M528.5,629 L515.5,644 M528.5,629 L541.5,644 " fill="none" filter="url(#fp9avkfpt7f17)" style="stroke: #A80036; stroke-width: 1.5;"/><text fill="#000000" font-family="sans-serif" font-size="14" lengthAdjust="spacingAndGlyphs" textLength="62" x="497.5" y="664.0332">Employee</text><!--MD5=[570597a2b6eaab3b76b5cf13edca2979]
entity chat--><ellipse cx="36.5" cy="50" fill="#FEFECE" filter="url(#fp9avkfpt7f17)" rx="12" ry="12" style="stroke: #A80036; stroke-width: 1.5;"/><line style="stroke: #A80036; stroke-width: 1.5;" x1="24.5" x2="48.5" y1="64" y2="64"/><text fill="#000000" font-family="sans-serif" font-size="14" lengthAdjust="spacingAndGlyphs" textLength="30" x="21.5" y="80.5332">Chat</text><!--MD5=[e0cd3719b49abd01bc252a9e1b27f632]
reverse link c to e--><path d="M48.38,391.51 C62.49,449.91 93.53,533.7 159,568 C272.88,627.66 431.71,629.67 497.31,627.57 " fill="none" id="c-backto-e" style="stroke: #A80036; stroke-width: 1.0;"/><polygon fill="none" points="41.48,392.7,44,371.66,55.15,389.68,41.48,392.7" style="stroke: #A80036; stroke-width: 1.0;"/><!--MD5=[15c4dc93c78efe8becd308b26406d2bf]
reverse link chat to uc4--><path d="M57.97,59 C90.28,59 154.27,59 201.31,59 " fill="none" id="chat-backto-uc4" style="stroke: #A80036; stroke-width: 1.0;"/><polygon fill="#A80036" points="52.69,59,61.69,63,57.69,59,61.69,55,52.69,59" style="stroke: #A80036; stroke-width: 1.0;"/><!--MD5=[3c606492c29b74b00d31f87552f6a2ae]
link c to uc1--><path d="M56.47,288.19 C76.37,249.27 111.38,192.77 159,162 C172.13,153.52 187.56,146.8 202.31,141.62 " fill="none" id="c-to-uc1" style="stroke: #A80036; stroke-width: 1.0;"/><polygon fill="#A80036" points="207.27,139.92,197.4603,139.0422,202.5381,141.5354,200.045,146.6132,207.27,139.92" style="stroke: #A80036; stroke-width: 1.0;"/><!--MD5=[07faa7dd901701ace33ff341e6445a43]
link c to uc2--><path d="M67.05,298.55 C76.3,289.3 86.78,279.41 97,271 C122.71,249.86 129.14,243.71 159,229 C174.68,221.27 192.61,214.7 208.88,209.5 " fill="none" id="c-to-uc2" style="stroke: #A80036; stroke-width: 1.0;"/><polygon fill="#A80036" points="213.87,207.93,204.0847,206.8132,209.1001,209.4295,206.4839,214.445,213.87,207.93" style="stroke: #A80036; stroke-width: 1.0;"/><!--MD5=[305be19579e4ad2221f87eea56e8d2d0]
link c to uc3--><path d="M67.09,315.94 C76.52,311.76 87.08,307.4 97,304 C131.55,292.16 171.3,282.02 202.71,274.79 " fill="none" id="c-to-uc3" style="stroke: #A80036; stroke-width: 1.0;"/><polygon fill="#A80036" points="207.68,273.66,198.0147,271.7675,202.8059,274.7749,199.7985,279.5661,207.68,273.66" style="stroke: #A80036; stroke-width: 1.0;"/><!--MD5=[9ddb51eeb1c2e13fe060e726f380f4ba]
link c to uc5--><path d="M67.31,330 C98.2,330 147.6,330 188.45,330 " fill="none" id="c-to-uc5" style="stroke: #A80036; stroke-width: 1.0;"/><polygon fill="#A80036" points="193.9,330,184.9,326,188.9,330,184.9,334,193.9,330" style="stroke: #A80036; stroke-width: 1.0;"/><!--MD5=[09c881439216d870ce1b16a7bd2e1375]
link c to uc6--><path d="M67.31,339.17 C103.38,350.27 164.69,369.14 208.15,382.51 " fill="none" id="c-to-uc6" style="stroke: #A80036; stroke-width: 1.0;"/><polygon fill="#A80036" points="213.09,384.03,205.663,377.5617,208.3108,382.5606,203.3119,385.2084,213.09,384.03" style="stroke: #A80036; stroke-width: 1.0;"/><!--MD5=[ce8566b5c168ca79eb3384365bcff1a8]
link c to uc7--><path d="M67.03,360.61 C90.25,383.21 124.37,413.34 159,433 C173.75,441.37 190.89,448.14 206.75,453.37 " fill="none" id="c-to-uc7" style="stroke: #A80036; stroke-width: 1.0;"/><polygon fill="#A80036" points="211.63,454.95,204.2851,448.3885,206.8697,453.4204,201.8378,456.005,211.63,454.95" style="stroke: #A80036; stroke-width: 1.0;"/><!--MD5=[50832f2a726acd87987753090374d244]
link c to uc8--><path d="M55.65,371.53 C75.26,411.25 110.34,469.61 159,501 C172.64,509.8 188.82,516.59 204.12,521.71 " fill="none" id="c-to-uc8" style="stroke: #A80036; stroke-width: 1.0;"/><polygon fill="#A80036" points="209.27,523.38,201.943,516.7986,204.5139,521.8375,199.475,524.4083,209.27,523.38" style="stroke: #A80036; stroke-width: 1.0;"/><!--MD5=[786b17f107f57b538ded79f3de4a8b2f]
reverse link uc9 to e--><path d="M528.5,520.25 C528.5,541.64 528.5,563.03 528.5,584.43 " fill="none" id="uc9-backto-e" style="stroke: #A80036; stroke-width: 1.0;"/><polygon fill="#A80036" points="528.5,515.1,524.5,524.1,528.5,520.1,532.5,524.1,528.5,515.1" style="stroke: #A80036; stroke-width: 1.0;"/><!--MD5=[2efe57bae26ac9ec849410074cb059b6]
link e to uc10--><path d="M559.87,610.24 C598.49,590.2 665.05,555.67 705.98,534.43 " fill="none" id="e-to-uc10" style="stroke: #A80036; stroke-width: 1.0;"/><polygon fill="#A80036" points="710.84,531.91,701.0101,532.5203,706.4056,534.2199,704.7059,539.6154,710.84,531.91" style="stroke: #A80036; stroke-width: 1.0;"/><!--MD5=[a6c9dc11dab6ff4ec0d1d8b630c8d7ec]
link uc8 to uc9--><!--MD5=[bc4f0b2397e2db47129ef9576e0ca909]
link uc9 to uc10--><!--MD5=[df74fdc9c7a4f5e8d9b4275987d95f64]
link c to uc4--><path d="M48.82,288.36 C58.87,254.86 75.31,207.23 97,169 C98.35,166.61 156.74,93.57 159,92 C173.5,81.94 191.29,74.77 207.8,69.74 " fill="none" id="c-to-uc4" style="stroke: #A80036; stroke-width: 1.0;"/><polygon fill="#A80036" points="212.88,68.24,203.12,66.92,208.08,69.64,205.36,74.6,212.88,68.24" style="stroke: #A80036; stroke-width: 1.0;"/><text fill="#000000" font-family="sans-serif" font-size="13" lengthAdjust="spacingAndGlyphs" textLength="23" x="112.5" y="82.4951">Ask</text><text fill="#000000" font-family="sans-serif" font-size="13" lengthAdjust="spacingAndGlyphs" textLength="52" x="98" y="98.8467">Question</text><!--MD5=[fba59dba38b289a97849855e1e677eeb]
link e to uc4--><path d="M497.23,610.24 C480.89,600.25 461.73,585.83 450,568 C330.48,386.24 475.63,258.82 336,92 C328.45,82.98 317.96,76.35 307.19,71.5 " fill="none" id="e-to-uc4" style="stroke: #A80036; stroke-width: 1.0;"/><polygon fill="#A80036" points="302.57,69.53,309.2856,76.7342,307.1709,71.4875,312.4176,69.3728,302.57,69.53" style="stroke: #A80036; stroke-width: 1.0;"/><text fill="#000000" font-family="sans-serif" font-size="13" lengthAdjust="spacingAndGlyphs" textLength="43" x="371.5" y="121.4951">Answer</text><text fill="#000000" font-family="sans-serif" font-size="13" lengthAdjust="spacingAndGlyphs" textLength="52" x="367" y="137.8467">Question</text><!--MD5=[bdc2b9108e83ee22dc6666eef2f57461]
@startuml
left to right direction


actor "Customer" as c
actor "Employee" as e

c <|- - e

entity "Chat" as chat


rectangle Banking {
  usecase "Use Support" as uc4

  usecase "Register Customer" as uc1
  usecase "Find Customer" as uc2
  usecase "Create Account" as uc3
  usecase "Manage Customers" as uc9
  usecase "Manage Accounts" as uc10


  usecase "Open Session" as uc5
  usecase "Get Account Value" as uc6
  usecase "Transfer Money" as uc7
  usecase "Mandate Money" as uc8



}

chat <- - uc4


c - -> uc1
c - -> uc2
c - -> uc3
'uc1 <- e
'uc2 <- e
'uc3 <- e


c - -> uc5
c - -> uc6
c - -> uc7
c - -> uc8


'uc9 <- - e
'uc10 <- - e

e-up->uc9
e- ->uc10


uc8 -[hidden]- uc9
uc9 -[hidden]- uc10

c - -> uc4 : Ask\nQuestion
e - -> uc4 : Answer\nQuestion

@enduml

@startuml
left to right direction


actor "Customer" as c
actor "Employee" as e

c <|- - e

entity "Chat" as chat


rectangle Banking {
  usecase "Use Support" as uc4

  usecase "Register Customer" as uc1
  usecase "Find Customer" as uc2
  usecase "Create Account" as uc3
  usecase "Manage Customers" as uc9
  usecase "Manage Accounts" as uc10


  usecase "Open Session" as uc5
  usecase "Get Account Value" as uc6
  usecase "Transfer Money" as uc7
  usecase "Mandate Money" as uc8



}

chat <- - uc4


c - -> uc1
c - -> uc2
c - -> uc3


c - -> uc5
c - -> uc6
c - -> uc7
c - -> uc8



e-up->uc9
e- ->uc10


uc8 -[hidden]- uc9
uc9 -[hidden]- uc10

c - -> uc4 : Ask\nQuestion
e - -> uc4 : Answer\nQuestion

@enduml

PlantUML version 1.2020.19(Mon Oct 12 17:10:01 CEST 2020)
(GPL source distribution)
Java Runtime: Java(TM) SE Runtime Environment
JVM: Java HotSpot(TM) 64-Bit Server VM
Default Encoding: Cp1252
Language: de
Country: DE
--></g></svg>