<?xml version="1.0" encoding="UTF-8" standalone="no"?><svg xmlns="http://www.w3.org/2000/svg" xmlns:xlink="http://www.w3.org/1999/xlink" contentScriptType="application/ecmascript" contentStyleType="text/css" height="692px" preserveAspectRatio="none" style="width:1003px;height:692px;" version="1.1" viewBox="0 0 1003 692" width="1003px" zoomAndPan="magnify"><defs><filter height="300%" id="f1gwu4qv9bo5x1" width="300%" x="-1" y="-1"><feGaussianBlur result="blurOut" stdDeviation="2.0"/><feColorMatrix in="blurOut" result="blurOut2" type="matrix" values="0 0 0 0 0 0 0 0 0 0 0 0 0 0 0 0 0 0 .4 0"/><feOffset dx="4.0" dy="4.0" in="blurOut2" result="blurOut3"/><feBlend in="SourceGraphic" in2="blurOut3" mode="normal"/></filter></defs><g><!--MD5=[3dcf69e4e87a10af00fce8354034ba4c]
cluster presentation--><polygon fill="#FFFFFF" filter="url(#f1gwu4qv9bo5x1)" points="493.5,6,589.5,6,596.5,29.6094,755.5,29.6094,755.5,122,493.5,122,493.5,6" style="stroke: #000000; stroke-width: 1.5;"/><line style="stroke: #000000; stroke-width: 1.5;" x1="493.5" x2="596.5" y1="29.6094" y2="29.6094"/><text fill="#000000" font-family="sans-serif" font-size="14" font-weight="bold" lengthAdjust="spacingAndGlyphs" textLength="90" x="497.5" y="22.5332">Presentation</text><!--MD5=[cbbcdfd2ff286cf453505908e439d9c0]
cluster logic--><polygon fill="#FFFFFF" filter="url(#f1gwu4qv9bo5x1)" points="205.5,162,249.5,162,256.5,185.6094,755.5,185.6094,755.5,409,205.5,409,205.5,162" style="stroke: #000000; stroke-width: 1.5;"/><line style="stroke: #000000; stroke-width: 1.5;" x1="205.5" x2="256.5" y1="185.6094" y2="185.6094"/><text fill="#000000" font-family="sans-serif" font-size="14" font-weight="bold" lengthAdjust="spacingAndGlyphs" textLength="38" x="209.5" y="178.5332">Logic</text><!--MD5=[0334151241c2df87d13997940bbf650c]
cluster persistence--><polygon fill="#FFFFFF" filter="url(#f1gwu4qv9bo5x1)" points="167.5,449,257.5,449,264.5,472.6094,980.5,472.6094,980.5,685,167.5,685,167.5,449" style="stroke: #000000; stroke-width: 1.5;"/><line style="stroke: #000000; stroke-width: 1.5;" x1="167.5" x2="264.5" y1="472.6094" y2="472.6094"/><text fill="#000000" font-family="sans-serif" font-size="14" font-weight="bold" lengthAdjust="spacingAndGlyphs" textLength="84" x="171.5" y="465.5332">Persistence</text><!--MD5=[96f7e1299d4a43069e6ed32352fcac20]
entity HTTP--><ellipse cx="526.5" cy="74" fill="#F8F8F8" filter="url(#f1gwu4qv9bo5x1)" rx="8" ry="8" style="stroke: #383838; stroke-width: 1.5;"/><text fill="#000000" font-family="sans-serif" font-size="14" lengthAdjust="spacingAndGlyphs" textLength="36" x="508.5" y="105.5332">HTTP</text><!--MD5=[5f72b1e1b6bcd2ac922e89c6c0b5c71b]
entity Web Application--><rect fill="#F8F8F8" filter="url(#f1gwu4qv9bo5x1)" height="47.6094" style="stroke: #383838; stroke-width: 1.5;" width="142" x="570.5" y="50"/><rect fill="#F8F8F8" height="10" style="stroke: #383838; stroke-width: 1.5;" width="15" x="692.5" y="55"/><rect fill="#F8F8F8" height="2" style="stroke: #383838; stroke-width: 1.5;" width="4" x="690.5" y="57"/><rect fill="#F8F8F8" height="2" style="stroke: #383838; stroke-width: 1.5;" width="4" x="690.5" y="61"/><text fill="#000000" font-family="sans-serif" font-size="14" lengthAdjust="spacingAndGlyphs" textLength="102" x="585.5" y="84.5332">Web Application</text><!--MD5=[76d0c25527896f67cb6aa4ccab7e7ab8]
entity CustomerService--><rect fill="#F8F8F8" filter="url(#f1gwu4qv9bo5x1)" height="47.6094" style="stroke: #383838; stroke-width: 1.5;" width="148" x="402.5" y="337"/><rect fill="#F8F8F8" height="10" style="stroke: #383838; stroke-width: 1.5;" width="15" x="530.5" y="342"/><rect fill="#F8F8F8" height="2" style="stroke: #383838; stroke-width: 1.5;" width="4" x="528.5" y="344"/><rect fill="#F8F8F8" height="2" style="stroke: #383838; stroke-width: 1.5;" width="4" x="528.5" y="348"/><text fill="#000000" font-family="sans-serif" font-size="14" lengthAdjust="spacingAndGlyphs" textLength="108" x="417.5" y="371.5332">CustomerService</text><!--MD5=[5566f6f4b3f002cfd9abc05aa20a8f06]
entity CustomerServiceIF--><ellipse cx="483.5" cy="236" fill="#F8F8F8" filter="url(#f1gwu4qv9bo5x1)" rx="8" ry="8" style="stroke: #383838; stroke-width: 1.5;"/><text fill="#000000" font-family="sans-serif" font-size="14" lengthAdjust="spacingAndGlyphs" textLength="120" x="423.5" y="267.5332">CustomerServiceIF</text><!--MD5=[ba723757ffde46ba429618d659790656]
entity BankingService--><rect fill="#F8F8F8" filter="url(#f1gwu4qv9bo5x1)" height="47.6094" style="stroke: #383838; stroke-width: 1.5;" width="138" x="585.5" y="337"/><rect fill="#F8F8F8" height="10" style="stroke: #383838; stroke-width: 1.5;" width="15" x="703.5" y="342"/><rect fill="#F8F8F8" height="2" style="stroke: #383838; stroke-width: 1.5;" width="4" x="701.5" y="344"/><rect fill="#F8F8F8" height="2" style="stroke: #383838; stroke-width: 1.5;" width="4" x="701.5" y="348"/><text fill="#000000" font-family="sans-serif" font-size="14" lengthAdjust="spacingAndGlyphs" textLength="98" x="600.5" y="371.5332">BankingService</text><!--MD5=[74d1d086c912edf19e2fe8e565a7e7ff]
entity BankingServiceIF--><ellipse cx="649.5" cy="236" fill="#F8F8F8" filter="url(#f1gwu4qv9bo5x1)" rx="8" ry="8" style="stroke: #383838; stroke-width: 1.5;"/><text fill="#000000" font-family="sans-serif" font-size="14" lengthAdjust="spacingAndGlyphs" textLength="110" x="594.5" y="267.5332">BankingServiceIF</text><!--MD5=[e0dbcdd0b6f6a8c0a95380b7bdd4cfaa]
entity SupportService--><rect fill="#F8F8F8" filter="url(#f1gwu4qv9bo5x1)" height="47.6094" style="stroke: #383838; stroke-width: 1.5;" width="137" x="230" y="337"/><rect fill="#F8F8F8" height="10" style="stroke: #383838; stroke-width: 1.5;" width="15" x="347" y="342"/><rect fill="#F8F8F8" height="2" style="stroke: #383838; stroke-width: 1.5;" width="4" x="345" y="344"/><rect fill="#F8F8F8" height="2" style="stroke: #383838; stroke-width: 1.5;" width="4" x="345" y="348"/><text fill="#000000" font-family="sans-serif" font-size="14" lengthAdjust="spacingAndGlyphs" textLength="97" x="245" y="371.5332">SupportService</text><!--MD5=[a3e93cdb79a1999521bbbf4acc8f9bf6]
entity SupportServiceIF--><ellipse cx="308.5" cy="236" fill="#F8F8F8" filter="url(#f1gwu4qv9bo5x1)" rx="8" ry="8" style="stroke: #383838; stroke-width: 1.5;"/><text fill="#000000" font-family="sans-serif" font-size="14" lengthAdjust="spacingAndGlyphs" textLength="109" x="254" y="267.5332">SupportServiceIF</text><!--MD5=[5cc9ac11a3f0b123b98e0809612ba330]
entity AccountRepository--><rect fill="#F8F8F8" filter="url(#f1gwu4qv9bo5x1)" height="47.6094" style="stroke: #383838; stroke-width: 1.5;" width="159" x="789" y="613"/><rect fill="#F8F8F8" height="10" style="stroke: #383838; stroke-width: 1.5;" width="15" x="928" y="618"/><rect fill="#F8F8F8" height="2" style="stroke: #383838; stroke-width: 1.5;" width="4" x="926" y="620"/><rect fill="#F8F8F8" height="2" style="stroke: #383838; stroke-width: 1.5;" width="4" x="926" y="624"/><text fill="#000000" font-family="sans-serif" font-size="14" lengthAdjust="spacingAndGlyphs" textLength="119" x="804" y="647.5332">AccountRepository</text><!--MD5=[beddaf1a107928a6fbcccf9aa291e3d0]
entity AccountRepositoryIF--><ellipse cx="853.5" cy="523" fill="#F8F8F8" filter="url(#f1gwu4qv9bo5x1)" rx="8" ry="8" style="stroke: #383838; stroke-width: 1.5;"/><text fill="#000000" font-family="sans-serif" font-size="14" lengthAdjust="spacingAndGlyphs" textLength="131" x="788" y="554.5332">AccountRepositoryIF</text><!--MD5=[e7bc3a3fa62c1df21bef3869c0c37950]
entity TransferRepository--><rect fill="#F8F8F8" filter="url(#f1gwu4qv9bo5x1)" height="47.6094" style="stroke: #383838; stroke-width: 1.5;" width="162" x="591.5" y="613"/><rect fill="#F8F8F8" height="10" style="stroke: #383838; stroke-width: 1.5;" width="15" x="733.5" y="618"/><rect fill="#F8F8F8" height="2" style="stroke: #383838; stroke-width: 1.5;" width="4" x="731.5" y="620"/><rect fill="#F8F8F8" height="2" style="stroke: #383838; stroke-width: 1.5;" width="4" x="731.5" y="624"/><text fill="#000000" font-family="sans-serif" font-size="14" lengthAdjust="spacingAndGlyphs" textLength="122" x="606.5" y="647.5332">TransferRepository</text><!--MD5=[3c46b89c47d7387e87cffe7a62fdbaa5]
entity TransferRepositoryIF--><ellipse cx="659.5" cy="523" fill="#F8F8F8" filter="url(#f1gwu4qv9bo5x1)" rx="8" ry="8" style="stroke: #383838; stroke-width: 1.5;"/><text fill="#000000" font-family="sans-serif" font-size="14" lengthAdjust="spacingAndGlyphs" textLength="134" x="592.5" y="554.5332">TransferRepositoryIF</text><!--MD5=[b3990cbb38841f9d8fcdaf5297d6dc08]
entity CustomerRepository--><rect fill="#F8F8F8" filter="url(#f1gwu4qv9bo5x1)" height="47.6094" style="stroke: #383838; stroke-width: 1.5;" width="169" x="387" y="613"/><rect fill="#F8F8F8" height="10" style="stroke: #383838; stroke-width: 1.5;" width="15" x="536" y="618"/><rect fill="#F8F8F8" height="2" style="stroke: #383838; stroke-width: 1.5;" width="4" x="534" y="620"/><rect fill="#F8F8F8" height="2" style="stroke: #383838; stroke-width: 1.5;" width="4" x="534" y="624"/><text fill="#000000" font-family="sans-serif" font-size="14" lengthAdjust="spacingAndGlyphs" textLength="129" x="402" y="647.5332">CustomerRepository</text><!--MD5=[067cd200c070e53dd3d208fb68964b08]
entity CustomerRepositoryIF--><ellipse cx="471.5" cy="523" fill="#F8F8F8" filter="url(#f1gwu4qv9bo5x1)" rx="8" ry="8" style="stroke: #383838; stroke-width: 1.5;"/><text fill="#000000" font-family="sans-serif" font-size="14" lengthAdjust="spacingAndGlyphs" textLength="141" x="401" y="554.5332">CustomerRepositoryIF</text><!--MD5=[dba78d1918f1bbe6079f47e9b7a97428]
entity AddressRepository--><rect fill="#F8F8F8" filter="url(#f1gwu4qv9bo5x1)" height="47.6094" style="stroke: #383838; stroke-width: 1.5;" width="160" x="191.5" y="613"/><rect fill="#F8F8F8" height="10" style="stroke: #383838; stroke-width: 1.5;" width="15" x="331.5" y="618"/><rect fill="#F8F8F8" height="2" style="stroke: #383838; stroke-width: 1.5;" width="4" x="329.5" y="620"/><rect fill="#F8F8F8" height="2" style="stroke: #383838; stroke-width: 1.5;" width="4" x="329.5" y="624"/><text fill="#000000" font-family="sans-serif" font-size="14" lengthAdjust="spacingAndGlyphs" textLength="120" x="206.5" y="647.5332">AddressRepository</text><!--MD5=[b45dad240a4115c14a1290fc07d297c9]
entity AddressRepositoryIF--><ellipse cx="277.5" cy="523" fill="#F8F8F8" filter="url(#f1gwu4qv9bo5x1)" rx="8" ry="8" style="stroke: #383838; stroke-width: 1.5;"/><text fill="#000000" font-family="sans-serif" font-size="14" lengthAdjust="spacingAndGlyphs" textLength="132" x="211.5" y="554.5332">AddressRepositoryIF</text><!--MD5=[4662bc22cd1a5219d3b09b73e91a55ce]
entity paypal--><rect fill="#F8F8F8" filter="url(#f1gwu4qv9bo5x1)" height="65.2188" style="stroke: #383838; stroke-width: 1.5;" width="133" x="780" y="328.5"/><rect fill="#F8F8F8" height="10" style="stroke: #383838; stroke-width: 1.5;" width="15" x="893" y="333.5"/><rect fill="#F8F8F8" height="2" style="stroke: #383838; stroke-width: 1.5;" width="4" x="891" y="335.5"/><rect fill="#F8F8F8" height="2" style="stroke: #383838; stroke-width: 1.5;" width="4" x="891" y="339.5"/><text fill="#000000" font-family="sans-serif" font-size="14" lengthAdjust="spacingAndGlyphs" textLength="43" x="795" y="363.0332">Paypal</text><text fill="#000000" font-family="sans-serif" font-size="14" lengthAdjust="spacingAndGlyphs" textLength="93" x="795" y="380.6426">(Gorbatschow)</text><!--MD5=[570597a2b6eaab3b76b5cf13edca2979]
entity chat--><rect fill="#F8F8F8" filter="url(#f1gwu4qv9bo5x1)" height="65.2188" style="stroke: #383838; stroke-width: 1.5;" width="121" x="7" y="203.5"/><rect fill="#F8F8F8" height="10" style="stroke: #383838; stroke-width: 1.5;" width="15" x="108" y="208.5"/><rect fill="#F8F8F8" height="2" style="stroke: #383838; stroke-width: 1.5;" width="4" x="106" y="210.5"/><rect fill="#F8F8F8" height="2" style="stroke: #383838; stroke-width: 1.5;" width="4" x="106" y="214.5"/><text fill="#000000" font-family="sans-serif" font-size="14" lengthAdjust="spacingAndGlyphs" textLength="81" x="22" y="238.0332">Chat Service</text><text fill="#000000" font-family="sans-serif" font-size="14" lengthAdjust="spacingAndGlyphs" textLength="68" x="22" y="255.6426">(Bielmeier)</text><!--MD5=[b694d7f427eaecd8ada97e6c20473c67]
entity IFChat--><ellipse cx="172.5" cy="236" fill="#F8F8F8" filter="url(#f1gwu4qv9bo5x1)" rx="8" ry="8" style="stroke: #383838; stroke-width: 1.5;"/><!--MD5=[480dcfc32f065996c911a06fe339bbb5]
link chat to IFChat--><path d="M128.2,236 C139.85,236 151.51,236 163.16,236 " fill="none" id="chat-IFChat" style="stroke: #383838; stroke-width: 1.0;"/><!--MD5=[99d0499ea58cdc2f64f8969b709c1dca]
link HTTP to Web Application--><path d="M535.93,74 C547.34,74 558.75,74 570.16,74 " fill="none" id="HTTP-Web Application" style="stroke: #383838; stroke-width: 1.0;"/><!--MD5=[b8c269d75471c9234d9dbe75e9c0858b]
link CustomerServiceIF to CustomerService--><path d="M483.04,245.07 C481.99,263.46 479.4,309.02 477.81,336.94 " fill="none" id="CustomerServiceIF-CustomerService" style="stroke: #383838; stroke-width: 1.0;"/><!--MD5=[73e4159f538ab447a78d5176e3c7b516]
link Web Application to CustomerServiceIF--><path d="M617.68,98.2 C603.59,112 585.43,129.91 569.5,146 C544.33,171.42 515.52,201.43 498.46,219.29 " fill="none" id="Web Application-to-CustomerServiceIF" style="stroke: #383838; stroke-width: 1.0;"/><path d="M499.743,230.2029 A9,9 0 0 0 487.5078 218.5239" fill="none" style="stroke: #383838; stroke-width: 1.5;"/><!--MD5=[000171fd176f7281bbf2624e77c310eb]
reverse link CustomerServiceIF to paypal--><path d="M502,243.97 C519.37,250.47 546.12,260.36 569.5,268.5 C641.12,293.44 723.74,320.51 779.98,338.69 " fill="none" id="CustomerServiceIF-backto-paypal" style="stroke: #383838; stroke-width: 1.0;"/><path d="M492.4127,249.4096 A9,9 0 0 0 498.3517 233.5721" fill="none" style="stroke: #383838; stroke-width: 1.5;"/><!--MD5=[2da2f9c21c05087eb502daaeaaa1e29b]
link BankingServiceIF to BankingService--><path d="M649.83,245.07 C650.58,263.46 652.43,309.02 653.56,336.94 " fill="none" id="BankingServiceIF-BankingService" style="stroke: #383838; stroke-width: 1.0;"/><!--MD5=[59f839ceb75337f8f72ca5552e00e4b2]
reverse link BankingServiceIF to Web Application--><path d="M648.59,216.87 C647.14,187.7 644.27,130.4 642.66,98.27 " fill="none" id="BankingServiceIF-backto-Web Application" style="stroke: #383838; stroke-width: 1.0;"/><path d="M657.3827,223.3727 A9,9 0 0 0 640.4894 224.2186" fill="none" style="stroke: #383838; stroke-width: 1.5;"/><!--MD5=[a2699a85a2209aff875986e60a373f42]
reverse link BankingServiceIF to paypal--><path d="M667.32,248.13 C696.11,266.1 753.85,302.15 796.03,328.49 " fill="none" id="BankingServiceIF-backto-paypal" style="stroke: #383838; stroke-width: 1.0;"/><path d="M656.8813,251.576 A9,9 0 0 0 665.8242 237.219" fill="none" style="stroke: #383838; stroke-width: 1.5;"/><!--MD5=[880938a235d0da089e04b7aa2937496c]
link SupportServiceIF to SupportService--><path d="M307.84,245.07 C306.35,263.46 302.64,309.02 300.38,336.94 " fill="none" id="SupportServiceIF-SupportService" style="stroke: #383838; stroke-width: 1.0;"/><!--MD5=[46f0b5ed647fb037920e20fa160e829c]
link Web Application to SupportServiceIF--><path d="M617.15,98.31 C600.61,112.56 577.44,129.63 553.5,138 C520.94,149.39 430.05,132.07 398.5,146 C363.3,161.54 334.15,197.45 319.24,218.6 " fill="none" id="Web Application-to-SupportServiceIF" style="stroke: #383838; stroke-width: 1.0;"/><path d="M322.3019,229.1301 A9,9 0 0 0 308.3257 219.603" fill="none" style="stroke: #383838; stroke-width: 1.5;"/><!--MD5=[2d294987f1ef3cadfdd575fb01430f22]
reverse link IFChat to SupportService--><path d="M188.17,252.3 C209.94,273.55 249.51,312.18 274.87,336.94 " fill="none" id="IFChat-backto-SupportService" style="stroke: #383838; stroke-width: 1.0;"/><path d="M177.0656,253.2723 A9,9 0 0 0 188.8801 241.1679" fill="none" style="stroke: #383838; stroke-width: 1.5;"/><!--MD5=[aaea2ebc34bfe7dad217af686843c3a9]
link AccountRepositoryIF to AccountRepository--><path d="M854.58,532.05 C856.81,548.71 862,587.47 865.37,612.67 " fill="none" id="AccountRepositoryIF-AccountRepository" style="stroke: #383838; stroke-width: 1.0;"/><!--MD5=[399608ccff3a6135ce48d809a77a1ee7]
link BankingService to AccountRepositoryIF--><path d="M688.2,385.22 C707.38,398.73 731.66,416.33 752.5,433 C783.48,457.78 817.78,488.83 837.38,506.94 " fill="none" id="BankingService-to-AccountRepositoryIF" style="stroke: #383838; stroke-width: 1.0;"/><path d="M848.326,505.5567 A9,9 0 0 0 836.8211 517.9558" fill="none" style="stroke: #383838; stroke-width: 1.5;"/><!--MD5=[bed37fa0a6b84f534fc42ad448caeacd]
link TransferRepositoryIF to TransferRepository--><path d="M660.43,532.05 C662.37,548.71 666.87,587.47 669.79,612.67 " fill="none" id="TransferRepositoryIF-TransferRepository" style="stroke: #383838; stroke-width: 1.0;"/><!--MD5=[2e8c24d15d2e10279ea3b7c027f0c099]
link BankingService to TransferRepositoryIF--><path d="M655.23,385.27 C656.23,417.4 658.02,474.7 658.93,503.87 " fill="none" id="BankingService-to-TransferRepositoryIF" style="stroke: #383838; stroke-width: 1.0;"/><path d="M667.6062,510.5273 A9,9 0 0 0 650.7001 511.0594" fill="none" style="stroke: #383838; stroke-width: 1.5;"/><!--MD5=[eed8eb6f407b2c9de7bf616842445f75]
link CustomerRepositoryIF to CustomerRepository--><path d="M471.5,532.05 C471.5,548.71 471.5,587.47 471.5,612.67 " fill="none" id="CustomerRepositoryIF-CustomerRepository" style="stroke: #383838; stroke-width: 1.0;"/><!--MD5=[f083d9f1d4c2723e370c92da22570a8c]
link CustomerService to CustomerRepositoryIF--><path d="M475.77,385.27 C474.77,417.4 472.98,474.7 472.07,503.87 " fill="none" id="CustomerService-to-CustomerRepositoryIF" style="stroke: #383838; stroke-width: 1.0;"/><path d="M480.2999,511.0594 A9,9 0 0 0 463.3938 510.5273" fill="none" style="stroke: #383838; stroke-width: 1.5;"/><!--MD5=[609bf691606dfb122c2aa76f96a1132f]
link AddressRepositoryIF to AddressRepository--><path d="M277.07,532.05 C276.18,548.71 274.1,587.47 272.75,612.67 " fill="none" id="AddressRepositoryIF-AddressRepository" style="stroke: #383838; stroke-width: 1.0;"/><!--MD5=[fa68df94ec8b5ccec7aa67ae7126edd6]
link CustomerService to AddressRepositoryIF--><path d="M442,385.05 C422.39,398.5 397.61,416.11 376.5,433 C345.87,457.51 312.33,488.65 293.21,506.85 " fill="none" id="CustomerService-to-AddressRepositoryIF" style="stroke: #383838; stroke-width: 1.0;"/><path d="M294.0203,517.7838 A9,9 0 0 0 282.3286 505.5607" fill="none" style="stroke: #383838; stroke-width: 1.5;"/><!--MD5=[0c58043e63b44432a8f5adb464c3c905]
link presentation to logic--><!--MD5=[19cf1190ca52af90fce53ca995832556]
link presentation to persistence--><!--MD5=[117fea87984e9a5cf2665c1f246bd17c]
link logic to persistence--><!--MD5=[76b902ebd6bee2125a6db6e4731da8f8]
link logic to chat--><!--MD5=[f43a067c2cb7cf733a2e73a6565a556e]
link paypal to logic--><!--MD5=[1ea878bfa493c13d5fc8b9071c70292b]
@startuml

skinparam monochrome true

[Paypal\n(Gorbatschow)] as paypal
[Chat Service\n(Bielmeier)] as chat

interface " " as IFChat
chat -right-() IFChat

package "Presentation" as presentation {
  HTTP - [Web Application]
}


package "Logic" as logic {

  '[SessionService] -up-() SessionServiceIF
  'SessionServiceIF )-up- [Web Application]

  [CustomerService] -up-() CustomerServiceIF
  CustomerServiceIF )-up- [Web Application]
  CustomerServiceIF )- - paypal

  [BankingService] -up-() BankingServiceIF
  BankingServiceIF )- - [Web Application]
  BankingServiceIF )- - paypal

  [SupportService] -up-() SupportServiceIF
  SupportServiceIF )-up- [Web Application]
  IFChat )- - SupportService

  'chat -[hidden]-> [SupportService]



}

package "Persistence" as persistence {

  [AccountRepository] -up-() AccountRepositoryIF
  AccountRepositoryIF )-up- [BankingService]

  [TransferRepository] -up-() TransferRepositoryIF
  TransferRepositoryIF )-up- [BankingService]

  [CustomerRepository] -up-() CustomerRepositoryIF
  CustomerRepositoryIF )-up- [CustomerService]

  [AddressRepository] -up-() AddressRepositoryIF
  AddressRepositoryIF )-up- [CustomerService]
}

presentation -[hidden]-> logic
presentation -[hidden]-> persistence
logic -[hidden]-> persistence

logic -[hidden]> chat
paypal -[hidden]> logic




@enduml

@startuml

skinparam monochrome true

[Paypal\n(Gorbatschow)] as paypal
[Chat Service\n(Bielmeier)] as chat

interface " " as IFChat
chat -right-() IFChat

package "Presentation" as presentation {
  HTTP - [Web Application]
}


package "Logic" as logic {


  [CustomerService] -up-() CustomerServiceIF
  CustomerServiceIF )-up- [Web Application]
  CustomerServiceIF )- - paypal

  [BankingService] -up-() BankingServiceIF
  BankingServiceIF )- - [Web Application]
  BankingServiceIF )- - paypal

  [SupportService] -up-() SupportServiceIF
  SupportServiceIF )-up- [Web Application]
  IFChat )- - SupportService




}

package "Persistence" as persistence {

  [AccountRepository] -up-() AccountRepositoryIF
  AccountRepositoryIF )-up- [BankingService]

  [TransferRepository] -up-() TransferRepositoryIF
  TransferRepositoryIF )-up- [BankingService]

  [CustomerRepository] -up-() CustomerRepositoryIF
  CustomerRepositoryIF )-up- [CustomerService]

  [AddressRepository] -up-() AddressRepositoryIF
  AddressRepositoryIF )-up- [CustomerService]
}

presentation -[hidden]-> logic
presentation -[hidden]-> persistence
logic -[hidden]-> persistence

logic -[hidden]> chat
paypal -[hidden]> logic




@enduml

PlantUML version 1.2020.19(Mon Oct 12 17:10:01 CEST 2020)
(GPL source distribution)
Java Runtime: Java(TM) SE Runtime Environment
JVM: Java HotSpot(TM) 64-Bit Server VM
Default Encoding: Cp1252
Language: de
Country: DE
--></g></svg>