<?xml version="1.0" encoding="UTF-8" standalone="no"?><svg xmlns="http://www.w3.org/2000/svg" xmlns:xlink="http://www.w3.org/1999/xlink" contentScriptType="application/ecmascript" contentStyleType="text/css" height="617px" preserveAspectRatio="none" style="width:651px;height:617px;" version="1.1" viewBox="0 0 651 617" width="651px" zoomAndPan="magnify"><defs><filter height="300%" id="f10r1d7krn8snt" width="300%" x="-1" y="-1"><feGaussianBlur result="blurOut" stdDeviation="2.0"/><feColorMatrix in="blurOut" result="blurOut2" type="matrix" values="0 0 0 0 0 0 0 0 0 0 0 0 0 0 0 0 0 0 .4 0"/><feOffset dx="4.0" dy="4.0" in="blurOut2" result="blurOut3"/><feBlend in="SourceGraphic" in2="blurOut3" mode="normal"/></filter></defs><g><!--MD5=[88ca6809156eb879dc8ea75d9b4ec4d1]
cluster Banking--><rect fill="#FFFFFF" filter="url(#f10r1d7krn8snt)" height="506" style="stroke: #000000; stroke-width: 1.5;" width="475" x="7" y="7"/><text fill="#000000" font-family="sans-serif" font-size="14" font-weight="bold" lengthAdjust="spacingAndGlyphs" textLength="115" x="187" y="23.5332">Banking Service</text><ellipse cx="109.8716" cy="196.1743" fill="#F8F8F8" filter="url(#f10r1d7krn8snt)" rx="68.8716" ry="16.1743" style="stroke: #383838; stroke-width: 1.5;"/><text fill="#000000" font-family="sans-serif" font-size="14" lengthAdjust="spacingAndGlyphs" textLength="98" x="60.8716" y="201.479">Create Account</text><ellipse cx="362.0337" cy="354.8067" fill="#F8F8F8" filter="url(#f10r1d7krn8snt)" rx="67.0337" ry="15.8067" style="stroke: #383838; stroke-width: 1.5;"/><text fill="#000000" font-family="sans-serif" font-size="14" lengthAdjust="spacingAndGlyphs" textLength="93" x="315.5337" y="360.1114">Find Customer</text><ellipse cx="361.8989" cy="59.7798" fill="#F8F8F8" filter="url(#f10r1d7krn8snt)" rx="71.8989" ry="16.7798" style="stroke: #383838; stroke-width: 1.5;"/><text fill="#000000" font-family="sans-serif" font-size="14" lengthAdjust="spacingAndGlyphs" textLength="106" x="308.8989" y="65.0845">Delete Customer</text><ellipse cx="361.813" cy="133.7626" fill="#F8F8F8" filter="url(#f10r1d7krn8snt)" rx="94.313" ry="21.2626" style="stroke: #383838; stroke-width: 1.5;"/><text fill="#000000" font-family="sans-serif" font-size="14" lengthAdjust="spacingAndGlyphs" textLength="160" x="281.813" y="139.0673">Get Address of Customer</text><ellipse cx="362.0894" cy="214.2179" fill="#F8F8F8" filter="url(#f10r1d7krn8snt)" rx="104.0894" ry="23.2179" style="stroke: #383838; stroke-width: 1.5;"/><text fill="#000000" font-family="sans-serif" font-size="14" lengthAdjust="spacingAndGlyphs" textLength="182" x="271.0894" y="219.5226">Update Address of Customer</text><ellipse cx="109.9949" cy="263.899" fill="#F8F8F8" filter="url(#f10r1d7krn8snt)" rx="69.9949" ry="16.399" style="stroke: #383838; stroke-width: 1.5;"/><text fill="#000000" font-family="sans-serif" font-size="14" lengthAdjust="spacingAndGlyphs" textLength="101" x="59.4949" y="269.2037">Mandate Money</text><ellipse cx="362.1311" cy="288.0262" fill="#F8F8F8" filter="url(#f10r1d7krn8snt)" rx="68.1311" ry="16.0262" style="stroke: #383838; stroke-width: 1.5;"/><text fill="#000000" font-family="sans-serif" font-size="14" lengthAdjust="spacingAndGlyphs" textLength="96" x="314.1311" y="293.3309">Delete Account</text><ellipse cx="110.0833" cy="58.9517" fill="#F8F8F8" filter="url(#f10r1d7krn8snt)" rx="51.0833" ry="15.4517" style="stroke: #383838; stroke-width: 1.5;"/><text fill="#000000" font-family="sans-serif" font-size="14" lengthAdjust="spacingAndGlyphs" textLength="68" x="76.0833" y="64.2564">Login User</text><ellipse cx="362.1543" cy="421.9517" fill="#F8F8F8" filter="url(#f10r1d7krn8snt)" rx="58.1543" ry="15.4517" style="stroke: #383838; stroke-width: 1.5;"/><text fill="#000000" font-family="sans-serif" font-size="14" lengthAdjust="spacingAndGlyphs" textLength="78" x="323.1543" y="427.2564">Use Support</text><ellipse cx="110.1188" cy="331.8238" fill="#F8F8F8" filter="url(#f10r1d7krn8snt)" rx="69.6188" ry="16.3238" style="stroke: #383838; stroke-width: 1.5;"/><text fill="#000000" font-family="sans-serif" font-size="14" lengthAdjust="spacingAndGlyphs" textLength="100" x="60.1188" y="337.1284">Transfer Money</text><ellipse cx="109.9661" cy="403.7932" fill="#F8F8F8" filter="url(#f10r1d7krn8snt)" rx="86.9661" ry="19.7932" style="stroke: #383838; stroke-width: 1.5;"/><text fill="#000000" font-family="sans-serif" font-size="14" lengthAdjust="spacingAndGlyphs" textLength="143" x="38.4661" y="409.0979">Get Account Transfers</text><ellipse cx="109.7516" cy="477.9503" fill="#F8F8F8" filter="url(#f10r1d7krn8snt)" rx="82.7516" ry="18.9503" style="stroke: #383838; stroke-width: 1.5;"/><text fill="#000000" font-family="sans-serif" font-size="14" lengthAdjust="spacingAndGlyphs" textLength="133" x="43.2516" y="483.255">Get Account Balance</text><ellipse cx="110.1143" cy="127.2229" fill="#F8F8F8" filter="url(#f10r1d7krn8snt)" rx="76.6143" ry="17.7229" style="stroke: #383838; stroke-width: 1.5;"/><text fill="#000000" font-family="sans-serif" font-size="14" lengthAdjust="spacingAndGlyphs" textLength="118" x="51.1143" y="132.5275">Register Customer</text><!--MD5=[8e9b2d9d80e066cced8e5d90e9bdea61]
entity c--><ellipse cx="362" cy="539" fill="#F8F8F8" filter="url(#f10r1d7krn8snt)" rx="8" ry="8" style="stroke: #383838; stroke-width: 1.5;"/><path d="M362,547 L362,574 M349,555 L375,555 M362,574 L349,589 M362,574 L375,589 " fill="none" filter="url(#f10r1d7krn8snt)" style="stroke: #383838; stroke-width: 1.5;"/><text fill="#000000" font-family="sans-serif" font-size="14" lengthAdjust="spacingAndGlyphs" textLength="61" x="331.5" y="609.0332">Customer</text><!--MD5=[e32773a0da76c445e84e5885468a4484]
entity e--><ellipse cx="613" cy="256" fill="#F8F8F8" filter="url(#f10r1d7krn8snt)" rx="8" ry="8" style="stroke: #383838; stroke-width: 1.5;"/><path d="M613,264 L613,291 M600,272 L626,272 M613,291 L600,306 M613,291 L626,306 " fill="none" filter="url(#f10r1d7krn8snt)" style="stroke: #383838; stroke-width: 1.5;"/><text fill="#000000" font-family="sans-serif" font-size="14" lengthAdjust="spacingAndGlyphs" textLength="62" x="582" y="326.0332">Employee</text><!--MD5=[e0cd3719b49abd01bc252a9e1b27f632]
reverse link c to e--><path d="M411.78,557.06 C437.41,547.83 467.98,533.56 490,513 C545.21,461.44 580.89,379.14 598.64,329.66 " fill="none" id="c-backto-e" style="stroke: #383838; stroke-width: 1.0;"/><polygon fill="none" points="413.73,563.79,392.54,563.42,409.34,550.5,413.73,563.79" style="stroke: #383838; stroke-width: 1.0;"/><!--MD5=[0750bae649bba517013f6d2ddc00b20a]
reverse link uc11 to c--><path d="M165.35,208.99 C177.05,213.94 188.45,220.72 197,230 C229.11,264.84 217.21,285.86 228,332 C246.56,411.4 211.21,446.22 258,513 C275.54,538.04 307.56,553.58 331.26,562.2 " fill="none" id="uc11-backto-c" style="stroke: #383838; stroke-width: 1.0;"/><polygon fill="#383838" points="160.68,207.12,167.5432,214.1837,165.3204,208.9819,170.5222,206.7591,160.68,207.12" style="stroke: #383838; stroke-width: 1.0;"/><!--MD5=[a8502da0e2a97a807084b55d93e49e30]
reverse link uc16 to c--><path d="M166.49,277.41 C177.81,282.32 188.75,288.98 197,298 C264.03,371.3 196.94,434.66 258,513 C276.67,536.96 308.18,552.6 331.44,561.53 " fill="none" id="uc16-backto-c" style="stroke: #383838; stroke-width: 1.0;"/><polygon fill="#383838" points="161.63,275.41,168.4368,282.5281,166.2555,277.3087,171.4748,275.1273,161.63,275.41" style="stroke: #383838; stroke-width: 1.0;"/><!--MD5=[74af7b9beac97157247d54ba03b4303d]
link e to uc12--><path d="M581.92,296.16 C557.23,302.85 521.36,312.56 490,321 C464.38,327.89 435.85,335.54 412.32,341.83 " fill="none" id="e-to-uc12" style="stroke: #383838; stroke-width: 1.0;"/><polygon fill="#383838" points="407.38,343.15,417.1062,344.6996,412.2116,341.8635,415.0477,336.9689,407.38,343.15" style="stroke: #383838; stroke-width: 1.0;"/><!--MD5=[01f852f723579516bb24f51b3c7cae60]
link e to uc13--><path d="M597.48,246.38 C579.53,201.48 544.51,131.51 490,95 C471.97,82.92 449.86,74.99 429.16,69.79 " fill="none" id="e-to-uc13" style="stroke: #383838; stroke-width: 1.0;"/><polygon fill="#383838" points="424.22,68.59,432.0146,74.6103,429.0774,69.7758,433.9119,66.8385,424.22,68.59" style="stroke: #383838; stroke-width: 1.0;"/><!--MD5=[874f875b7411d5015c8041a196a73f46]
link e to uc14--><path d="M581.87,251.49 C559.08,226.09 525.69,193.26 490,173 C473.32,163.53 454.07,156.1 435.68,150.38 " fill="none" id="e-to-uc14" style="stroke: #383838; stroke-width: 1.0;"/><polygon fill="#383838" points="430.52,148.81,437.9647,155.258,435.3032,150.2664,440.2949,147.6049,430.52,148.81" style="stroke: #383838; stroke-width: 1.0;"/><!--MD5=[3dd15030e115705e631dc42ba8291197]
link e to uc15--><path d="M581.85,273.81 C572.41,269.68 561.88,265.37 552,262 C516.58,249.91 476.5,239.31 442.39,231.17 " fill="none" id="e-to-uc15" style="stroke: #383838; stroke-width: 1.0;"/><polygon fill="#383838" points="437.4,229.99,445.228,235.9668,442.2639,231.1487,447.082,228.1846,437.4,229.99" style="stroke: #383838; stroke-width: 1.0;"/><!--MD5=[877e6b803e7c8512c543cff1734550b7]
link e to uc17--><path d="M581.77,288 C545.64,288 483.99,288 435.32,288 " fill="none" id="e-to-uc17" style="stroke: #383838; stroke-width: 1.0;"/><polygon fill="#383838" points="430.05,288,439.0614,291.9743,435.05,287.9857,439.0385,283.9743,430.05,288" style="stroke: #383838; stroke-width: 1.0;"/><!--MD5=[3a6f16a45b1ed29d18f2f8f7f333ad37]
reverse link uc21 to c--><path d="M159.83,68.23 C173.68,73.12 187.55,80.59 197,92 C257.31,164.8 205.51,434.38 258,513 C275.09,538.6 307.52,554.11 331.44,562.57 " fill="none" id="uc21-backto-c" style="stroke: #383838; stroke-width: 1.0;"/><polygon fill="#383838" points="154.73,66.54,162.0152,73.1676,159.4763,68.1126,164.5313,65.5736,154.73,66.54" style="stroke: #383838; stroke-width: 1.0;"/><!--MD5=[ccf5115888626c19bdf9395eb3cffc68]
reverse link uc31 to c--><path d="M362,442.78 C362,465.14 362,501.27 362,529.5 " fill="none" id="uc31-backto-c" style="stroke: #383838; stroke-width: 1.0;"/><polygon fill="#383838" points="362,437.68,358,446.68,362,442.68,366,446.68,362,437.68" style="stroke: #383838; stroke-width: 1.0;"/><text fill="#000000" font-family="sans-serif" font-size="13" lengthAdjust="spacingAndGlyphs" textLength="23" x="330.5" y="480.9951">Ask</text><text fill="#000000" font-family="sans-serif" font-size="13" lengthAdjust="spacingAndGlyphs" textLength="52" x="316" y="497.3467">Question</text><!--MD5=[2788e32d678298093f8e0b0bebbd177d]
link e to uc31--><path d="M583.28,329.81 C574.21,340.96 563.52,352.3 552,361 C513.03,390.43 459.32,405.97 419.12,413.98 " fill="none" id="e-to-uc31" style="stroke: #383838; stroke-width: 1.0;"/><polygon fill="#383838" points="413.79,415.01,423.3887,417.2156,418.6978,414.0541,421.8593,409.3632,413.79,415.01" style="stroke: #383838; stroke-width: 1.0;"/><text fill="#000000" font-family="sans-serif" font-size="13" lengthAdjust="spacingAndGlyphs" textLength="43" x="503.5" y="341.4951">Answer</text><text fill="#000000" font-family="sans-serif" font-size="13" lengthAdjust="spacingAndGlyphs" textLength="52" x="499" y="357.8467">Question</text><!--MD5=[7e5d90e345fffe4640844c8dff94e79c]
reverse link uc41 to c--><path d="M164.31,345.45 C176.17,350.39 187.9,357.06 197,366 C247.44,415.59 211.06,460.09 258,513 C277.88,535.41 308.59,551.13 331.31,560.49 " fill="none" id="uc41-backto-c" style="stroke: #383838; stroke-width: 1.0;"/><polygon fill="#383838" points="159.59,343.57,166.4794,350.6082,164.2373,345.4146,169.4308,343.1725,159.59,343.57" style="stroke: #383838; stroke-width: 1.0;"/><!--MD5=[9c85be515a50f0533800359627e7fff6]
reverse link uc42 to c--><path d="M164.77,422.59 C175.95,427.67 187.28,433.81 197,441 C230.71,465.95 225.66,486.29 258,513 C280.47,531.56 309.7,547.37 331.28,557.78 " fill="none" id="uc42-backto-c" style="stroke: #383838; stroke-width: 1.0;"/><polygon fill="#383838" points="159.99,420.47,166.594,427.7767,164.5602,422.498,169.8389,420.4643,159.99,420.47" style="stroke: #383838; stroke-width: 1.0;"/><!--MD5=[fe14c2cffb9021b682dc15d7777411a0]
reverse link uc43 to c--><path d="M159.1,495.89 C209.96,514.81 288.62,544.08 331.19,559.91 " fill="none" id="uc43-backto-c" style="stroke: #383838; stroke-width: 1.0;"/><polygon fill="#383838" points="154.26,494.09,161.3009,500.9766,158.9463,495.8331,164.0899,493.4785,154.26,494.09" style="stroke: #383838; stroke-width: 1.0;"/><!--MD5=[9b84724ed79cf4350ad9e775071c2505]
reverse link uc44 to c--><path d="M169.24,141.67 C179.71,146.62 189.63,153.22 197,162 C247.93,222.61 213.26,447.69 258,513 C275.28,538.23 307.34,553.74 331.12,562.29 " fill="none" id="uc44-backto-c" style="stroke: #383838; stroke-width: 1.0;"/><polygon fill="#383838" points="164.4,139.5,171.004,146.8067,168.9702,141.528,174.2489,139.4943,164.4,139.5" style="stroke: #383838; stroke-width: 1.0;"/><!--MD5=[faad59fa2d204daa29ded518a206a487]
link uc21 to uc12--><!--MD5=[c924391a7c8d710a3199196920068c2f]
link uc21 to uc13--><!--MD5=[a8914b31170e3e6fffc817d76af440c0]
link uc21 to uc14--><!--MD5=[6eaba2ed186f22d3e3c92b2100f55c0f]
link uc21 to uc15--><!--MD5=[aaa57c62f38c7b4b378e409e8c73ed6b]
link uc21 to uc17--><!--MD5=[5b87b8933d1147ff15f1772cecab31ff]
link uc44 to uc31--><!--MD5=[186d8ac6a064f95d400910bd22248d10]
@startuml

left to right direction
skinparam monochrome true

actor "Customer" as c
actor "Employee" as e

c <|- - e

rectangle "Banking Service" as Banking {

  usecase "Create Account" as uc11
  usecase "Find Customer" as uc12
  usecase "Delete Customer" as uc13
  usecase "Get Address of Customer" as uc14
  usecase "Update Address of Customer" as uc15
  usecase "Mandate Money" as uc16
  usecase "Delete Account" as uc17

  usecase "Login User" as uc21

  usecase "Use Support" as uc31

  usecase "Transfer Money" as uc41
  usecase "Get Account Transfers" as uc42
  usecase "Get Account Balance" as uc43
  usecase "Register Customer" as uc44
}

' Customer Service
uc11 <- - c
uc16 <- - c

e - -> uc12
e - -> uc13
e - -> uc14
e - -> uc15
e - -> uc17


' Session Service
uc21 <- - c


' Support Service
'uc31 - -> chat
uc31 <- - c : Ask\nQuestion
e - -> uc31 : Answer\nQuestion


' Banking Service
uc41 <- - c
uc42 <- - c
uc43 <- - c
uc44 <- - c

' Layout
uc21 -[hidden]-> uc12
uc21 -[hidden]-> uc13
uc21 -[hidden]-> uc14
uc21 -[hidden]-> uc15
uc21 -[hidden]-> uc17
uc44 -[hidden]-> uc31

@enduml

@startuml

left to right direction
skinparam monochrome true

actor "Customer" as c
actor "Employee" as e

c <|- - e

rectangle "Banking Service" as Banking {

  usecase "Create Account" as uc11
  usecase "Find Customer" as uc12
  usecase "Delete Customer" as uc13
  usecase "Get Address of Customer" as uc14
  usecase "Update Address of Customer" as uc15
  usecase "Mandate Money" as uc16
  usecase "Delete Account" as uc17

  usecase "Login User" as uc21

  usecase "Use Support" as uc31

  usecase "Transfer Money" as uc41
  usecase "Get Account Transfers" as uc42
  usecase "Get Account Balance" as uc43
  usecase "Register Customer" as uc44
}

uc11 <- - c
uc16 <- - c

e - -> uc12
e - -> uc13
e - -> uc14
e - -> uc15
e - -> uc17


uc21 <- - c


uc31 <- - c : Ask\nQuestion
e - -> uc31 : Answer\nQuestion


uc41 <- - c
uc42 <- - c
uc43 <- - c
uc44 <- - c

uc21 -[hidden]-> uc12
uc21 -[hidden]-> uc13
uc21 -[hidden]-> uc14
uc21 -[hidden]-> uc15
uc21 -[hidden]-> uc17
uc44 -[hidden]-> uc31

@enduml

PlantUML version 1.2020.19(Mon Oct 12 17:10:01 CEST 2020)
(GPL source distribution)
Java Runtime: Java(TM) SE Runtime Environment
JVM: Java HotSpot(TM) 64-Bit Server VM
Default Encoding: Cp1252
Language: de
Country: DE
--></g></svg>