<?xml version="1.0" encoding="UTF-8" standalone="no"?><svg xmlns="http://www.w3.org/2000/svg" xmlns:xlink="http://www.w3.org/1999/xlink" contentScriptType="application/ecmascript" contentStyleType="text/css" height="464px" preserveAspectRatio="none" style="width:600px;height:464px;" version="1.1" viewBox="0 0 600 464" width="600px" zoomAndPan="magnify"><defs><filter height="300%" id="fveb25vialawl" width="300%" x="-1" y="-1"><feGaussianBlur result="blurOut" stdDeviation="2.0"/><feColorMatrix in="blurOut" result="blurOut2" type="matrix" values="0 0 0 0 0 0 0 0 0 0 0 0 0 0 0 0 0 0 .4 0"/><feOffset dx="4.0" dy="4.0" in="blurOut2" result="blurOut3"/><feBlend in="SourceGraphic" in2="blurOut3" mode="normal"/></filter></defs><g><!--MD5=[7d75efcc7d06b347edea0516f6aac1d8]
class BaseEntity--><rect codeLine="5" fill="#FEFECE" filter="url(#fveb25vialawl)" height="103.3438" id="BaseEntity" style="stroke: #A80036; stroke-width: 1.5;" width="168" x="281.5" y="7"/><ellipse cx="332.25" cy="23" fill="#A9DCDF" rx="11" ry="11" style="stroke: #A80036; stroke-width: 1.0;"/><path d="M334.4375,24.7656 L330.2969,24.7656 L329.875,25.7969 L330.2969,25.7969 Q330.9063,25.7969 331.1719,26.0313 Q331.4375,26.2656 331.4375,26.6563 Q331.4375,27.0313 331.1719,27.2656 Q330.9063,27.5 330.2969,27.5 L328,27.5 Q327.3906,27.5 327.1406,27.2656 Q326.875,27.0313 326.875,26.6406 Q326.875,26.2656 327.1563,26.0313 Q327.4219,25.7813 328.0469,25.7969 L330.7188,19.1406 L329.6094,19.1406 Q329,19.1406 328.7344,18.9063 Q328.4688,18.6719 328.4688,18.2813 Q328.4688,17.9063 328.7344,17.6719 Q329,17.4375 329.6094,17.4375 L333.2813,17.4375 L336.6719,25.7969 Q337.2656,25.7969 337.4531,25.9375 Q337.8438,26.2031 337.8438,26.6563 Q337.8438,27.0313 337.5781,27.2656 Q337.3281,27.5 336.7188,27.5 L334.4219,27.5 Q333.8125,27.5 333.5469,27.2656 Q333.2813,27.0313 333.2813,26.6406 Q333.2813,26.2656 333.5469,26.0313 Q333.8125,25.7969 334.4219,25.7969 L334.8438,25.7969 L334.4375,24.7656 Z M333.7188,23.0625 L332.3594,19.6875 L330.9844,23.0625 L333.7188,23.0625 Z "/><text fill="#000000" font-family="sans-serif" font-size="12" font-style="italic" lengthAdjust="spacingAndGlyphs" textLength="58" x="352.75" y="27.9102">BaseEntity</text><line style="stroke: #A80036; stroke-width: 1.5;" x1="282.5" x2="448.5" y1="39" y2="39"/><text fill="#000000" font-family="sans-serif" font-size="11" lengthAdjust="spacingAndGlyphs" textLength="38" x="287.5" y="54.4189">-id: long</text><line style="stroke: #A80036; stroke-width: 1.5;" x1="282.5" x2="448.5" y1="60.8359" y2="60.8359"/><text fill="#000000" font-family="sans-serif" font-size="11" lengthAdjust="spacingAndGlyphs" textLength="61" x="287.5" y="76.2549">-getId(): long</text><text fill="#000000" font-family="sans-serif" font-size="11" lengthAdjust="spacingAndGlyphs" textLength="156" x="287.5" y="90.0908">+equals(object: Object): boolean</text><text fill="#000000" font-family="sans-serif" font-size="11" lengthAdjust="spacingAndGlyphs" textLength="80" x="287.5" y="103.9268">+hashCode(): int</text><!--MD5=[f9a29335b499db729be669fd1bd54958]
class Account--><rect codeLine="12" fill="#FEFECE" filter="url(#fveb25vialawl)" height="61.8359" id="Account" style="stroke: #A80036; stroke-width: 1.5;" width="75" x="191" y="382"/><ellipse cx="206" cy="398" fill="#ADD1B2" rx="11" ry="11" style="stroke: #A80036; stroke-width: 1.0;"/><path d="M208.7656,393.875 Q208.9219,393.6563 209.1094,393.5469 Q209.2969,393.4375 209.5156,393.4375 Q209.8906,393.4375 210.125,393.7031 Q210.3594,393.9531 210.3594,394.5625 L210.3594,396.0156 Q210.3594,396.625 210.125,396.8906 Q209.8906,397.1563 209.5156,397.1563 Q209.1719,397.1563 208.9688,396.9531 Q208.7656,396.7656 208.6563,396.25 Q208.6094,395.8906 208.4219,395.7031 Q208.0938,395.3281 207.4844,395.1094 Q206.875,394.8906 206.25,394.8906 Q205.4844,394.8906 204.8438,395.2188 Q204.2188,395.5469 203.7188,396.2969 Q203.2344,397.0469 203.2344,398.0781 L203.2344,399.1719 Q203.2344,400.4063 204.125,401.2344 Q205.0156,402.0469 206.6094,402.0469 Q207.5469,402.0469 208.2031,401.7969 Q208.5938,401.6406 209.0156,401.2031 Q209.2813,400.9375 209.4219,400.8594 Q209.5781,400.7813 209.7813,400.7813 Q210.1094,400.7813 210.3594,401.0469 Q210.625,401.2969 210.625,401.6406 Q210.625,401.9844 210.2813,402.3906 Q209.7813,402.9688 208.9844,403.2969 Q207.9063,403.75 206.6094,403.75 Q205.0938,403.75 203.8906,403.125 Q202.9063,402.625 202.2188,401.5625 Q201.5313,400.4844 201.5313,399.2031 L201.5313,398.0469 Q201.5313,396.7188 202.1406,395.5781 Q202.7656,394.4219 203.8594,393.8125 Q204.9531,393.1875 206.1875,393.1875 Q206.9219,393.1875 207.5625,393.3594 Q208.2188,393.5156 208.7656,393.875 Z "/><text fill="#000000" font-family="sans-serif" font-size="12" lengthAdjust="spacingAndGlyphs" textLength="43" x="220" y="402.9102">Account</text><line style="stroke: #A80036; stroke-width: 1.5;" x1="192" x2="265" y1="414" y2="414"/><text fill="#000000" font-family="sans-serif" font-size="11" lengthAdjust="spacingAndGlyphs" textLength="58" x="197" y="429.4189">-iban: String</text><line style="stroke: #A80036; stroke-width: 1.5;" x1="192" x2="265" y1="435.8359" y2="435.8359"/><!--MD5=[0f39e4cb6f03951afbf6d14bd2505654]
class Address--><rect codeLine="16" fill="#FEFECE" filter="url(#fveb25vialawl)" height="144.8516" id="Address" style="stroke: #A80036; stroke-width: 1.5;" width="209" x="145" y="170"/><ellipse cx="222.25" cy="186" fill="#ADD1B2" rx="11" ry="11" style="stroke: #A80036; stroke-width: 1.0;"/><path d="M225.0156,181.875 Q225.1719,181.6563 225.3594,181.5469 Q225.5469,181.4375 225.7656,181.4375 Q226.1406,181.4375 226.375,181.7031 Q226.6094,181.9531 226.6094,182.5625 L226.6094,184.0156 Q226.6094,184.625 226.375,184.8906 Q226.1406,185.1563 225.7656,185.1563 Q225.4219,185.1563 225.2188,184.9531 Q225.0156,184.7656 224.9063,184.25 Q224.8594,183.8906 224.6719,183.7031 Q224.3438,183.3281 223.7344,183.1094 Q223.125,182.8906 222.5,182.8906 Q221.7344,182.8906 221.0938,183.2188 Q220.4688,183.5469 219.9688,184.2969 Q219.4844,185.0469 219.4844,186.0781 L219.4844,187.1719 Q219.4844,188.4063 220.375,189.2344 Q221.2656,190.0469 222.8594,190.0469 Q223.7969,190.0469 224.4531,189.7969 Q224.8438,189.6406 225.2656,189.2031 Q225.5313,188.9375 225.6719,188.8594 Q225.8281,188.7813 226.0313,188.7813 Q226.3594,188.7813 226.6094,189.0469 Q226.875,189.2969 226.875,189.6406 Q226.875,189.9844 226.5313,190.3906 Q226.0313,190.9688 225.2344,191.2969 Q224.1563,191.75 222.8594,191.75 Q221.3438,191.75 220.1406,191.125 Q219.1563,190.625 218.4688,189.5625 Q217.7813,188.4844 217.7813,187.2031 L217.7813,186.0469 Q217.7813,184.7188 218.3906,183.5781 Q219.0156,182.4219 220.1094,181.8125 Q221.2031,181.1875 222.4375,181.1875 Q223.1719,181.1875 223.8125,181.3594 Q224.4688,181.5156 225.0156,181.875 Z "/><text fill="#000000" font-family="sans-serif" font-size="12" lengthAdjust="spacingAndGlyphs" textLength="46" x="242.75" y="190.9102">Address</text><line style="stroke: #A80036; stroke-width: 1.5;" x1="146" x2="353" y1="202" y2="202"/><text fill="#000000" font-family="sans-serif" font-size="11" lengthAdjust="spacingAndGlyphs" textLength="66" x="151" y="217.4189">-street: String</text><text fill="#000000" font-family="sans-serif" font-size="11" lengthAdjust="spacingAndGlyphs" textLength="62" x="151" y="231.2549">-houseNr: int</text><text fill="#000000" font-family="sans-serif" font-size="11" lengthAdjust="spacingAndGlyphs" textLength="69" x="151" y="245.0908">-zipCode: long</text><text fill="#000000" font-family="sans-serif" font-size="11" lengthAdjust="spacingAndGlyphs" textLength="55" x="151" y="258.9268">-city: String</text><text fill="#000000" font-family="sans-serif" font-size="11" lengthAdjust="spacingAndGlyphs" textLength="75" x="151" y="272.7627">-country: String</text><line style="stroke: #A80036; stroke-width: 1.5;" x1="146" x2="353" y1="279.1797" y2="279.1797"/><text fill="#000000" font-family="sans-serif" font-size="11" lengthAdjust="spacingAndGlyphs" textLength="158" x="151" y="294.5986">+getResidents(): List&lt;Customer&gt;</text><text fill="#000000" font-family="sans-serif" font-size="11" lengthAdjust="spacingAndGlyphs" textLength="197" x="151" y="308.4346">+addResident(customer: Customer): void</text><!--MD5=[2ce0c9fb7f55b1e256ab28a8ea6b25ec]
class Customer--><rect codeLine="26" fill="#FEFECE" filter="url(#fveb25vialawl)" height="144.8516" id="Customer" style="stroke: #A80036; stroke-width: 1.5;" width="125" x="461" y="170"/><ellipse cx="493.1" cy="186" fill="#ADD1B2" rx="11" ry="11" style="stroke: #A80036; stroke-width: 1.0;"/><path d="M495.8656,181.875 Q496.0219,181.6563 496.2094,181.5469 Q496.3969,181.4375 496.6156,181.4375 Q496.9906,181.4375 497.225,181.7031 Q497.4594,181.9531 497.4594,182.5625 L497.4594,184.0156 Q497.4594,184.625 497.225,184.8906 Q496.9906,185.1563 496.6156,185.1563 Q496.2719,185.1563 496.0688,184.9531 Q495.8656,184.7656 495.7563,184.25 Q495.7094,183.8906 495.5219,183.7031 Q495.1938,183.3281 494.5844,183.1094 Q493.975,182.8906 493.35,182.8906 Q492.5844,182.8906 491.9438,183.2188 Q491.3188,183.5469 490.8188,184.2969 Q490.3344,185.0469 490.3344,186.0781 L490.3344,187.1719 Q490.3344,188.4063 491.225,189.2344 Q492.1156,190.0469 493.7094,190.0469 Q494.6469,190.0469 495.3031,189.7969 Q495.6938,189.6406 496.1156,189.2031 Q496.3813,188.9375 496.5219,188.8594 Q496.6781,188.7813 496.8813,188.7813 Q497.2094,188.7813 497.4594,189.0469 Q497.725,189.2969 497.725,189.6406 Q497.725,189.9844 497.3813,190.3906 Q496.8813,190.9688 496.0844,191.2969 Q495.0063,191.75 493.7094,191.75 Q492.1938,191.75 490.9906,191.125 Q490.0063,190.625 489.3188,189.5625 Q488.6313,188.4844 488.6313,187.2031 L488.6313,186.0469 Q488.6313,184.7188 489.2406,183.5781 Q489.8656,182.4219 490.9594,181.8125 Q492.0531,181.1875 493.2875,181.1875 Q494.0219,181.1875 494.6625,181.3594 Q495.3188,181.5156 495.8656,181.875 Z "/><text fill="#000000" font-family="sans-serif" font-size="12" lengthAdjust="spacingAndGlyphs" textLength="55" x="510.9" y="190.9102">Customer</text><line style="stroke: #A80036; stroke-width: 1.5;" x1="462" x2="585" y1="202" y2="202"/><text fill="#000000" font-family="sans-serif" font-size="11" lengthAdjust="spacingAndGlyphs" textLength="84" x="467" y="217.4189">-forename: String</text><text fill="#000000" font-family="sans-serif" font-size="11" lengthAdjust="spacingAndGlyphs" textLength="80" x="467" y="231.2549">-surname: String</text><text fill="#000000" font-family="sans-serif" font-size="11" lengthAdjust="spacingAndGlyphs" textLength="86" x="467" y="245.0908">-username: String</text><text fill="#000000" font-family="sans-serif" font-size="11" lengthAdjust="spacingAndGlyphs" textLength="90" x="467" y="258.9268">-taxNumber: String</text><text fill="#000000" font-family="sans-serif" font-size="11" lengthAdjust="spacingAndGlyphs" textLength="75" x="467" y="272.7627">-birthDate: Date</text><text fill="#000000" font-family="sans-serif" font-size="11" lengthAdjust="spacingAndGlyphs" textLength="113" x="467" y="286.5986">-passwordHash: String</text><text fill="#000000" font-family="sans-serif" font-size="11" lengthAdjust="spacingAndGlyphs" textLength="88" x="467" y="300.4346">-password: String</text><line style="stroke: #A80036; stroke-width: 1.5;" x1="462" x2="585" y1="306.8516" y2="306.8516"/><!--MD5=[7421f545a0d8420c5bec41e74b387d9c]
class Employee--><rect codeLine="36" fill="#FEFECE" filter="url(#fveb25vialawl)" height="75.6719" id="Employee" style="stroke: #A80036; stroke-width: 1.5;" width="105" x="471" y="375"/><ellipse cx="494.1" cy="391" fill="#ADD1B2" rx="11" ry="11" style="stroke: #A80036; stroke-width: 1.0;"/><path d="M496.8656,386.875 Q497.0219,386.6563 497.2094,386.5469 Q497.3969,386.4375 497.6156,386.4375 Q497.9906,386.4375 498.225,386.7031 Q498.4594,386.9531 498.4594,387.5625 L498.4594,389.0156 Q498.4594,389.625 498.225,389.8906 Q497.9906,390.1563 497.6156,390.1563 Q497.2719,390.1563 497.0688,389.9531 Q496.8656,389.7656 496.7563,389.25 Q496.7094,388.8906 496.5219,388.7031 Q496.1938,388.3281 495.5844,388.1094 Q494.975,387.8906 494.35,387.8906 Q493.5844,387.8906 492.9438,388.2188 Q492.3188,388.5469 491.8188,389.2969 Q491.3344,390.0469 491.3344,391.0781 L491.3344,392.1719 Q491.3344,393.4063 492.225,394.2344 Q493.1156,395.0469 494.7094,395.0469 Q495.6469,395.0469 496.3031,394.7969 Q496.6938,394.6406 497.1156,394.2031 Q497.3813,393.9375 497.5219,393.8594 Q497.6781,393.7813 497.8813,393.7813 Q498.2094,393.7813 498.4594,394.0469 Q498.725,394.2969 498.725,394.6406 Q498.725,394.9844 498.3813,395.3906 Q497.8813,395.9688 497.0844,396.2969 Q496.0063,396.75 494.7094,396.75 Q493.1938,396.75 491.9906,396.125 Q491.0063,395.625 490.3188,394.5625 Q489.6313,393.4844 489.6313,392.2031 L489.6313,391.0469 Q489.6313,389.7188 490.2406,388.5781 Q490.8656,387.4219 491.9594,386.8125 Q493.0531,386.1875 494.2875,386.1875 Q495.0219,386.1875 495.6625,386.3594 Q496.3188,386.5156 496.8656,386.875 Z "/><text fill="#000000" font-family="sans-serif" font-size="12" lengthAdjust="spacingAndGlyphs" textLength="55" x="509.9" y="395.9102">Employee</text><line style="stroke: #A80036; stroke-width: 1.5;" x1="472" x2="575" y1="407" y2="407"/><text fill="#000000" font-family="sans-serif" font-size="11" lengthAdjust="spacingAndGlyphs" textLength="93" x="477" y="422.4189">-designation: String</text><text fill="#000000" font-family="sans-serif" font-size="11" lengthAdjust="spacingAndGlyphs" textLength="72" x="477" y="436.2549">-salary: double</text><line style="stroke: #A80036; stroke-width: 1.5;" x1="472" x2="575" y1="442.6719" y2="442.6719"/><!--MD5=[2ca1536628238a7dc78c5d90808014f9]
class Session--><rect codeLine="41" fill="#FEFECE" filter="url(#fveb25vialawl)" height="75.6719" id="Session" style="stroke: #A80036; stroke-width: 1.5;" width="78" x="484.5" y="20.5"/><ellipse cx="499.5" cy="36.5" fill="#ADD1B2" rx="11" ry="11" style="stroke: #A80036; stroke-width: 1.0;"/><path d="M502.2656,32.375 Q502.4219,32.1563 502.6094,32.0469 Q502.7969,31.9375 503.0156,31.9375 Q503.3906,31.9375 503.625,32.2031 Q503.8594,32.4531 503.8594,33.0625 L503.8594,34.5156 Q503.8594,35.125 503.625,35.3906 Q503.3906,35.6563 503.0156,35.6563 Q502.6719,35.6563 502.4688,35.4531 Q502.2656,35.2656 502.1563,34.75 Q502.1094,34.3906 501.9219,34.2031 Q501.5938,33.8281 500.9844,33.6094 Q500.375,33.3906 499.75,33.3906 Q498.9844,33.3906 498.3438,33.7188 Q497.7188,34.0469 497.2188,34.7969 Q496.7344,35.5469 496.7344,36.5781 L496.7344,37.6719 Q496.7344,38.9063 497.625,39.7344 Q498.5156,40.5469 500.1094,40.5469 Q501.0469,40.5469 501.7031,40.2969 Q502.0938,40.1406 502.5156,39.7031 Q502.7813,39.4375 502.9219,39.3594 Q503.0781,39.2813 503.2813,39.2813 Q503.6094,39.2813 503.8594,39.5469 Q504.125,39.7969 504.125,40.1406 Q504.125,40.4844 503.7813,40.8906 Q503.2813,41.4688 502.4844,41.7969 Q501.4063,42.25 500.1094,42.25 Q498.5938,42.25 497.3906,41.625 Q496.4063,41.125 495.7188,40.0625 Q495.0313,38.9844 495.0313,37.7031 L495.0313,36.5469 Q495.0313,35.2188 495.6406,34.0781 Q496.2656,32.9219 497.3594,32.3125 Q498.4531,31.6875 499.6875,31.6875 Q500.4219,31.6875 501.0625,31.8594 Q501.7188,32.0156 502.2656,32.375 Z "/><text fill="#000000" font-family="sans-serif" font-size="12" lengthAdjust="spacingAndGlyphs" textLength="46" x="513.5" y="41.4102">Session</text><line style="stroke: #A80036; stroke-width: 1.5;" x1="485.5" x2="561.5" y1="52.5" y2="52.5"/><text fill="#000000" font-family="sans-serif" font-size="11" lengthAdjust="spacingAndGlyphs" textLength="53" x="490.5" y="67.9189">-uuid: UUID</text><text fill="#000000" font-family="sans-serif" font-size="11" lengthAdjust="spacingAndGlyphs" textLength="53" x="490.5" y="81.7549">-date: Date</text><line style="stroke: #A80036; stroke-width: 1.5;" x1="485.5" x2="561.5" y1="88.1719" y2="88.1719"/><!--MD5=[02f52dd76b6d93c484e98adf8cb1a92d]
class Transfer--><rect codeLine="46" fill="#FEFECE" filter="url(#fveb25vialawl)" height="89.5078" id="Transfer" style="stroke: #A80036; stroke-width: 1.5;" width="103" x="7" y="197.5"/><ellipse cx="33.25" cy="213.5" fill="#ADD1B2" rx="11" ry="11" style="stroke: #A80036; stroke-width: 1.0;"/><path d="M36.0156,209.375 Q36.1719,209.1563 36.3594,209.0469 Q36.5469,208.9375 36.7656,208.9375 Q37.1406,208.9375 37.375,209.2031 Q37.6094,209.4531 37.6094,210.0625 L37.6094,211.5156 Q37.6094,212.125 37.375,212.3906 Q37.1406,212.6563 36.7656,212.6563 Q36.4219,212.6563 36.2188,212.4531 Q36.0156,212.2656 35.9063,211.75 Q35.8594,211.3906 35.6719,211.2031 Q35.3438,210.8281 34.7344,210.6094 Q34.125,210.3906 33.5,210.3906 Q32.7344,210.3906 32.0938,210.7188 Q31.4688,211.0469 30.9688,211.7969 Q30.4844,212.5469 30.4844,213.5781 L30.4844,214.6719 Q30.4844,215.9063 31.375,216.7344 Q32.2656,217.5469 33.8594,217.5469 Q34.7969,217.5469 35.4531,217.2969 Q35.8438,217.1406 36.2656,216.7031 Q36.5313,216.4375 36.6719,216.3594 Q36.8281,216.2813 37.0313,216.2813 Q37.3594,216.2813 37.6094,216.5469 Q37.875,216.7969 37.875,217.1406 Q37.875,217.4844 37.5313,217.8906 Q37.0313,218.4688 36.2344,218.7969 Q35.1563,219.25 33.8594,219.25 Q32.3438,219.25 31.1406,218.625 Q30.1563,218.125 29.4688,217.0625 Q28.7813,215.9844 28.7813,214.7031 L28.7813,213.5469 Q28.7813,212.2188 29.3906,211.0781 Q30.0156,209.9219 31.1094,209.3125 Q32.2031,208.6875 33.4375,208.6875 Q34.1719,208.6875 34.8125,208.8594 Q35.4688,209.0156 36.0156,209.375 Z "/><text fill="#000000" font-family="sans-serif" font-size="12" lengthAdjust="spacingAndGlyphs" textLength="46" x="49.75" y="218.4102">Transfer</text><line style="stroke: #A80036; stroke-width: 1.5;" x1="8" x2="109" y1="229.5" y2="229.5"/><text fill="#000000" font-family="sans-serif" font-size="11" lengthAdjust="spacingAndGlyphs" textLength="77" x="13" y="244.9189">-amount: double</text><text fill="#000000" font-family="sans-serif" font-size="11" lengthAdjust="spacingAndGlyphs" textLength="53" x="13" y="258.7549">-date: Date</text><text fill="#000000" font-family="sans-serif" font-size="11" lengthAdjust="spacingAndGlyphs" textLength="91" x="13" y="272.5908">-description: String</text><line style="stroke: #A80036; stroke-width: 1.5;" x1="8" x2="109" y1="279.0078" y2="279.0078"/><!--MD5=[b4094daf9f7d590234aa4fa208e27ce7]
link Session to Customer--><path codeLine="54" d="M523.5,96.62 C523.5,117.78 523.5,144.81 523.5,169.84 " fill="none" id="Session-Customer" style="stroke: #A80036; stroke-width: 1.0;"/><text fill="#000000" font-family="sans-serif" font-size="13" lengthAdjust="spacingAndGlyphs" textLength="20" x="501.8438" y="117.81">0..*</text><text fill="#000000" font-family="sans-serif" font-size="13" lengthAdjust="spacingAndGlyphs" textLength="7" x="516.1391" y="159.0428">1</text><!--MD5=[cc86f912536a41a358bf474feaa8a8fa]
link Customer to Account--><path codeLine="55" d="M466,315.02 C466,365.57 466,424 466,424 C466,424 279.13,424 279.13,424 " fill="none" id="Customer-to-Account" style="stroke: #A80036; stroke-width: 1.0;"/><polygon fill="#A80036" points="266.13,424,272.13,428,278.13,424,272.13,420,266.13,424" style="stroke: #A80036; stroke-width: 1.0;"/><text fill="#000000" font-family="sans-serif" font-size="13" lengthAdjust="spacingAndGlyphs" textLength="7" x="452.9953" y="336.4659">1</text><text fill="#000000" font-family="sans-serif" font-size="13" lengthAdjust="spacingAndGlyphs" textLength="20" x="274.0187" y="422.0347">o..*</text><!--MD5=[8b6ec0a2a166b0af4960f5d0cb8a9ecc]
link Address to Customer--><path codeLine="56" d="M354.26,243 C390.22,243 429.31,243 460.86,243 " fill="none" id="Address-Customer" style="stroke: #A80036; stroke-width: 1.0;"/><text fill="#000000" font-family="sans-serif" font-size="13" lengthAdjust="spacingAndGlyphs" textLength="7" x="361.872" y="239.9854">1</text><text fill="#000000" font-family="sans-serif" font-size="13" lengthAdjust="spacingAndGlyphs" textLength="20" x="432.915" y="239.7021">1..*</text><!--MD5=[36563a756307975dce7f8a8b2e0cd6b8]
link Transfer to Account--><path codeLine="57" d="M75.67,287.64 C75.67,335.11 75.67,403 75.67,403 C75.67,403 145.46,403 190.72,403 " fill="none" id="Transfer-Account" style="stroke: #A80036; stroke-width: 1.0;"/><text fill="#000000" font-family="sans-serif" font-size="13" lengthAdjust="spacingAndGlyphs" textLength="20" x="56.6783" y="308.6673">0..*</text><text fill="#000000" font-family="sans-serif" font-size="13" lengthAdjust="spacingAndGlyphs" textLength="7" x="176.109" y="397.2239">1</text><!--MD5=[36563a756307975dce7f8a8b2e0cd6b8]
link Transfer to Account--><path codeLine="58" d="M41.33,287.83 C41.33,341.59 41.33,424 41.33,424 C41.33,424 135.93,424 190.62,424 " fill="none" id="Transfer-Account-1" style="stroke: #A80036; stroke-width: 1.0;"/><text fill="#000000" font-family="sans-serif" font-size="13" lengthAdjust="spacingAndGlyphs" textLength="20" x="17.679" y="308.548">0..*</text><text fill="#000000" font-family="sans-serif" font-size="13" lengthAdjust="spacingAndGlyphs" textLength="7" x="175.9906" y="422.0958">1</text><!--MD5=[46a6c4790507828b8686583c940a361f]
link Customer to Employee--><path codeLine="59" d="M541,315.3 C541,335.76 541,357.19 541,374.75 " fill="none" id="Customer-Employee" style="stroke: #A80036; stroke-width: 1.0;"/><text fill="#000000" font-family="sans-serif" font-size="13" lengthAdjust="spacingAndGlyphs" textLength="20" x="521.6914" y="336.2669">0..*</text><text fill="#000000" font-family="sans-serif" font-size="13" lengthAdjust="spacingAndGlyphs" textLength="7" x="536.4938" y="364.0674">1</text><!--MD5=[7b38b1a03d69635baab249727a051e09]
reverse link Customer to Employee--><path codeLine="67" d="M506,335.3 C506,335.3 506,374.75 506,374.75 " fill="none" id="Customer-backto-Employee" style="stroke: #A80036; stroke-width: 1.0;"/><polygon fill="none" points="499,335.3,506,315.3,513,335.3,499,335.3" style="stroke: #A80036; stroke-width: 1.0;"/><!--MD5=[34597a76d6e7db1b47c381bededa1ac9]
reverse link BaseEntity to Account--><path codeLine="61" d="M401.75,130.08 C401.75,130.08 401.75,403 401.75,403 C401.75,403 317.05,403 266.09,403 " fill="none" id="BaseEntity-backto-Account" style="stroke: #A80036; stroke-width: 1.0;"/><polygon fill="none" points="394.75,130.08,401.75,110.08,408.75,130.08,394.75,130.08" style="stroke: #A80036; stroke-width: 1.0;"/><!--MD5=[ce4d489da85c354997fcd4d08f86025b]
reverse link BaseEntity to Address--><path codeLine="62" d="M317.75,130.24 C317.75,130.24 317.75,169.87 317.75,169.87 " fill="none" id="BaseEntity-backto-Address" style="stroke: #A80036; stroke-width: 1.0;"/><polygon fill="none" points="310.75,130.24,317.75,110.24,324.75,130.24,310.75,130.24" style="stroke: #A80036; stroke-width: 1.0;"/><!--MD5=[bc54b0ba153481f05c659c81931e9d93]
reverse link BaseEntity to Customer--><path codeLine="63" d="M469.74,104 C469.74,104 472.75,104 472.75,104 C472.75,104 472.75,136.23 472.75,169.6 " fill="none" id="BaseEntity-backto-Customer" style="stroke: #A80036; stroke-width: 1.0;"/><polygon fill="none" points="469.74,111,449.74,104,469.74,97,469.74,111" style="stroke: #A80036; stroke-width: 1.0;"/><!--MD5=[45dda3f42d4d0f815ac40b381dac29a1]
reverse link BaseEntity to Session--><path codeLine="64" d="M469.59,72 C469.59,72 484.23,72 484.23,72 " fill="none" id="BaseEntity-backto-Session" style="stroke: #A80036; stroke-width: 1.0;"/><polygon fill="none" points="469.59,79,449.59,72,469.59,65,469.59,79" style="stroke: #A80036; stroke-width: 1.0;"/><!--MD5=[e2ae16b8e847ffaaa3a3445a53b55199]
link BaseEntity to Session--><!--MD5=[74fe72e9d3051d925909632a312fbfe4]
reverse link BaseEntity to Transfer--><path codeLine="65" d="M261.2,59 C261.2,59 58.5,59 58.5,59 C58.5,59 58.5,142.8 58.5,197.14 " fill="none" id="BaseEntity-backto-Transfer" style="stroke: #A80036; stroke-width: 1.0;"/><polygon fill="none" points="261.2,52,281.2,59,261.2,66,261.2,52" style="stroke: #A80036; stroke-width: 1.0;"/><!--MD5=[f2da74dc55a6f6f5cd14ce6e40804464]
link Transfer to Address--><!--MD5=[cd338075d0ce0eacdd1ccf6fd08e0341]
@startuml
skinparam classAttributeIconSize 0
skinparam linetype ortho

' Declare Classes
abstract class BaseEntity{
   - id: long
   - getId(): long
   + equals(object: Object): boolean
   + hashCode(): int
}

class Account{
  - iban: String
}

class Address{
  - street: String
  - houseNr: int
  - zipCode: long
  - city: String
  - country: String
  + getResidents(): List<Customer>
  + addResident(customer: Customer): void
}

class Customer{
  - forename: String
  - surname: String
  - username: String
  - taxNumber: String
  - birthDate: Date
  - passwordHash: String
  - password: String
}

class Employee{
   - designation: String
   - salary: double
}

class Session{
  - uuid: UUID
  - date: Date
}

class Transfer{
  - amount: double
  - date: Date
  - description: String
}


' Declare relationship of classes
Session "0..*" - - "1" Customer
Customer "1" - -* "o..*" Account
Address "1" - "1..*" Customer
Transfer "0..*" - "1" Account
Transfer "0..*" - "1" Account
Customer "0..*" - - "1" Employee

BaseEntity <|- - Account
BaseEntity <|- - Address
BaseEntity <|- - Customer
BaseEntity <|- - Session
BaseEntity <|- - Transfer

Customer <|- - Employee

BaseEntity -[hidden]> Session
Transfer -[hidden]> Address

@enduml

@startuml
skinparam classAttributeIconSize 0
skinparam linetype ortho

abstract class BaseEntity{
   - id: long
   - getId(): long
   + equals(object: Object): boolean
   + hashCode(): int
}

class Account{
  - iban: String
}

class Address{
  - street: String
  - houseNr: int
  - zipCode: long
  - city: String
  - country: String
  + getResidents(): List<Customer>
  + addResident(customer: Customer): void
}

class Customer{
  - forename: String
  - surname: String
  - username: String
  - taxNumber: String
  - birthDate: Date
  - passwordHash: String
  - password: String
}

class Employee{
   - designation: String
   - salary: double
}

class Session{
  - uuid: UUID
  - date: Date
}

class Transfer{
  - amount: double
  - date: Date
  - description: String
}


Session "0..*" - - "1" Customer
Customer "1" - -* "o..*" Account
Address "1" - "1..*" Customer
Transfer "0..*" - "1" Account
Transfer "0..*" - "1" Account
Customer "0..*" - - "1" Employee

BaseEntity <|- - Account
BaseEntity <|- - Address
BaseEntity <|- - Customer
BaseEntity <|- - Session
BaseEntity <|- - Transfer

Customer <|- - Employee

BaseEntity -[hidden]> Session
Transfer -[hidden]> Address

@enduml

PlantUML version 1.2020.19(Mon Oct 12 17:10:01 CEST 2020)
(GPL source distribution)
Java Runtime: Java(TM) SE Runtime Environment
JVM: Java HotSpot(TM) 64-Bit Server VM
Default Encoding: Cp1252
Language: de
Country: DE
--></g></svg>