<?xml version="1.0" encoding="UTF-8" standalone="no"?><svg xmlns="http://www.w3.org/2000/svg" xmlns:xlink="http://www.w3.org/1999/xlink" contentScriptType="application/ecmascript" contentStyleType="text/css" height="736px" preserveAspectRatio="none" style="width:378px;height:736px;" version="1.1" viewBox="0 0 378 736" width="378px" zoomAndPan="magnify"><defs><filter height="300%" id="fout5hgkcrbs5" width="300%" x="-1" y="-1"><feGaussianBlur result="blurOut" stdDeviation="2.0"/><feColorMatrix in="blurOut" result="blurOut2" type="matrix" values="0 0 0 0 0 0 0 0 0 0 0 0 0 0 0 0 0 0 .4 0"/><feOffset dx="4.0" dy="4.0" in="blurOut2" result="blurOut3"/><feBlend in="SourceGraphic" in2="blurOut3" mode="normal"/></filter></defs><g><!--MD5=[7d75efcc7d06b347edea0516f6aac1d8]
class BaseEntity--><rect codeLine="6" fill="#F8F8F8" filter="url(#fout5hgkcrbs5)" height="61.8359" id="BaseEntity" style="stroke: #383838; stroke-width: 1.5;" width="90" x="185.5" y="34.5"/><ellipse cx="200.5" cy="50.5" fill="#CDCDCD" rx="11" ry="11" style="stroke: #383838; stroke-width: 1.0;"/><path d="M202.6875,52.2656 L198.5469,52.2656 L198.125,53.2969 L198.5469,53.2969 Q199.1563,53.2969 199.4219,53.5313 Q199.6875,53.7656 199.6875,54.1563 Q199.6875,54.5313 199.4219,54.7656 Q199.1563,55 198.5469,55 L196.25,55 Q195.6406,55 195.3906,54.7656 Q195.125,54.5313 195.125,54.1406 Q195.125,53.7656 195.4063,53.5313 Q195.6719,53.2813 196.2969,53.2969 L198.9688,46.6406 L197.8594,46.6406 Q197.25,46.6406 196.9844,46.4063 Q196.7188,46.1719 196.7188,45.7813 Q196.7188,45.4063 196.9844,45.1719 Q197.25,44.9375 197.8594,44.9375 L201.5313,44.9375 L204.9219,53.2969 Q205.5156,53.2969 205.7031,53.4375 Q206.0938,53.7031 206.0938,54.1563 Q206.0938,54.5313 205.8281,54.7656 Q205.5781,55 204.9688,55 L202.6719,55 Q202.0625,55 201.7969,54.7656 Q201.5313,54.5313 201.5313,54.1406 Q201.5313,53.7656 201.7969,53.5313 Q202.0625,53.2969 202.6719,53.2969 L203.0938,53.2969 L202.6875,52.2656 Z M201.9688,50.5625 L200.6094,47.1875 L199.2344,50.5625 L201.9688,50.5625 Z "/><text fill="#000000" font-family="sans-serif" font-size="12" font-style="italic" lengthAdjust="spacingAndGlyphs" textLength="58" x="214.5" y="55.4102">BaseEntity</text><line style="stroke: #383838; stroke-width: 1.5;" x1="186.5" x2="274.5" y1="66.5" y2="66.5"/><text fill="#000000" font-family="sans-serif" font-size="11" lengthAdjust="spacingAndGlyphs" textLength="38" x="191.5" y="81.9189">-id: long</text><line style="stroke: #383838; stroke-width: 1.5;" x1="186.5" x2="274.5" y1="88.3359" y2="88.3359"/><!--MD5=[f9a29335b499db729be669fd1bd54958]
class Account--><rect codeLine="13" fill="#F8F8F8" filter="url(#fout5hgkcrbs5)" height="75.6719" id="Account" style="stroke: #383838; stroke-width: 1.5;" width="80" x="261.5" y="647"/><ellipse cx="278.75" cy="663" fill="#C2C2C2" rx="11" ry="11" style="stroke: #383838; stroke-width: 1.0;"/><path d="M281.5156,658.875 Q281.6719,658.6563 281.8594,658.5469 Q282.0469,658.4375 282.2656,658.4375 Q282.6406,658.4375 282.875,658.7031 Q283.1094,658.9531 283.1094,659.5625 L283.1094,661.0156 Q283.1094,661.625 282.875,661.8906 Q282.6406,662.1563 282.2656,662.1563 Q281.9219,662.1563 281.7188,661.9531 Q281.5156,661.7656 281.4063,661.25 Q281.3594,660.8906 281.1719,660.7031 Q280.8438,660.3281 280.2344,660.1094 Q279.625,659.8906 279,659.8906 Q278.2344,659.8906 277.5938,660.2188 Q276.9688,660.5469 276.4688,661.2969 Q275.9844,662.0469 275.9844,663.0781 L275.9844,664.1719 Q275.9844,665.4063 276.875,666.2344 Q277.7656,667.0469 279.3594,667.0469 Q280.2969,667.0469 280.9531,666.7969 Q281.3438,666.6406 281.7656,666.2031 Q282.0313,665.9375 282.1719,665.8594 Q282.3281,665.7813 282.5313,665.7813 Q282.8594,665.7813 283.1094,666.0469 Q283.375,666.2969 283.375,666.6406 Q283.375,666.9844 283.0313,667.3906 Q282.5313,667.9688 281.7344,668.2969 Q280.6563,668.75 279.3594,668.75 Q277.8438,668.75 276.6406,668.125 Q275.6563,667.625 274.9688,666.5625 Q274.2813,665.4844 274.2813,664.2031 L274.2813,663.0469 Q274.2813,661.7188 274.8906,660.5781 Q275.5156,659.4219 276.6094,658.8125 Q277.7031,658.1875 278.9375,658.1875 Q279.6719,658.1875 280.3125,658.3594 Q280.9688,658.5156 281.5156,658.875 Z "/><text fill="#000000" font-family="sans-serif" font-size="12" lengthAdjust="spacingAndGlyphs" textLength="43" x="293.25" y="667.9102">Account</text><line style="stroke: #383838; stroke-width: 1.5;" x1="262.5" x2="340.5" y1="679" y2="679"/><text fill="#000000" font-family="sans-serif" font-size="11" lengthAdjust="spacingAndGlyphs" textLength="58" x="267.5" y="694.4189">-iban: String</text><text fill="#000000" font-family="sans-serif" font-size="11" lengthAdjust="spacingAndGlyphs" textLength="68" x="267.5" y="708.2549">-balance: long</text><line style="stroke: #383838; stroke-width: 1.5;" x1="262.5" x2="340.5" y1="714.6719" y2="714.6719"/><!--MD5=[0f39e4cb6f03951afbf6d14bd2505654]
class Address--><rect codeLine="18" fill="#F8F8F8" filter="url(#fout5hgkcrbs5)" height="117.1797" id="Address" style="stroke: #383838; stroke-width: 1.5;" width="87" x="7" y="7"/><ellipse cx="26.05" cy="23" fill="#C2C2C2" rx="11" ry="11" style="stroke: #383838; stroke-width: 1.0;"/><path d="M28.8156,18.875 Q28.9719,18.6563 29.1594,18.5469 Q29.3469,18.4375 29.5656,18.4375 Q29.9406,18.4375 30.175,18.7031 Q30.4094,18.9531 30.4094,19.5625 L30.4094,21.0156 Q30.4094,21.625 30.175,21.8906 Q29.9406,22.1563 29.5656,22.1563 Q29.2219,22.1563 29.0188,21.9531 Q28.8156,21.7656 28.7063,21.25 Q28.6594,20.8906 28.4719,20.7031 Q28.1438,20.3281 27.5344,20.1094 Q26.925,19.8906 26.3,19.8906 Q25.5344,19.8906 24.8938,20.2188 Q24.2688,20.5469 23.7688,21.2969 Q23.2844,22.0469 23.2844,23.0781 L23.2844,24.1719 Q23.2844,25.4063 24.175,26.2344 Q25.0656,27.0469 26.6594,27.0469 Q27.5969,27.0469 28.2531,26.7969 Q28.6438,26.6406 29.0656,26.2031 Q29.3313,25.9375 29.4719,25.8594 Q29.6281,25.7813 29.8313,25.7813 Q30.1594,25.7813 30.4094,26.0469 Q30.675,26.2969 30.675,26.6406 Q30.675,26.9844 30.3313,27.3906 Q29.8313,27.9688 29.0344,28.2969 Q27.9563,28.75 26.6594,28.75 Q25.1438,28.75 23.9406,28.125 Q22.9563,27.625 22.2688,26.5625 Q21.5813,25.4844 21.5813,24.2031 L21.5813,23.0469 Q21.5813,21.7188 22.1906,20.5781 Q22.8156,19.4219 23.9094,18.8125 Q25.0031,18.1875 26.2375,18.1875 Q26.9719,18.1875 27.6125,18.3594 Q28.2688,18.5156 28.8156,18.875 Z "/><text fill="#000000" font-family="sans-serif" font-size="12" lengthAdjust="spacingAndGlyphs" textLength="46" x="40.95" y="27.9102">Address</text><line style="stroke: #383838; stroke-width: 1.5;" x1="8" x2="93" y1="39" y2="39"/><text fill="#000000" font-family="sans-serif" font-size="11" lengthAdjust="spacingAndGlyphs" textLength="66" x="13" y="54.4189">-street: String</text><text fill="#000000" font-family="sans-serif" font-size="11" lengthAdjust="spacingAndGlyphs" textLength="62" x="13" y="68.2549">-houseNr: int</text><text fill="#000000" font-family="sans-serif" font-size="11" lengthAdjust="spacingAndGlyphs" textLength="69" x="13" y="82.0908">-zipCode: long</text><text fill="#000000" font-family="sans-serif" font-size="11" lengthAdjust="spacingAndGlyphs" textLength="55" x="13" y="95.9268">-city: String</text><text fill="#000000" font-family="sans-serif" font-size="11" lengthAdjust="spacingAndGlyphs" textLength="75" x="13" y="109.7627">-country: String</text><line style="stroke: #383838; stroke-width: 1.5;" x1="8" x2="93" y1="116.1797" y2="116.1797"/><!--MD5=[2ce0c9fb7f55b1e256ab28a8ea6b25ec]
class Customer--><rect codeLine="28" fill="#F8F8F8" filter="url(#fout5hgkcrbs5)" height="144.8516" id="Customer" style="stroke: #383838; stroke-width: 1.5;" width="125" x="63" y="381"/><ellipse cx="95.1" cy="397" fill="#C2C2C2" rx="11" ry="11" style="stroke: #383838; stroke-width: 1.0;"/><path d="M97.8656,392.875 Q98.0219,392.6563 98.2094,392.5469 Q98.3969,392.4375 98.6156,392.4375 Q98.9906,392.4375 99.225,392.7031 Q99.4594,392.9531 99.4594,393.5625 L99.4594,395.0156 Q99.4594,395.625 99.225,395.8906 Q98.9906,396.1563 98.6156,396.1563 Q98.2719,396.1563 98.0688,395.9531 Q97.8656,395.7656 97.7563,395.25 Q97.7094,394.8906 97.5219,394.7031 Q97.1938,394.3281 96.5844,394.1094 Q95.975,393.8906 95.35,393.8906 Q94.5844,393.8906 93.9438,394.2188 Q93.3188,394.5469 92.8188,395.2969 Q92.3344,396.0469 92.3344,397.0781 L92.3344,398.1719 Q92.3344,399.4063 93.225,400.2344 Q94.1156,401.0469 95.7094,401.0469 Q96.6469,401.0469 97.3031,400.7969 Q97.6938,400.6406 98.1156,400.2031 Q98.3813,399.9375 98.5219,399.8594 Q98.6781,399.7813 98.8813,399.7813 Q99.2094,399.7813 99.4594,400.0469 Q99.725,400.2969 99.725,400.6406 Q99.725,400.9844 99.3813,401.3906 Q98.8813,401.9688 98.0844,402.2969 Q97.0063,402.75 95.7094,402.75 Q94.1938,402.75 92.9906,402.125 Q92.0063,401.625 91.3188,400.5625 Q90.6313,399.4844 90.6313,398.2031 L90.6313,397.0469 Q90.6313,395.7188 91.2406,394.5781 Q91.8656,393.4219 92.9594,392.8125 Q94.0531,392.1875 95.2875,392.1875 Q96.0219,392.1875 96.6625,392.3594 Q97.3188,392.5156 97.8656,392.875 Z "/><text fill="#000000" font-family="sans-serif" font-size="12" lengthAdjust="spacingAndGlyphs" textLength="55" x="112.9" y="401.9102">Customer</text><line style="stroke: #383838; stroke-width: 1.5;" x1="64" x2="187" y1="413" y2="413"/><text fill="#000000" font-family="sans-serif" font-size="11" lengthAdjust="spacingAndGlyphs" textLength="84" x="69" y="428.4189">-forename: String</text><text fill="#000000" font-family="sans-serif" font-size="11" lengthAdjust="spacingAndGlyphs" textLength="80" x="69" y="442.2549">-surname: String</text><text fill="#000000" font-family="sans-serif" font-size="11" lengthAdjust="spacingAndGlyphs" textLength="86" x="69" y="456.0908">-username: String</text><text fill="#000000" font-family="sans-serif" font-size="11" lengthAdjust="spacingAndGlyphs" textLength="90" x="69" y="469.9268">-taxNumber: String</text><text fill="#000000" font-family="sans-serif" font-size="11" lengthAdjust="spacingAndGlyphs" textLength="75" x="69" y="483.7627">-birthDate: Date</text><text fill="#000000" font-family="sans-serif" font-size="11" lengthAdjust="spacingAndGlyphs" textLength="113" x="69" y="497.5986">-passwordHash: String</text><text fill="#000000" font-family="sans-serif" font-size="11" lengthAdjust="spacingAndGlyphs" textLength="88" x="69" y="511.4346">-password: String</text><line style="stroke: #383838; stroke-width: 1.5;" x1="64" x2="187" y1="517.8516" y2="517.8516"/><!--MD5=[7421f545a0d8420c5bec41e74b387d9c]
class Employee--><rect codeLine="38" fill="#F8F8F8" filter="url(#fout5hgkcrbs5)" height="75.6719" id="Employee" style="stroke: #383838; stroke-width: 1.5;" width="105" x="73" y="647"/><ellipse cx="96.1" cy="663" fill="#C2C2C2" rx="11" ry="11" style="stroke: #383838; stroke-width: 1.0;"/><path d="M98.8656,658.875 Q99.0219,658.6563 99.2094,658.5469 Q99.3969,658.4375 99.6156,658.4375 Q99.9906,658.4375 100.225,658.7031 Q100.4594,658.9531 100.4594,659.5625 L100.4594,661.0156 Q100.4594,661.625 100.225,661.8906 Q99.9906,662.1563 99.6156,662.1563 Q99.2719,662.1563 99.0688,661.9531 Q98.8656,661.7656 98.7563,661.25 Q98.7094,660.8906 98.5219,660.7031 Q98.1938,660.3281 97.5844,660.1094 Q96.975,659.8906 96.35,659.8906 Q95.5844,659.8906 94.9438,660.2188 Q94.3188,660.5469 93.8188,661.2969 Q93.3344,662.0469 93.3344,663.0781 L93.3344,664.1719 Q93.3344,665.4063 94.225,666.2344 Q95.1156,667.0469 96.7094,667.0469 Q97.6469,667.0469 98.3031,666.7969 Q98.6938,666.6406 99.1156,666.2031 Q99.3813,665.9375 99.5219,665.8594 Q99.6781,665.7813 99.8813,665.7813 Q100.2094,665.7813 100.4594,666.0469 Q100.725,666.2969 100.725,666.6406 Q100.725,666.9844 100.3813,667.3906 Q99.8813,667.9688 99.0844,668.2969 Q98.0063,668.75 96.7094,668.75 Q95.1938,668.75 93.9906,668.125 Q93.0063,667.625 92.3188,666.5625 Q91.6313,665.4844 91.6313,664.2031 L91.6313,663.0469 Q91.6313,661.7188 92.2406,660.5781 Q92.8656,659.4219 93.9594,658.8125 Q95.0531,658.1875 96.2875,658.1875 Q97.0219,658.1875 97.6625,658.3594 Q98.3188,658.5156 98.8656,658.875 Z "/><text fill="#000000" font-family="sans-serif" font-size="12" lengthAdjust="spacingAndGlyphs" textLength="55" x="111.9" y="667.9102">Employee</text><line style="stroke: #383838; stroke-width: 1.5;" x1="74" x2="177" y1="679" y2="679"/><text fill="#000000" font-family="sans-serif" font-size="11" lengthAdjust="spacingAndGlyphs" textLength="93" x="79" y="694.4189">-designation: String</text><text fill="#000000" font-family="sans-serif" font-size="11" lengthAdjust="spacingAndGlyphs" textLength="60" x="79" y="708.2549">-salary: long</text><line style="stroke: #383838; stroke-width: 1.5;" x1="74" x2="177" y1="714.6719" y2="714.6719"/><!--MD5=[2ca1536628238a7dc78c5d90808014f9]
class Session--><rect codeLine="43" fill="#F8F8F8" filter="url(#fout5hgkcrbs5)" height="75.6719" id="Session" style="stroke: #383838; stroke-width: 1.5;" width="78" x="191.5" y="184"/><ellipse cx="206.5" cy="200" fill="#C2C2C2" rx="11" ry="11" style="stroke: #383838; stroke-width: 1.0;"/><path d="M209.2656,195.875 Q209.4219,195.6563 209.6094,195.5469 Q209.7969,195.4375 210.0156,195.4375 Q210.3906,195.4375 210.625,195.7031 Q210.8594,195.9531 210.8594,196.5625 L210.8594,198.0156 Q210.8594,198.625 210.625,198.8906 Q210.3906,199.1563 210.0156,199.1563 Q209.6719,199.1563 209.4688,198.9531 Q209.2656,198.7656 209.1563,198.25 Q209.1094,197.8906 208.9219,197.7031 Q208.5938,197.3281 207.9844,197.1094 Q207.375,196.8906 206.75,196.8906 Q205.9844,196.8906 205.3438,197.2188 Q204.7188,197.5469 204.2188,198.2969 Q203.7344,199.0469 203.7344,200.0781 L203.7344,201.1719 Q203.7344,202.4063 204.625,203.2344 Q205.5156,204.0469 207.1094,204.0469 Q208.0469,204.0469 208.7031,203.7969 Q209.0938,203.6406 209.5156,203.2031 Q209.7813,202.9375 209.9219,202.8594 Q210.0781,202.7813 210.2813,202.7813 Q210.6094,202.7813 210.8594,203.0469 Q211.125,203.2969 211.125,203.6406 Q211.125,203.9844 210.7813,204.3906 Q210.2813,204.9688 209.4844,205.2969 Q208.4063,205.75 207.1094,205.75 Q205.5938,205.75 204.3906,205.125 Q203.4063,204.625 202.7188,203.5625 Q202.0313,202.4844 202.0313,201.2031 L202.0313,200.0469 Q202.0313,198.7188 202.6406,197.5781 Q203.2656,196.4219 204.3594,195.8125 Q205.4531,195.1875 206.6875,195.1875 Q207.4219,195.1875 208.0625,195.3594 Q208.7188,195.5156 209.2656,195.875 Z "/><text fill="#000000" font-family="sans-serif" font-size="12" lengthAdjust="spacingAndGlyphs" textLength="46" x="220.5" y="204.9102">Session</text><line style="stroke: #383838; stroke-width: 1.5;" x1="192.5" x2="268.5" y1="216" y2="216"/><text fill="#000000" font-family="sans-serif" font-size="11" lengthAdjust="spacingAndGlyphs" textLength="53" x="197.5" y="231.4189">-uuid: UUID</text><text fill="#000000" font-family="sans-serif" font-size="11" lengthAdjust="spacingAndGlyphs" textLength="53" x="197.5" y="245.2549">-date: Date</text><line style="stroke: #383838; stroke-width: 1.5;" x1="192.5" x2="268.5" y1="251.6719" y2="251.6719"/><!--MD5=[02f52dd76b6d93c484e98adf8cb1a92d]
class Transfer--><rect codeLine="48" fill="#F8F8F8" filter="url(#fout5hgkcrbs5)" height="89.5078" id="Transfer" style="stroke: #383838; stroke-width: 1.5;" width="103" x="250" y="408.5"/><ellipse cx="276.25" cy="424.5" fill="#C2C2C2" rx="11" ry="11" style="stroke: #383838; stroke-width: 1.0;"/><path d="M279.0156,420.375 Q279.1719,420.1563 279.3594,420.0469 Q279.5469,419.9375 279.7656,419.9375 Q280.1406,419.9375 280.375,420.2031 Q280.6094,420.4531 280.6094,421.0625 L280.6094,422.5156 Q280.6094,423.125 280.375,423.3906 Q280.1406,423.6563 279.7656,423.6563 Q279.4219,423.6563 279.2188,423.4531 Q279.0156,423.2656 278.9063,422.75 Q278.8594,422.3906 278.6719,422.2031 Q278.3438,421.8281 277.7344,421.6094 Q277.125,421.3906 276.5,421.3906 Q275.7344,421.3906 275.0938,421.7188 Q274.4688,422.0469 273.9688,422.7969 Q273.4844,423.5469 273.4844,424.5781 L273.4844,425.6719 Q273.4844,426.9063 274.375,427.7344 Q275.2656,428.5469 276.8594,428.5469 Q277.7969,428.5469 278.4531,428.2969 Q278.8438,428.1406 279.2656,427.7031 Q279.5313,427.4375 279.6719,427.3594 Q279.8281,427.2813 280.0313,427.2813 Q280.3594,427.2813 280.6094,427.5469 Q280.875,427.7969 280.875,428.1406 Q280.875,428.4844 280.5313,428.8906 Q280.0313,429.4688 279.2344,429.7969 Q278.1563,430.25 276.8594,430.25 Q275.3438,430.25 274.1406,429.625 Q273.1563,429.125 272.4688,428.0625 Q271.7813,426.9844 271.7813,425.7031 L271.7813,424.5469 Q271.7813,423.2188 272.3906,422.0781 Q273.0156,420.9219 274.1094,420.3125 Q275.2031,419.6875 276.4375,419.6875 Q277.1719,419.6875 277.8125,419.8594 Q278.4688,420.0156 279.0156,420.375 Z "/><text fill="#000000" font-family="sans-serif" font-size="12" lengthAdjust="spacingAndGlyphs" textLength="46" x="292.75" y="429.4102">Transfer</text><line style="stroke: #383838; stroke-width: 1.5;" x1="251" x2="352" y1="440.5" y2="440.5"/><text fill="#000000" font-family="sans-serif" font-size="11" lengthAdjust="spacingAndGlyphs" textLength="65" x="256" y="455.9189">-amount: long</text><text fill="#000000" font-family="sans-serif" font-size="11" lengthAdjust="spacingAndGlyphs" textLength="53" x="256" y="469.7549">-date: Date</text><text fill="#000000" font-family="sans-serif" font-size="11" lengthAdjust="spacingAndGlyphs" textLength="91" x="256" y="483.5908">-description: String</text><line style="stroke: #383838; stroke-width: 1.5;" x1="251" x2="352" y1="490.0078" y2="490.0078"/><!--MD5=[34597a76d6e7db1b47c381bededa1ac9]
reverse link BaseEntity to Account--><path codeLine="54" d="M295.73,56 C295.73,56 371,56 371,56 C371,56 371,685 371,685 C371,685 356.98,685 341.53,685 " fill="none" id="BaseEntity-backto-Account" style="stroke: #383838; stroke-width: 1.0;"/><polygon fill="none" points="295.73,63,275.73,56,295.73,49,295.73,63" style="stroke: #383838; stroke-width: 1.0;"/><!--MD5=[a193f2b6216a9b29f7898677dfbb170d]
link Address to BaseEntity--><path codeLine="55" d="M94.07,56 C94.07,56 165.45,56 165.45,56 " fill="none" id="Address-to-BaseEntity" style="stroke: #383838; stroke-width: 1.0;"/><polygon fill="none" points="165.45,49,185.45,56,165.45,63,165.45,49" style="stroke: #383838; stroke-width: 1.0;"/><!--MD5=[bc54b0ba153481f05c659c81931e9d93]
reverse link BaseEntity to Customer--><path codeLine="56" d="M165.39,76 C165.39,76 139.75,76 139.75,76 C139.75,76 139.75,271.02 139.75,380.71 " fill="none" id="BaseEntity-backto-Customer" style="stroke: #383838; stroke-width: 1.0;"/><polygon fill="none" points="165.39,69,185.39,76,165.39,83,165.39,69" style="stroke: #383838; stroke-width: 1.0;"/><!--MD5=[45dda3f42d4d0f815ac40b381dac29a1]
reverse link BaseEntity to Session--><path codeLine="57" d="M230.5,116.79 C230.5,116.79 230.5,183.84 230.5,183.84 " fill="none" id="BaseEntity-backto-Session" style="stroke: #383838; stroke-width: 1.0;"/><polygon fill="none" points="223.5,116.79,230.5,96.79,237.5,116.79,223.5,116.79" style="stroke: #383838; stroke-width: 1.0;"/><!--MD5=[74fe72e9d3051d925909632a312fbfe4]
reverse link BaseEntity to Transfer--><path codeLine="58" d="M295.81,76 C295.81,76 314.25,76 314.25,76 C314.25,76 314.25,308.14 314.25,408.34 " fill="none" id="BaseEntity-backto-Transfer" style="stroke: #383838; stroke-width: 1.0;"/><polygon fill="none" points="295.81,83,275.81,76,295.81,69,295.81,83" style="stroke: #383838; stroke-width: 1.0;"/><!--MD5=[b4094daf9f7d590234aa4fa208e27ce7]
link Session to Customer--><path codeLine="61" d="M220.75,260.39 C220.75,311.36 220.75,395 220.75,395 C220.75,395 206.07,395 188.24,395 " fill="none" id="Session-Customer" style="stroke: #383838; stroke-width: 1.0;"/><text fill="#000000" font-family="sans-serif" font-size="13" lengthAdjust="spacingAndGlyphs" textLength="20" x="179.9461" y="281.2631">0..*</text><text fill="#000000" font-family="sans-serif" font-size="13" lengthAdjust="spacingAndGlyphs" textLength="52" x="163.9461" y="297.6146">sessions</text><text fill="#000000" font-family="sans-serif" font-size="13" lengthAdjust="spacingAndGlyphs" textLength="7" x="195.899" y="384.835">1</text><!--MD5=[cc86f912536a41a358bf474feaa8a8fa]
link Customer to Account--><path codeLine="62" d="M183,526.11 C183,594 183,685 183,685 C183,685 248.38,685 248.38,685 " fill="none" id="Customer-to-Account" style="stroke: #383838; stroke-width: 1.0;"/><polygon fill="#383838" points="261.38,685,255.38,681,249.38,685,255.38,689,261.38,685" style="stroke: #383838; stroke-width: 1.0;"/><text fill="#000000" font-family="sans-serif" font-size="13" lengthAdjust="spacingAndGlyphs" textLength="7" x="181.1469" y="547.3121">1</text><text fill="#000000" font-family="sans-serif" font-size="13" lengthAdjust="spacingAndGlyphs" textLength="53" x="200.6771" y="664.7047">accounts</text><text fill="#000000" font-family="sans-serif" font-size="13" lengthAdjust="spacingAndGlyphs" textLength="20" x="217.1771" y="681.0563">0..*</text><!--MD5=[8b6ec0a2a166b0af4960f5d0cb8a9ecc]
link Address to Customer--><path codeLine="63" d="M83.67,124.01 C83.67,192.7 83.67,306.68 83.67,380.94 " fill="none" id="Address-Customer" style="stroke: #383838; stroke-width: 1.0;"/><text fill="#000000" font-family="sans-serif" font-size="13" lengthAdjust="spacingAndGlyphs" textLength="7" x="58.2823" y="145.6833">1</text><text fill="#000000" font-family="sans-serif" font-size="13" lengthAdjust="spacingAndGlyphs" textLength="46" x="38.7823" y="162.0348">address</text><text fill="#000000" font-family="sans-serif" font-size="13" lengthAdjust="spacingAndGlyphs" textLength="53" x="23.9438" y="353.7594">residents</text><text fill="#000000" font-family="sans-serif" font-size="13" lengthAdjust="spacingAndGlyphs" textLength="20" x="40.4438" y="370.111">1..*</text><!--MD5=[8b6ec0a2a166b0af4960f5d0cb8a9ecc]
link Address to Customer--><!--MD5=[36563a756307975dce7f8a8b2e0cd6b8]
link Transfer to Account--><path codeLine="64" d="M314.83,498.69 C314.83,541.84 314.83,606.17 314.83,646.83 " fill="none" id="Transfer-Account" style="stroke: #383838; stroke-width: 1.0;"/><text fill="#000000" font-family="sans-serif" font-size="13" lengthAdjust="spacingAndGlyphs" textLength="20" x="295.2775" y="519.3892">0..*</text><text fill="#000000" font-family="sans-serif" font-size="13" lengthAdjust="spacingAndGlyphs" textLength="32" x="282.4045" y="619.774">payer</text><text fill="#000000" font-family="sans-serif" font-size="13" lengthAdjust="spacingAndGlyphs" textLength="7" x="294.9045" y="636.1255">1</text><!--MD5=[36563a756307975dce7f8a8b2e0cd6b8]
link Transfer to Account--><path codeLine="65" d="M288.17,498.69 C288.17,541.84 288.17,606.17 288.17,646.83 " fill="none" id="Transfer-Account-1" style="stroke: #383838; stroke-width: 1.0;"/><text fill="#000000" font-family="sans-serif" font-size="13" lengthAdjust="spacingAndGlyphs" textLength="20" x="265.035" y="519.3892">0..*</text><text fill="#000000" font-family="sans-serif" font-size="13" lengthAdjust="spacingAndGlyphs" textLength="44" x="238.5393" y="619.774">receiver</text><text fill="#000000" font-family="sans-serif" font-size="13" lengthAdjust="spacingAndGlyphs" textLength="7" x="257.0393" y="636.1255">1</text><!--MD5=[46a6c4790507828b8686583c940a361f]
link Customer to Employee--><path codeLine="66" d="M108,526.11 C108,566.16 108,614.24 108,646.95 " fill="none" id="Customer-Employee" style="stroke: #383838; stroke-width: 1.0;"/><text fill="#000000" font-family="sans-serif" font-size="13" lengthAdjust="spacingAndGlyphs" textLength="20" x="63.375" y="547.2566">0..*</text><text fill="#000000" font-family="sans-serif" font-size="13" lengthAdjust="spacingAndGlyphs" textLength="61" x="42.875" y="563.6082">customers</text><text fill="#000000" font-family="sans-serif" font-size="13" lengthAdjust="spacingAndGlyphs" textLength="54" x="46.9078" y="619.9131">attendant</text><text fill="#000000" font-family="sans-serif" font-size="13" lengthAdjust="spacingAndGlyphs" textLength="7" x="70.4078" y="636.2646">1</text><!--MD5=[7b38b1a03d69635baab249727a051e09]
reverse link Customer to Employee--><path codeLine="69" d="M143,546.11 C143,546.11 143,646.95 143,646.95 " fill="none" id="Customer-backto-Employee" style="stroke: #383838; stroke-width: 1.0;"/><polygon fill="none" points="136,546.11,143,526.11,150,546.11,136,546.11" style="stroke: #383838; stroke-width: 1.0;"/><!--MD5=[c4caedc4af74a75eb2e51ca4f759d674]
@startuml
skinparam classAttributeIconSize 0
skinparam linetype ortho
skinparam monochrome true

' Declare Classes
abstract class BaseEntity{
   - id: long
   '- getId(): long
   '+ equals(object: Object): boolean
   '+ hashCode(): int
}

class Account{
  - iban: String
  - balance: long
}

class Address{
  - street: String
  - houseNr: int
  - zipCode: long
  - city: String
  - country: String
  '+ getResidents(): List<Customer>
  '+ addResident(customer: Customer): void
}

class Customer{
  - forename: String
  - surname: String
  - username: String
  - taxNumber: String
  - birthDate: Date
  - passwordHash: String
  - password: String
}

class Employee{
   - designation: String
   - salary: long
}

class Session{
  - uuid: UUID
  - date: Date
}

class Transfer{
  - amount: long
  - date: Date
  - description: String
}

BaseEntity <|- - Account
BaseEntity <|-left- Address
BaseEntity <|- - Customer
BaseEntity <|- - Session
BaseEntity <|- - Transfer

' Declare relationship of classes
Session "0..*\nsessions" - - - "1" Customer
Customer "1" - - -* "accounts\n0..*" Account
Address "1\naddress" - - - "residents\n1..*" Customer
Transfer "0..*" - - - "payer\n1" Account
Transfer "0..*" - - - "receiver\n1" Account
Customer "0..*\ncustomers" - - - "attendant\n1" Employee


Customer <|- - Employee

Address -[hidden]-> Customer
'Session -[hidden]> Transfer
'Transfer -[hidden]> Account

@enduml

@startuml
skinparam classAttributeIconSize 0
skinparam linetype ortho
skinparam monochrome true

abstract class BaseEntity{
   - id: long
}

class Account{
  - iban: String
  - balance: long
}

class Address{
  - street: String
  - houseNr: int
  - zipCode: long
  - city: String
  - country: String
}

class Customer{
  - forename: String
  - surname: String
  - username: String
  - taxNumber: String
  - birthDate: Date
  - passwordHash: String
  - password: String
}

class Employee{
   - designation: String
   - salary: long
}

class Session{
  - uuid: UUID
  - date: Date
}

class Transfer{
  - amount: long
  - date: Date
  - description: String
}

BaseEntity <|- - Account
BaseEntity <|-left- Address
BaseEntity <|- - Customer
BaseEntity <|- - Session
BaseEntity <|- - Transfer

Session "0..*\nsessions" - - - "1" Customer
Customer "1" - - -* "accounts\n0..*" Account
Address "1\naddress" - - - "residents\n1..*" Customer
Transfer "0..*" - - - "payer\n1" Account
Transfer "0..*" - - - "receiver\n1" Account
Customer "0..*\ncustomers" - - - "attendant\n1" Employee


Customer <|- - Employee

Address -[hidden]-> Customer

@enduml

PlantUML version 1.2020.19(Mon Oct 12 17:10:01 CEST 2020)
(GPL source distribution)
Java Runtime: Java(TM) SE Runtime Environment
JVM: Java HotSpot(TM) 64-Bit Server VM
Default Encoding: Cp1252
Language: de
Country: DE
--></g></svg>