<?xml version="1.0" encoding="UTF-8" standalone="no"?><svg xmlns="http://www.w3.org/2000/svg" xmlns:xlink="http://www.w3.org/1999/xlink" contentScriptType="application/ecmascript" contentStyleType="text/css" height="668px" preserveAspectRatio="none" style="width:1000px;height:668px;" version="1.1" viewBox="0 0 1000 668" width="1000px" zoomAndPan="magnify"><defs><filter height="300%" id="f14wt4plcbm5f4" width="300%" x="-1" y="-1"><feGaussianBlur result="blurOut" stdDeviation="2.0"/><feColorMatrix in="blurOut" result="blurOut2" type="matrix" values="0 0 0 0 0 0 0 0 0 0 0 0 0 0 0 0 0 0 .4 0"/><feOffset dx="4.0" dy="4.0" in="blurOut2" result="blurOut3"/><feBlend in="SourceGraphic" in2="blurOut3" mode="normal"/></filter></defs><g><!--MD5=[3dcf69e4e87a10af00fce8354034ba4c]
cluster presentation--><polygon fill="#FFFFFF" filter="url(#f14wt4plcbm5f4)" points="493.5,6,589.5,6,596.5,29.6094,755.5,29.6094,755.5,122,493.5,122,493.5,6" style="stroke: #000000; stroke-width: 1.5;"/><line style="stroke: #000000; stroke-width: 1.5;" x1="493.5" x2="596.5" y1="29.6094" y2="29.6094"/><text fill="#000000" font-family="sans-serif" font-size="14" font-weight="bold" lengthAdjust="spacingAndGlyphs" textLength="90" x="497.5" y="22.5332">Presentation</text><!--MD5=[cbbcdfd2ff286cf453505908e439d9c0]
cluster logic--><polygon fill="#FFFFFF" filter="url(#f14wt4plcbm5f4)" points="205.5,162,249.5,162,256.5,185.6094,755.5,185.6094,755.5,409,205.5,409,205.5,162" style="stroke: #000000; stroke-width: 1.5;"/><line style="stroke: #000000; stroke-width: 1.5;" x1="205.5" x2="256.5" y1="185.6094" y2="185.6094"/><text fill="#000000" font-family="sans-serif" font-size="14" font-weight="bold" lengthAdjust="spacingAndGlyphs" textLength="38" x="209.5" y="178.5332">Logic</text><!--MD5=[0334151241c2df87d13997940bbf650c]
cluster persistence--><polygon fill="#FFFFFF" filter="url(#f14wt4plcbm5f4)" points="164.5,449,254.5,449,261.5,472.6094,977.5,472.6094,977.5,661,164.5,661,164.5,449" style="stroke: #000000; stroke-width: 1.5;"/><line style="stroke: #000000; stroke-width: 1.5;" x1="164.5" x2="261.5" y1="472.6094" y2="472.6094"/><text fill="#000000" font-family="sans-serif" font-size="14" font-weight="bold" lengthAdjust="spacingAndGlyphs" textLength="84" x="168.5" y="465.5332">Persistence</text><!--MD5=[96f7e1299d4a43069e6ed32352fcac20]
entity HTTP--><ellipse cx="526.5" cy="74" fill="#F8F8F8" filter="url(#f14wt4plcbm5f4)" rx="8" ry="8" style="stroke: #383838; stroke-width: 1.5;"/><text fill="#000000" font-family="sans-serif" font-size="14" lengthAdjust="spacingAndGlyphs" textLength="36" x="508.5" y="105.5332">HTTP</text><!--MD5=[5f72b1e1b6bcd2ac922e89c6c0b5c71b]
entity Web Application--><rect fill="#F8F8F8" filter="url(#f14wt4plcbm5f4)" height="47.6094" style="stroke: #383838; stroke-width: 1.5;" width="142" x="570.5" y="50"/><rect fill="#F8F8F8" height="10" style="stroke: #383838; stroke-width: 1.5;" width="15" x="692.5" y="55"/><rect fill="#F8F8F8" height="2" style="stroke: #383838; stroke-width: 1.5;" width="4" x="690.5" y="57"/><rect fill="#F8F8F8" height="2" style="stroke: #383838; stroke-width: 1.5;" width="4" x="690.5" y="61"/><text fill="#000000" font-family="sans-serif" font-size="14" lengthAdjust="spacingAndGlyphs" textLength="102" x="585.5" y="84.5332">Web Application</text><!--MD5=[76d0c25527896f67cb6aa4ccab7e7ab8]
entity CustomerService--><rect fill="#F8F8F8" filter="url(#f14wt4plcbm5f4)" height="47.6094" style="stroke: #383838; stroke-width: 1.5;" width="148" x="402.5" y="337"/><rect fill="#F8F8F8" height="10" style="stroke: #383838; stroke-width: 1.5;" width="15" x="530.5" y="342"/><rect fill="#F8F8F8" height="2" style="stroke: #383838; stroke-width: 1.5;" width="4" x="528.5" y="344"/><rect fill="#F8F8F8" height="2" style="stroke: #383838; stroke-width: 1.5;" width="4" x="528.5" y="348"/><text fill="#000000" font-family="sans-serif" font-size="14" lengthAdjust="spacingAndGlyphs" textLength="108" x="417.5" y="371.5332">CustomerService</text><!--MD5=[5566f6f4b3f002cfd9abc05aa20a8f06]
entity CustomerServiceIF--><ellipse cx="483.5" cy="236" fill="#F8F8F8" filter="url(#f14wt4plcbm5f4)" rx="8" ry="8" style="stroke: #383838; stroke-width: 1.5;"/><text fill="#000000" font-family="sans-serif" font-size="14" lengthAdjust="spacingAndGlyphs" textLength="120" x="423.5" y="267.5332">CustomerServiceIF</text><!--MD5=[ba723757ffde46ba429618d659790656]
entity BankingService--><rect fill="#F8F8F8" filter="url(#f14wt4plcbm5f4)" height="47.6094" style="stroke: #383838; stroke-width: 1.5;" width="138" x="585.5" y="337"/><rect fill="#F8F8F8" height="10" style="stroke: #383838; stroke-width: 1.5;" width="15" x="703.5" y="342"/><rect fill="#F8F8F8" height="2" style="stroke: #383838; stroke-width: 1.5;" width="4" x="701.5" y="344"/><rect fill="#F8F8F8" height="2" style="stroke: #383838; stroke-width: 1.5;" width="4" x="701.5" y="348"/><text fill="#000000" font-family="sans-serif" font-size="14" lengthAdjust="spacingAndGlyphs" textLength="98" x="600.5" y="371.5332">BankingService</text><!--MD5=[74d1d086c912edf19e2fe8e565a7e7ff]
entity BankingServiceIF--><ellipse cx="649.5" cy="236" fill="#F8F8F8" filter="url(#f14wt4plcbm5f4)" rx="8" ry="8" style="stroke: #383838; stroke-width: 1.5;"/><text fill="#000000" font-family="sans-serif" font-size="14" lengthAdjust="spacingAndGlyphs" textLength="110" x="594.5" y="267.5332">BankingServiceIF</text><!--MD5=[e0dbcdd0b6f6a8c0a95380b7bdd4cfaa]
entity SupportService--><rect fill="#F8F8F8" filter="url(#f14wt4plcbm5f4)" height="47.6094" style="stroke: #383838; stroke-width: 1.5;" width="137" x="230" y="337"/><rect fill="#F8F8F8" height="10" style="stroke: #383838; stroke-width: 1.5;" width="15" x="347" y="342"/><rect fill="#F8F8F8" height="2" style="stroke: #383838; stroke-width: 1.5;" width="4" x="345" y="344"/><rect fill="#F8F8F8" height="2" style="stroke: #383838; stroke-width: 1.5;" width="4" x="345" y="348"/><text fill="#000000" font-family="sans-serif" font-size="14" lengthAdjust="spacingAndGlyphs" textLength="97" x="245" y="371.5332">SupportService</text><!--MD5=[a3e93cdb79a1999521bbbf4acc8f9bf6]
entity SupportServiceIF--><ellipse cx="308.5" cy="236" fill="#F8F8F8" filter="url(#f14wt4plcbm5f4)" rx="8" ry="8" style="stroke: #383838; stroke-width: 1.5;"/><text fill="#000000" font-family="sans-serif" font-size="14" lengthAdjust="spacingAndGlyphs" textLength="109" x="254" y="267.5332">SupportServiceIF</text><!--MD5=[e8d73f926623c6a4f73b0854fa679a99]
entity IF2--><ellipse cx="815.5" cy="511" fill="#F8F8F8" filter="url(#f14wt4plcbm5f4)" rx="8" ry="8" style="stroke: #383838; stroke-width: 1.5;"/><!--MD5=[25260a715962a01155005ddcd5495a88]
entity IF3--><ellipse cx="661.5" cy="511" fill="#F8F8F8" filter="url(#f14wt4plcbm5f4)" rx="8" ry="8" style="stroke: #383838; stroke-width: 1.5;"/><!--MD5=[2396bdf90cac695aadc7a209d4e74ed4]
entity IF4--><ellipse cx="473.5" cy="511" fill="#F8F8F8" filter="url(#f14wt4plcbm5f4)" rx="8" ry="8" style="stroke: #383838; stroke-width: 1.5;"/><!--MD5=[9aea221644c2df2b6f73de2b0e108e2e]
entity IF5--><ellipse cx="323.5" cy="511" fill="#F8F8F8" filter="url(#f14wt4plcbm5f4)" rx="8" ry="8" style="stroke: #383838; stroke-width: 1.5;"/><!--MD5=[5cc9ac11a3f0b123b98e0809612ba330]
entity AccountRepository--><rect fill="#F8F8F8" filter="url(#f14wt4plcbm5f4)" height="47.6094" style="stroke: #383838; stroke-width: 1.5;" width="159" x="786" y="589"/><rect fill="#F8F8F8" height="10" style="stroke: #383838; stroke-width: 1.5;" width="15" x="925" y="594"/><rect fill="#F8F8F8" height="2" style="stroke: #383838; stroke-width: 1.5;" width="4" x="923" y="596"/><rect fill="#F8F8F8" height="2" style="stroke: #383838; stroke-width: 1.5;" width="4" x="923" y="600"/><text fill="#000000" font-family="sans-serif" font-size="14" lengthAdjust="spacingAndGlyphs" textLength="119" x="801" y="623.5332">AccountRepository</text><!--MD5=[e7bc3a3fa62c1df21bef3869c0c37950]
entity TransferRepository--><rect fill="#F8F8F8" filter="url(#f14wt4plcbm5f4)" height="47.6094" style="stroke: #383838; stroke-width: 1.5;" width="162" x="588.5" y="589"/><rect fill="#F8F8F8" height="10" style="stroke: #383838; stroke-width: 1.5;" width="15" x="730.5" y="594"/><rect fill="#F8F8F8" height="2" style="stroke: #383838; stroke-width: 1.5;" width="4" x="728.5" y="596"/><rect fill="#F8F8F8" height="2" style="stroke: #383838; stroke-width: 1.5;" width="4" x="728.5" y="600"/><text fill="#000000" font-family="sans-serif" font-size="14" lengthAdjust="spacingAndGlyphs" textLength="122" x="603.5" y="623.5332">TransferRepository</text><!--MD5=[b3990cbb38841f9d8fcdaf5297d6dc08]
entity CustomerRepository--><rect fill="#F8F8F8" filter="url(#f14wt4plcbm5f4)" height="47.6094" style="stroke: #383838; stroke-width: 1.5;" width="169" x="384" y="589"/><rect fill="#F8F8F8" height="10" style="stroke: #383838; stroke-width: 1.5;" width="15" x="533" y="594"/><rect fill="#F8F8F8" height="2" style="stroke: #383838; stroke-width: 1.5;" width="4" x="531" y="596"/><rect fill="#F8F8F8" height="2" style="stroke: #383838; stroke-width: 1.5;" width="4" x="531" y="600"/><text fill="#000000" font-family="sans-serif" font-size="14" lengthAdjust="spacingAndGlyphs" textLength="129" x="399" y="623.5332">CustomerRepository</text><!--MD5=[dba78d1918f1bbe6079f47e9b7a97428]
entity AddressRepository--><rect fill="#F8F8F8" filter="url(#f14wt4plcbm5f4)" height="47.6094" style="stroke: #383838; stroke-width: 1.5;" width="160" x="188.5" y="589"/><rect fill="#F8F8F8" height="10" style="stroke: #383838; stroke-width: 1.5;" width="15" x="328.5" y="594"/><rect fill="#F8F8F8" height="2" style="stroke: #383838; stroke-width: 1.5;" width="4" x="326.5" y="596"/><rect fill="#F8F8F8" height="2" style="stroke: #383838; stroke-width: 1.5;" width="4" x="326.5" y="600"/><text fill="#000000" font-family="sans-serif" font-size="14" lengthAdjust="spacingAndGlyphs" textLength="120" x="203.5" y="623.5332">AddressRepository</text><!--MD5=[4662bc22cd1a5219d3b09b73e91a55ce]
entity paypal--><rect fill="#F8F8F8" filter="url(#f14wt4plcbm5f4)" height="65.2188" style="stroke: #383838; stroke-width: 1.5;" width="133" x="780" y="328.5"/><rect fill="#F8F8F8" height="10" style="stroke: #383838; stroke-width: 1.5;" width="15" x="893" y="333.5"/><rect fill="#F8F8F8" height="2" style="stroke: #383838; stroke-width: 1.5;" width="4" x="891" y="335.5"/><rect fill="#F8F8F8" height="2" style="stroke: #383838; stroke-width: 1.5;" width="4" x="891" y="339.5"/><text fill="#000000" font-family="sans-serif" font-size="14" lengthAdjust="spacingAndGlyphs" textLength="43" x="795" y="363.0332">Paypal</text><text fill="#000000" font-family="sans-serif" font-size="14" lengthAdjust="spacingAndGlyphs" textLength="93" x="795" y="380.6426">(Gorbatschow)</text><!--MD5=[570597a2b6eaab3b76b5cf13edca2979]
entity chat--><rect fill="#F8F8F8" filter="url(#f14wt4plcbm5f4)" height="65.2188" style="stroke: #383838; stroke-width: 1.5;" width="121" x="7" y="203.5"/><rect fill="#F8F8F8" height="10" style="stroke: #383838; stroke-width: 1.5;" width="15" x="108" y="208.5"/><rect fill="#F8F8F8" height="2" style="stroke: #383838; stroke-width: 1.5;" width="4" x="106" y="210.5"/><rect fill="#F8F8F8" height="2" style="stroke: #383838; stroke-width: 1.5;" width="4" x="106" y="214.5"/><text fill="#000000" font-family="sans-serif" font-size="14" lengthAdjust="spacingAndGlyphs" textLength="81" x="22" y="238.0332">Chat Service</text><text fill="#000000" font-family="sans-serif" font-size="14" lengthAdjust="spacingAndGlyphs" textLength="68" x="22" y="255.6426">(Bielmeier)</text><!--MD5=[b694d7f427eaecd8ada97e6c20473c67]
entity IFChat--><ellipse cx="172.5" cy="236" fill="#F8F8F8" filter="url(#f14wt4plcbm5f4)" rx="8" ry="8" style="stroke: #383838; stroke-width: 1.5;"/><!--MD5=[480dcfc32f065996c911a06fe339bbb5]
link chat to IFChat--><path d="M128.2,236 C139.85,236 151.51,236 163.16,236 " fill="none" id="chat-IFChat" style="stroke: #383838; stroke-width: 1.0;"/><!--MD5=[99d0499ea58cdc2f64f8969b709c1dca]
link HTTP to Web Application--><path d="M535.93,74 C547.34,74 558.75,74 570.16,74 " fill="none" id="HTTP-Web Application" style="stroke: #383838; stroke-width: 1.0;"/><!--MD5=[b8c269d75471c9234d9dbe75e9c0858b]
link CustomerServiceIF to CustomerService--><path d="M483.04,245.07 C481.99,263.46 479.4,309.02 477.81,336.94 " fill="none" id="CustomerServiceIF-CustomerService" style="stroke: #383838; stroke-width: 1.0;"/><!--MD5=[73e4159f538ab447a78d5176e3c7b516]
link Web Application to CustomerServiceIF--><path d="M617.68,98.2 C603.59,112 585.43,129.91 569.5,146 C544.33,171.42 515.52,201.43 498.46,219.29 " fill="none" id="Web Application-to-CustomerServiceIF" style="stroke: #383838; stroke-width: 1.0;"/><path d="M499.743,230.2029 A9,9 0 0 0 487.5078 218.5239" fill="none" style="stroke: #383838; stroke-width: 1.5;"/><!--MD5=[000171fd176f7281bbf2624e77c310eb]
reverse link CustomerServiceIF to paypal--><path d="M502,243.97 C519.37,250.47 546.12,260.36 569.5,268.5 C641.12,293.44 723.74,320.51 779.98,338.69 " fill="none" id="CustomerServiceIF-backto-paypal" style="stroke: #383838; stroke-width: 1.0;"/><path d="M492.4127,249.4096 A9,9 0 0 0 498.3517 233.5721" fill="none" style="stroke: #383838; stroke-width: 1.5;"/><!--MD5=[2da2f9c21c05087eb502daaeaaa1e29b]
link BankingServiceIF to BankingService--><path d="M649.83,245.07 C650.58,263.46 652.43,309.02 653.56,336.94 " fill="none" id="BankingServiceIF-BankingService" style="stroke: #383838; stroke-width: 1.0;"/><!--MD5=[59f839ceb75337f8f72ca5552e00e4b2]
reverse link BankingServiceIF to Web Application--><path d="M648.59,216.87 C647.14,187.7 644.27,130.4 642.66,98.27 " fill="none" id="BankingServiceIF-backto-Web Application" style="stroke: #383838; stroke-width: 1.0;"/><path d="M657.3827,223.3727 A9,9 0 0 0 640.4894 224.2186" fill="none" style="stroke: #383838; stroke-width: 1.5;"/><!--MD5=[a2699a85a2209aff875986e60a373f42]
reverse link BankingServiceIF to paypal--><path d="M667.32,248.13 C696.11,266.1 753.85,302.15 796.03,328.49 " fill="none" id="BankingServiceIF-backto-paypal" style="stroke: #383838; stroke-width: 1.0;"/><path d="M656.8813,251.576 A9,9 0 0 0 665.8242 237.219" fill="none" style="stroke: #383838; stroke-width: 1.5;"/><!--MD5=[880938a235d0da089e04b7aa2937496c]
link SupportServiceIF to SupportService--><path d="M307.84,245.07 C306.35,263.46 302.64,309.02 300.38,336.94 " fill="none" id="SupportServiceIF-SupportService" style="stroke: #383838; stroke-width: 1.0;"/><!--MD5=[46f0b5ed647fb037920e20fa160e829c]
link Web Application to SupportServiceIF--><path d="M617.15,98.31 C600.61,112.56 577.44,129.63 553.5,138 C520.94,149.39 430.05,132.07 398.5,146 C363.3,161.54 334.15,197.45 319.24,218.6 " fill="none" id="Web Application-to-SupportServiceIF" style="stroke: #383838; stroke-width: 1.0;"/><path d="M322.3019,229.1301 A9,9 0 0 0 308.3257 219.603" fill="none" style="stroke: #383838; stroke-width: 1.5;"/><!--MD5=[2d294987f1ef3cadfdd575fb01430f22]
reverse link IFChat to SupportService--><path d="M188.17,252.3 C209.94,273.55 249.51,312.18 274.87,336.94 " fill="none" id="IFChat-backto-SupportService" style="stroke: #383838; stroke-width: 1.0;"/><path d="M177.0656,253.2723 A9,9 0 0 0 188.8801 241.1679" fill="none" style="stroke: #383838; stroke-width: 1.5;"/><!--MD5=[fc68055896bfddcdcad2a1f1b59e7010]
link IF2 to AccountRepository--><path d="M819.59,520.18 C827.01,535.02 842.92,566.84 853.92,588.83 " fill="none" id="IF2-AccountRepository" style="stroke: #383838; stroke-width: 1.0;"/><!--MD5=[cc158b8c26f6f1d4f86a5c7769849562]
link BankingService to IF2--><path d="M679.66,385.12 C712.98,415.76 770.83,468.94 799.06,494.89 " fill="none" id="BankingService-to-IF2" style="stroke: #383838; stroke-width: 1.0;"/><path d="M809.9624,493.4227 A9,9 0 0 0 798.5078 505.8682" fill="none" style="stroke: #383838; stroke-width: 1.5;"/><!--MD5=[fc44de56ffcc237b2cdfd17bb1168158]
link IF3 to TransferRepository--><path d="M662.15,520.18 C663.34,535.02 665.89,566.84 667.65,588.83 " fill="none" id="IF3-TransferRepository" style="stroke: #383838; stroke-width: 1.0;"/><!--MD5=[accaeb773c120abe7ae03c01d5cf2479]
link BankingService to IF3--><path d="M655.59,385.12 C656.98,414.44 659.34,464.41 660.62,491.4 " fill="none" id="BankingService-to-IF3" style="stroke: #383838; stroke-width: 1.0;"/><path d="M669.4127,498.2564 A9,9 0 0 0 652.517 499.0541" fill="none" style="stroke: #383838; stroke-width: 1.5;"/><!--MD5=[b3a337f14674d60cd4507df9af8dfb9d]
link IF4 to CustomerRepository--><path d="M473.09,520.18 C472.35,535.02 470.76,566.84 469.66,588.83 " fill="none" id="IF4-CustomerRepository" style="stroke: #383838; stroke-width: 1.0;"/><!--MD5=[de4b5685896f66131986cc2d78191d58]
link CustomerService to IF4--><path d="M476.03,385.12 C475.44,414.44 474.42,464.41 473.88,491.4 " fill="none" id="CustomerService-to-IF4" style="stroke: #383838; stroke-width: 1.0;"/><path d="M482.1871,498.8215 A9,9 0 0 0 465.276 498.4833" fill="none" style="stroke: #383838; stroke-width: 1.5;"/><!--MD5=[c65efcb2a6a0a054d4e8c40c534aef56]
link IF5 to AddressRepository--><path d="M319,520.18 C310.84,535.02 293.34,566.84 281.24,588.83 " fill="none" id="IF5-AddressRepository" style="stroke: #383838; stroke-width: 1.0;"/><!--MD5=[90a19ce40c3f1ca1bdd8207be7fb78a3]
link CustomerService to IF5--><path d="M452.59,385.12 C421.06,415.63 366.42,468.48 339.47,494.55 " fill="none" id="CustomerService-to-IF5" style="stroke: #383838; stroke-width: 1.0;"/><path d="M340.1402,505.6732 A9,9 0 0 0 328.3872 493.5091" fill="none" style="stroke: #383838; stroke-width: 1.5;"/><!--MD5=[0c58043e63b44432a8f5adb464c3c905]
link presentation to logic--><!--MD5=[19cf1190ca52af90fce53ca995832556]
link presentation to persistence--><!--MD5=[117fea87984e9a5cf2665c1f246bd17c]
link logic to persistence--><!--MD5=[76b902ebd6bee2125a6db6e4731da8f8]
link logic to chat--><!--MD5=[f43a067c2cb7cf733a2e73a6565a556e]
link paypal to logic--><!--MD5=[732be4b01ff696d5557f1d2ab1e1abe9]
@startuml

skinparam monochrome true

[Paypal\n(Gorbatschow)] as paypal
[Chat Service\n(Bielmeier)] as chat

interface " " as IFChat
chat -right-() IFChat

package "Presentation" as presentation {
  HTTP - [Web Application]
}


package "Logic" as logic {

  '[SessionService] -up-() SessionServiceIF
  'SessionServiceIF )-up- [Web Application]

  [CustomerService] -up-() CustomerServiceIF
  CustomerServiceIF )-up- [Web Application]
  CustomerServiceIF )- - paypal

  [BankingService] -up-() BankingServiceIF
  BankingServiceIF )- - [Web Application]
  BankingServiceIF )- - paypal

  [SupportService] -up-() SupportServiceIF
  SupportServiceIF )-up- [Web Application]
  IFChat )- - SupportService

  'chat -[hidden]-> [SupportService]



}

package "Persistence" as persistence {
  'interface " " as IF1
  interface " " as IF2
  interface " " as IF3
  interface " " as IF4
  interface " " as IF5

  '[SessionRepository] -up-() IF1
  'IF1 )-up- [SessionService]

  [AccountRepository] -up-() IF2
  IF2 )-up- [BankingService]

  [TransferRepository] -up-() IF3
  IF3 )-up- [BankingService]

  [CustomerRepository] -up-() IF4
  IF4 )-up- [CustomerService]

  [AddressRepository] -up-() IF5
  IF5 )-up- [CustomerService]
}

presentation -[hidden]-> logic
presentation -[hidden]-> persistence
logic -[hidden]-> persistence

logic -[hidden]> chat
paypal -[hidden]> logic




@enduml

@startuml

skinparam monochrome true

[Paypal\n(Gorbatschow)] as paypal
[Chat Service\n(Bielmeier)] as chat

interface " " as IFChat
chat -right-() IFChat

package "Presentation" as presentation {
  HTTP - [Web Application]
}


package "Logic" as logic {


  [CustomerService] -up-() CustomerServiceIF
  CustomerServiceIF )-up- [Web Application]
  CustomerServiceIF )- - paypal

  [BankingService] -up-() BankingServiceIF
  BankingServiceIF )- - [Web Application]
  BankingServiceIF )- - paypal

  [SupportService] -up-() SupportServiceIF
  SupportServiceIF )-up- [Web Application]
  IFChat )- - SupportService




}

package "Persistence" as persistence {
  interface " " as IF2
  interface " " as IF3
  interface " " as IF4
  interface " " as IF5


  [AccountRepository] -up-() IF2
  IF2 )-up- [BankingService]

  [TransferRepository] -up-() IF3
  IF3 )-up- [BankingService]

  [CustomerRepository] -up-() IF4
  IF4 )-up- [CustomerService]

  [AddressRepository] -up-() IF5
  IF5 )-up- [CustomerService]
}

presentation -[hidden]-> logic
presentation -[hidden]-> persistence
logic -[hidden]-> persistence

logic -[hidden]> chat
paypal -[hidden]> logic




@enduml

PlantUML version 1.2020.19(Mon Oct 12 17:10:01 CEST 2020)
(GPL source distribution)
Java Runtime: Java(TM) SE Runtime Environment
JVM: Java HotSpot(TM) 64-Bit Server VM
Default Encoding: Cp1252
Language: de
Country: DE
--></g></svg>