<?xml version="1.0" encoding="UTF-8" standalone="no"?><svg xmlns="http://www.w3.org/2000/svg" xmlns:xlink="http://www.w3.org/1999/xlink" contentScriptType="application/ecmascript" contentStyleType="text/css" height="634px" preserveAspectRatio="none" style="width:347px;height:634px;" version="1.1" viewBox="0 0 347 634" width="347px" zoomAndPan="magnify"><defs><filter height="300%" id="f1qop71v6wcttd" width="300%" x="-1" y="-1"><feGaussianBlur result="blurOut" stdDeviation="2.0"/><feColorMatrix in="blurOut" result="blurOut2" type="matrix" values="0 0 0 0 0 0 0 0 0 0 0 0 0 0 0 0 0 0 .4 0"/><feOffset dx="4.0" dy="4.0" in="blurOut2" result="blurOut3"/><feBlend in="SourceGraphic" in2="blurOut3" mode="normal"/></filter></defs><g><!--MD5=[7d75efcc7d06b347edea0516f6aac1d8]
class BaseEntity--><rect codeLine="6" fill="#F8F8F8" filter="url(#f1qop71v6wcttd)" height="61.8359" id="BaseEntity" style="stroke: #383838; stroke-width: 1.5;" width="90" x="157" y="14"/><ellipse cx="172" cy="30" fill="#CDCDCD" rx="11" ry="11" style="stroke: #383838; stroke-width: 1.0;"/><path d="M174.1875,31.7656 L170.0469,31.7656 L169.625,32.7969 L170.0469,32.7969 Q170.6563,32.7969 170.9219,33.0313 Q171.1875,33.2656 171.1875,33.6563 Q171.1875,34.0313 170.9219,34.2656 Q170.6563,34.5 170.0469,34.5 L167.75,34.5 Q167.1406,34.5 166.8906,34.2656 Q166.625,34.0313 166.625,33.6406 Q166.625,33.2656 166.9063,33.0313 Q167.1719,32.7813 167.7969,32.7969 L170.4688,26.1406 L169.3594,26.1406 Q168.75,26.1406 168.4844,25.9063 Q168.2188,25.6719 168.2188,25.2813 Q168.2188,24.9063 168.4844,24.6719 Q168.75,24.4375 169.3594,24.4375 L173.0313,24.4375 L176.4219,32.7969 Q177.0156,32.7969 177.2031,32.9375 Q177.5938,33.2031 177.5938,33.6563 Q177.5938,34.0313 177.3281,34.2656 Q177.0781,34.5 176.4688,34.5 L174.1719,34.5 Q173.5625,34.5 173.2969,34.2656 Q173.0313,34.0313 173.0313,33.6406 Q173.0313,33.2656 173.2969,33.0313 Q173.5625,32.7969 174.1719,32.7969 L174.5938,32.7969 L174.1875,31.7656 Z M173.4688,30.0625 L172.1094,26.6875 L170.7344,30.0625 L173.4688,30.0625 Z "/><text fill="#000000" font-family="sans-serif" font-size="12" font-style="italic" lengthAdjust="spacingAndGlyphs" textLength="58" x="186" y="34.9102">BaseEntity</text><line style="stroke: #383838; stroke-width: 1.5;" x1="158" x2="246" y1="46" y2="46"/><text fill="#000000" font-family="sans-serif" font-size="11" lengthAdjust="spacingAndGlyphs" textLength="38" x="163" y="61.4189">-id: long</text><line style="stroke: #383838; stroke-width: 1.5;" x1="158" x2="246" y1="67.8359" y2="67.8359"/><!--MD5=[f9a29335b499db729be669fd1bd54958]
class Account--><rect codeLine="13" fill="#F8F8F8" filter="url(#f1qop71v6wcttd)" height="61.8359" id="Account" style="stroke: #383838; stroke-width: 1.5;" width="75" x="232.5" y="552"/><ellipse cx="247.5" cy="568" fill="#C2C2C2" rx="11" ry="11" style="stroke: #383838; stroke-width: 1.0;"/><path d="M250.2656,563.875 Q250.4219,563.6563 250.6094,563.5469 Q250.7969,563.4375 251.0156,563.4375 Q251.3906,563.4375 251.625,563.7031 Q251.8594,563.9531 251.8594,564.5625 L251.8594,566.0156 Q251.8594,566.625 251.625,566.8906 Q251.3906,567.1563 251.0156,567.1563 Q250.6719,567.1563 250.4688,566.9531 Q250.2656,566.7656 250.1563,566.25 Q250.1094,565.8906 249.9219,565.7031 Q249.5938,565.3281 248.9844,565.1094 Q248.375,564.8906 247.75,564.8906 Q246.9844,564.8906 246.3438,565.2188 Q245.7188,565.5469 245.2188,566.2969 Q244.7344,567.0469 244.7344,568.0781 L244.7344,569.1719 Q244.7344,570.4063 245.625,571.2344 Q246.5156,572.0469 248.1094,572.0469 Q249.0469,572.0469 249.7031,571.7969 Q250.0938,571.6406 250.5156,571.2031 Q250.7813,570.9375 250.9219,570.8594 Q251.0781,570.7813 251.2813,570.7813 Q251.6094,570.7813 251.8594,571.0469 Q252.125,571.2969 252.125,571.6406 Q252.125,571.9844 251.7813,572.3906 Q251.2813,572.9688 250.4844,573.2969 Q249.4063,573.75 248.1094,573.75 Q246.5938,573.75 245.3906,573.125 Q244.4063,572.625 243.7188,571.5625 Q243.0313,570.4844 243.0313,569.2031 L243.0313,568.0469 Q243.0313,566.7188 243.6406,565.5781 Q244.2656,564.4219 245.3594,563.8125 Q246.4531,563.1875 247.6875,563.1875 Q248.4219,563.1875 249.0625,563.3594 Q249.7188,563.5156 250.2656,563.875 Z "/><text fill="#000000" font-family="sans-serif" font-size="12" lengthAdjust="spacingAndGlyphs" textLength="43" x="261.5" y="572.9102">Account</text><line style="stroke: #383838; stroke-width: 1.5;" x1="233.5" x2="306.5" y1="584" y2="584"/><text fill="#000000" font-family="sans-serif" font-size="11" lengthAdjust="spacingAndGlyphs" textLength="58" x="238.5" y="599.4189">-iban: String</text><line style="stroke: #383838; stroke-width: 1.5;" x1="233.5" x2="306.5" y1="605.8359" y2="605.8359"/><!--MD5=[0f39e4cb6f03951afbf6d14bd2505654]
class Address--><rect codeLine="17" fill="#F8F8F8" filter="url(#f1qop71v6wcttd)" height="117.1797" id="Address" style="stroke: #383838; stroke-width: 1.5;" width="87" x="61.5" y="144"/><ellipse cx="80.55" cy="160" fill="#C2C2C2" rx="11" ry="11" style="stroke: #383838; stroke-width: 1.0;"/><path d="M83.3156,155.875 Q83.4719,155.6563 83.6594,155.5469 Q83.8469,155.4375 84.0656,155.4375 Q84.4406,155.4375 84.675,155.7031 Q84.9094,155.9531 84.9094,156.5625 L84.9094,158.0156 Q84.9094,158.625 84.675,158.8906 Q84.4406,159.1563 84.0656,159.1563 Q83.7219,159.1563 83.5188,158.9531 Q83.3156,158.7656 83.2063,158.25 Q83.1594,157.8906 82.9719,157.7031 Q82.6438,157.3281 82.0344,157.1094 Q81.425,156.8906 80.8,156.8906 Q80.0344,156.8906 79.3938,157.2188 Q78.7688,157.5469 78.2688,158.2969 Q77.7844,159.0469 77.7844,160.0781 L77.7844,161.1719 Q77.7844,162.4063 78.675,163.2344 Q79.5656,164.0469 81.1594,164.0469 Q82.0969,164.0469 82.7531,163.7969 Q83.1438,163.6406 83.5656,163.2031 Q83.8313,162.9375 83.9719,162.8594 Q84.1281,162.7813 84.3313,162.7813 Q84.6594,162.7813 84.9094,163.0469 Q85.175,163.2969 85.175,163.6406 Q85.175,163.9844 84.8313,164.3906 Q84.3313,164.9688 83.5344,165.2969 Q82.4563,165.75 81.1594,165.75 Q79.6438,165.75 78.4406,165.125 Q77.4563,164.625 76.7688,163.5625 Q76.0813,162.4844 76.0813,161.2031 L76.0813,160.0469 Q76.0813,158.7188 76.6906,157.5781 Q77.3156,156.4219 78.4094,155.8125 Q79.5031,155.1875 80.7375,155.1875 Q81.4719,155.1875 82.1125,155.3594 Q82.7688,155.5156 83.3156,155.875 Z "/><text fill="#000000" font-family="sans-serif" font-size="12" lengthAdjust="spacingAndGlyphs" textLength="46" x="95.45" y="164.9102">Address</text><line style="stroke: #383838; stroke-width: 1.5;" x1="62.5" x2="147.5" y1="176" y2="176"/><text fill="#000000" font-family="sans-serif" font-size="11" lengthAdjust="spacingAndGlyphs" textLength="66" x="67.5" y="191.4189">-street: String</text><text fill="#000000" font-family="sans-serif" font-size="11" lengthAdjust="spacingAndGlyphs" textLength="62" x="67.5" y="205.2549">-houseNr: int</text><text fill="#000000" font-family="sans-serif" font-size="11" lengthAdjust="spacingAndGlyphs" textLength="69" x="67.5" y="219.0908">-zipCode: long</text><text fill="#000000" font-family="sans-serif" font-size="11" lengthAdjust="spacingAndGlyphs" textLength="55" x="67.5" y="232.9268">-city: String</text><text fill="#000000" font-family="sans-serif" font-size="11" lengthAdjust="spacingAndGlyphs" textLength="75" x="67.5" y="246.7627">-country: String</text><line style="stroke: #383838; stroke-width: 1.5;" x1="62.5" x2="147.5" y1="253.1797" y2="253.1797"/><!--MD5=[2ce0c9fb7f55b1e256ab28a8ea6b25ec]
class Customer--><rect codeLine="27" fill="#F8F8F8" filter="url(#f1qop71v6wcttd)" height="144.8516" id="Customer" style="stroke: #383838; stroke-width: 1.5;" width="125" x="42.5" y="322"/><ellipse cx="74.6" cy="338" fill="#C2C2C2" rx="11" ry="11" style="stroke: #383838; stroke-width: 1.0;"/><path d="M77.3656,333.875 Q77.5219,333.6563 77.7094,333.5469 Q77.8969,333.4375 78.1156,333.4375 Q78.4906,333.4375 78.725,333.7031 Q78.9594,333.9531 78.9594,334.5625 L78.9594,336.0156 Q78.9594,336.625 78.725,336.8906 Q78.4906,337.1563 78.1156,337.1563 Q77.7719,337.1563 77.5688,336.9531 Q77.3656,336.7656 77.2563,336.25 Q77.2094,335.8906 77.0219,335.7031 Q76.6938,335.3281 76.0844,335.1094 Q75.475,334.8906 74.85,334.8906 Q74.0844,334.8906 73.4438,335.2188 Q72.8188,335.5469 72.3188,336.2969 Q71.8344,337.0469 71.8344,338.0781 L71.8344,339.1719 Q71.8344,340.4063 72.725,341.2344 Q73.6156,342.0469 75.2094,342.0469 Q76.1469,342.0469 76.8031,341.7969 Q77.1938,341.6406 77.6156,341.2031 Q77.8813,340.9375 78.0219,340.8594 Q78.1781,340.7813 78.3813,340.7813 Q78.7094,340.7813 78.9594,341.0469 Q79.225,341.2969 79.225,341.6406 Q79.225,341.9844 78.8813,342.3906 Q78.3813,342.9688 77.5844,343.2969 Q76.5063,343.75 75.2094,343.75 Q73.6938,343.75 72.4906,343.125 Q71.5063,342.625 70.8188,341.5625 Q70.1313,340.4844 70.1313,339.2031 L70.1313,338.0469 Q70.1313,336.7188 70.7406,335.5781 Q71.3656,334.4219 72.4594,333.8125 Q73.5531,333.1875 74.7875,333.1875 Q75.5219,333.1875 76.1625,333.3594 Q76.8188,333.5156 77.3656,333.875 Z "/><text fill="#000000" font-family="sans-serif" font-size="12" lengthAdjust="spacingAndGlyphs" textLength="55" x="92.4" y="342.9102">Customer</text><line style="stroke: #383838; stroke-width: 1.5;" x1="43.5" x2="166.5" y1="354" y2="354"/><text fill="#000000" font-family="sans-serif" font-size="11" lengthAdjust="spacingAndGlyphs" textLength="84" x="48.5" y="369.4189">-forename: String</text><text fill="#000000" font-family="sans-serif" font-size="11" lengthAdjust="spacingAndGlyphs" textLength="80" x="48.5" y="383.2549">-surname: String</text><text fill="#000000" font-family="sans-serif" font-size="11" lengthAdjust="spacingAndGlyphs" textLength="86" x="48.5" y="397.0908">-username: String</text><text fill="#000000" font-family="sans-serif" font-size="11" lengthAdjust="spacingAndGlyphs" textLength="90" x="48.5" y="410.9268">-taxNumber: String</text><text fill="#000000" font-family="sans-serif" font-size="11" lengthAdjust="spacingAndGlyphs" textLength="75" x="48.5" y="424.7627">-birthDate: Date</text><text fill="#000000" font-family="sans-serif" font-size="11" lengthAdjust="spacingAndGlyphs" textLength="113" x="48.5" y="438.5986">-passwordHash: String</text><text fill="#000000" font-family="sans-serif" font-size="11" lengthAdjust="spacingAndGlyphs" textLength="88" x="48.5" y="452.4346">-password: String</text><line style="stroke: #383838; stroke-width: 1.5;" x1="43.5" x2="166.5" y1="458.8516" y2="458.8516"/><!--MD5=[7421f545a0d8420c5bec41e74b387d9c]
class Employee--><rect codeLine="37" fill="#F8F8F8" filter="url(#f1qop71v6wcttd)" height="75.6719" id="Employee" style="stroke: #383838; stroke-width: 1.5;" width="105" x="52.5" y="545"/><ellipse cx="75.6" cy="561" fill="#C2C2C2" rx="11" ry="11" style="stroke: #383838; stroke-width: 1.0;"/><path d="M78.3656,556.875 Q78.5219,556.6563 78.7094,556.5469 Q78.8969,556.4375 79.1156,556.4375 Q79.4906,556.4375 79.725,556.7031 Q79.9594,556.9531 79.9594,557.5625 L79.9594,559.0156 Q79.9594,559.625 79.725,559.8906 Q79.4906,560.1563 79.1156,560.1563 Q78.7719,560.1563 78.5688,559.9531 Q78.3656,559.7656 78.2563,559.25 Q78.2094,558.8906 78.0219,558.7031 Q77.6938,558.3281 77.0844,558.1094 Q76.475,557.8906 75.85,557.8906 Q75.0844,557.8906 74.4438,558.2188 Q73.8188,558.5469 73.3188,559.2969 Q72.8344,560.0469 72.8344,561.0781 L72.8344,562.1719 Q72.8344,563.4063 73.725,564.2344 Q74.6156,565.0469 76.2094,565.0469 Q77.1469,565.0469 77.8031,564.7969 Q78.1938,564.6406 78.6156,564.2031 Q78.8813,563.9375 79.0219,563.8594 Q79.1781,563.7813 79.3813,563.7813 Q79.7094,563.7813 79.9594,564.0469 Q80.225,564.2969 80.225,564.6406 Q80.225,564.9844 79.8813,565.3906 Q79.3813,565.9688 78.5844,566.2969 Q77.5063,566.75 76.2094,566.75 Q74.6938,566.75 73.4906,566.125 Q72.5063,565.625 71.8188,564.5625 Q71.1313,563.4844 71.1313,562.2031 L71.1313,561.0469 Q71.1313,559.7188 71.7406,558.5781 Q72.3656,557.4219 73.4594,556.8125 Q74.5531,556.1875 75.7875,556.1875 Q76.5219,556.1875 77.1625,556.3594 Q77.8188,556.5156 78.3656,556.875 Z "/><text fill="#000000" font-family="sans-serif" font-size="12" lengthAdjust="spacingAndGlyphs" textLength="55" x="91.4" y="565.9102">Employee</text><line style="stroke: #383838; stroke-width: 1.5;" x1="53.5" x2="156.5" y1="577" y2="577"/><text fill="#000000" font-family="sans-serif" font-size="11" lengthAdjust="spacingAndGlyphs" textLength="93" x="58.5" y="592.4189">-designation: String</text><text fill="#000000" font-family="sans-serif" font-size="11" lengthAdjust="spacingAndGlyphs" textLength="72" x="58.5" y="606.2549">-salary: double</text><line style="stroke: #383838; stroke-width: 1.5;" x1="53.5" x2="156.5" y1="612.6719" y2="612.6719"/><!--MD5=[2ca1536628238a7dc78c5d90808014f9]
class Session--><rect codeLine="42" fill="#F8F8F8" filter="url(#f1qop71v6wcttd)" height="75.6719" id="Session" style="stroke: #383838; stroke-width: 1.5;" width="78" x="7" y="7"/><ellipse cx="22" cy="23" fill="#C2C2C2" rx="11" ry="11" style="stroke: #383838; stroke-width: 1.0;"/><path d="M24.7656,18.875 Q24.9219,18.6563 25.1094,18.5469 Q25.2969,18.4375 25.5156,18.4375 Q25.8906,18.4375 26.125,18.7031 Q26.3594,18.9531 26.3594,19.5625 L26.3594,21.0156 Q26.3594,21.625 26.125,21.8906 Q25.8906,22.1563 25.5156,22.1563 Q25.1719,22.1563 24.9688,21.9531 Q24.7656,21.7656 24.6563,21.25 Q24.6094,20.8906 24.4219,20.7031 Q24.0938,20.3281 23.4844,20.1094 Q22.875,19.8906 22.25,19.8906 Q21.4844,19.8906 20.8438,20.2188 Q20.2188,20.5469 19.7188,21.2969 Q19.2344,22.0469 19.2344,23.0781 L19.2344,24.1719 Q19.2344,25.4063 20.125,26.2344 Q21.0156,27.0469 22.6094,27.0469 Q23.5469,27.0469 24.2031,26.7969 Q24.5938,26.6406 25.0156,26.2031 Q25.2813,25.9375 25.4219,25.8594 Q25.5781,25.7813 25.7813,25.7813 Q26.1094,25.7813 26.3594,26.0469 Q26.625,26.2969 26.625,26.6406 Q26.625,26.9844 26.2813,27.3906 Q25.7813,27.9688 24.9844,28.2969 Q23.9063,28.75 22.6094,28.75 Q21.0938,28.75 19.8906,28.125 Q18.9063,27.625 18.2188,26.5625 Q17.5313,25.4844 17.5313,24.2031 L17.5313,23.0469 Q17.5313,21.7188 18.1406,20.5781 Q18.7656,19.4219 19.8594,18.8125 Q20.9531,18.1875 22.1875,18.1875 Q22.9219,18.1875 23.5625,18.3594 Q24.2188,18.5156 24.7656,18.875 Z "/><text fill="#000000" font-family="sans-serif" font-size="12" lengthAdjust="spacingAndGlyphs" textLength="46" x="36" y="27.9102">Session</text><line style="stroke: #383838; stroke-width: 1.5;" x1="8" x2="84" y1="39" y2="39"/><text fill="#000000" font-family="sans-serif" font-size="11" lengthAdjust="spacingAndGlyphs" textLength="53" x="13" y="54.4189">-uuid: UUID</text><text fill="#000000" font-family="sans-serif" font-size="11" lengthAdjust="spacingAndGlyphs" textLength="53" x="13" y="68.2549">-date: Date</text><line style="stroke: #383838; stroke-width: 1.5;" x1="8" x2="84" y1="74.6719" y2="74.6719"/><!--MD5=[02f52dd76b6d93c484e98adf8cb1a92d]
class Transfer--><rect codeLine="47" fill="#F8F8F8" filter="url(#f1qop71v6wcttd)" height="103.3438" id="Transfer" style="stroke: #383838; stroke-width: 1.5;" width="103" x="206.5" y="343"/><ellipse cx="232.75" cy="359" fill="#C2C2C2" rx="11" ry="11" style="stroke: #383838; stroke-width: 1.0;"/><path d="M235.5156,354.875 Q235.6719,354.6563 235.8594,354.5469 Q236.0469,354.4375 236.2656,354.4375 Q236.6406,354.4375 236.875,354.7031 Q237.1094,354.9531 237.1094,355.5625 L237.1094,357.0156 Q237.1094,357.625 236.875,357.8906 Q236.6406,358.1563 236.2656,358.1563 Q235.9219,358.1563 235.7188,357.9531 Q235.5156,357.7656 235.4063,357.25 Q235.3594,356.8906 235.1719,356.7031 Q234.8438,356.3281 234.2344,356.1094 Q233.625,355.8906 233,355.8906 Q232.2344,355.8906 231.5938,356.2188 Q230.9688,356.5469 230.4688,357.2969 Q229.9844,358.0469 229.9844,359.0781 L229.9844,360.1719 Q229.9844,361.4063 230.875,362.2344 Q231.7656,363.0469 233.3594,363.0469 Q234.2969,363.0469 234.9531,362.7969 Q235.3438,362.6406 235.7656,362.2031 Q236.0313,361.9375 236.1719,361.8594 Q236.3281,361.7813 236.5313,361.7813 Q236.8594,361.7813 237.1094,362.0469 Q237.375,362.2969 237.375,362.6406 Q237.375,362.9844 237.0313,363.3906 Q236.5313,363.9688 235.7344,364.2969 Q234.6563,364.75 233.3594,364.75 Q231.8438,364.75 230.6406,364.125 Q229.6563,363.625 228.9688,362.5625 Q228.2813,361.4844 228.2813,360.2031 L228.2813,359.0469 Q228.2813,357.7188 228.8906,356.5781 Q229.5156,355.4219 230.6094,354.8125 Q231.7031,354.1875 232.9375,354.1875 Q233.6719,354.1875 234.3125,354.3594 Q234.9688,354.5156 235.5156,354.875 Z "/><text fill="#000000" font-family="sans-serif" font-size="12" lengthAdjust="spacingAndGlyphs" textLength="46" x="249.25" y="363.9102">Transfer</text><line style="stroke: #383838; stroke-width: 1.5;" x1="207.5" x2="308.5" y1="375" y2="375"/><text fill="#000000" font-family="sans-serif" font-size="11" lengthAdjust="spacingAndGlyphs" textLength="43" x="212.5" y="390.4189">-euro: int</text><text fill="#000000" font-family="sans-serif" font-size="11" lengthAdjust="spacingAndGlyphs" textLength="42" x="212.5" y="404.2549">-cent: int</text><text fill="#000000" font-family="sans-serif" font-size="11" lengthAdjust="spacingAndGlyphs" textLength="53" x="212.5" y="418.0908">-date: Date</text><text fill="#000000" font-family="sans-serif" font-size="11" lengthAdjust="spacingAndGlyphs" textLength="91" x="212.5" y="431.9268">-description: String</text><line style="stroke: #383838; stroke-width: 1.5;" x1="207.5" x2="308.5" y1="438.3438" y2="438.3438"/><!--MD5=[34597a76d6e7db1b47c381bededa1ac9]
reverse link BaseEntity to Account--><path codeLine="54" d="M187,96.06 C187,96.06 187,573 187,573 C187,573 210.42,573 232.39,573 " fill="none" id="BaseEntity-backto-Account" style="stroke: #383838; stroke-width: 1.0;"/><polygon fill="none" points="180,96.06,187,76.06,194,96.06,180,96.06" style="stroke: #383838; stroke-width: 1.0;"/><!--MD5=[ce4d489da85c354997fcd4d08f86025b]
reverse link BaseEntity to Address--><path codeLine="55" d="M136.88,56 C136.88,56 116.75,56 116.75,56 C116.75,56 116.75,103 116.75,143.76 " fill="none" id="BaseEntity-backto-Address" style="stroke: #383838; stroke-width: 1.0;"/><polygon fill="none" points="136.88,49,156.88,56,136.88,63,136.88,49" style="stroke: #383838; stroke-width: 1.0;"/><!--MD5=[bc54b0ba153481f05c659c81931e9d93]
reverse link BaseEntity to Customer--><path codeLine="56" d="M162.25,96.02 C162.25,96.02 162.25,321.9 162.25,321.9 " fill="none" id="BaseEntity-backto-Customer" style="stroke: #383838; stroke-width: 1.0;"/><polygon fill="none" points="155.25,96.02,162.25,76.02,169.25,96.02,155.25,96.02" style="stroke: #383838; stroke-width: 1.0;"/><!--MD5=[7439bcb19bcdd426da7532971967ac87]
link Session to BaseEntity--><path codeLine="57" d="M85.37,35 C85.37,35 136.85,35 136.85,35 " fill="none" id="Session-to-BaseEntity" style="stroke: #383838; stroke-width: 1.0;"/><polygon fill="none" points="136.85,28,156.85,35,136.85,42,136.85,28" style="stroke: #383838; stroke-width: 1.0;"/><!--MD5=[74fe72e9d3051d925909632a312fbfe4]
reverse link BaseEntity to Transfer--><path codeLine="58" d="M226.75,96.02 C226.75,96.02 226.75,342.86 226.75,342.86 " fill="none" id="BaseEntity-backto-Transfer" style="stroke: #383838; stroke-width: 1.0;"/><polygon fill="none" points="219.75,96.02,226.75,76.02,233.75,96.02,219.75,96.02" style="stroke: #383838; stroke-width: 1.0;"/><!--MD5=[b4094daf9f7d590234aa4fa208e27ce7]
link Session to Customer--><path codeLine="61" d="M52,83.07 C52,140.21 52,249.2 52,321.88 " fill="none" id="Session-Customer" style="stroke: #383838; stroke-width: 1.0;"/><text fill="#000000" font-family="sans-serif" font-size="13" lengthAdjust="spacingAndGlyphs" textLength="20" x="31.3375" y="104.2517">0..*</text><text fill="#000000" font-family="sans-serif" font-size="13" lengthAdjust="spacingAndGlyphs" textLength="7" x="39.1734" y="311.087">1</text><!--MD5=[cc86f912536a41a358bf474feaa8a8fa]
link Customer to Account--><path codeLine="62" d="M162.5,467.09 C162.5,524.13 162.5,594 162.5,594 C162.5,594 219.4,594 219.4,594 " fill="none" id="Customer-to-Account" style="stroke: #383838; stroke-width: 1.0;"/><polygon fill="#383838" points="232.4,594,226.4,590,220.4,594,226.4,598,232.4,594" style="stroke: #383838; stroke-width: 1.0;"/><text fill="#000000" font-family="sans-serif" font-size="13" lengthAdjust="spacingAndGlyphs" textLength="7" x="160.6469" y="488.2902">1</text><text fill="#000000" font-family="sans-serif" font-size="13" lengthAdjust="spacingAndGlyphs" textLength="20" x="204.5163" y="592.0347">0..*</text><!--MD5=[8b6ec0a2a166b0af4960f5d0cb8a9ecc]
link Address to Customer--><path codeLine="63" d="M105,261.15 C105,280.34 105,301.89 105,321.97 " fill="none" id="Address-Customer" style="stroke: #383838; stroke-width: 1.0;"/><text fill="#000000" font-family="sans-serif" font-size="13" lengthAdjust="spacingAndGlyphs" textLength="7" x="97.5734" y="282.7786">1</text><text fill="#000000" font-family="sans-serif" font-size="13" lengthAdjust="spacingAndGlyphs" textLength="20" x="83.9688" y="311.1862">1..*</text><!--MD5=[36563a756307975dce7f8a8b2e0cd6b8]
link Transfer to Account--><path codeLine="64" d="M282.5,446.01 C282.5,479.91 282.5,523.17 282.5,551.91 " fill="none" id="Transfer-Account" style="stroke: #383838; stroke-width: 1.0;"/><text fill="#000000" font-family="sans-serif" font-size="13" lengthAdjust="spacingAndGlyphs" textLength="28" x="311" y="511.4951">pays</text><text fill="#000000" font-family="sans-serif" font-size="13" lengthAdjust="spacingAndGlyphs" textLength="20" x="264.5391" y="467.8743">0..*</text><text fill="#000000" font-family="sans-serif" font-size="13" lengthAdjust="spacingAndGlyphs" textLength="7" x="277.4688" y="540.9106">1</text><!--MD5=[36563a756307975dce7f8a8b2e0cd6b8]
link Transfer to Account--><path codeLine="65" d="M257.5,446.01 C257.5,479.91 257.5,523.17 257.5,551.91 " fill="none" id="Transfer-Account-1" style="stroke: #383838; stroke-width: 1.0;"/><text fill="#000000" font-family="sans-serif" font-size="13" lengthAdjust="spacingAndGlyphs" textLength="47" x="222" y="511.4951">receives</text><text fill="#000000" font-family="sans-serif" font-size="13" lengthAdjust="spacingAndGlyphs" textLength="20" x="236.0234" y="467.8743">0..*</text><text fill="#000000" font-family="sans-serif" font-size="13" lengthAdjust="spacingAndGlyphs" textLength="7" x="247" y="540.9106">1</text><!--MD5=[46a6c4790507828b8686583c940a361f]
link Customer to Employee--><path codeLine="66" d="M122.5,467.11 C122.5,493.66 122.5,522.63 122.5,544.97 " fill="none" id="Customer-Employee" style="stroke: #383838; stroke-width: 1.0;"/><text fill="#000000" font-family="sans-serif" font-size="13" lengthAdjust="spacingAndGlyphs" textLength="20" x="103.2148" y="488.3121">0..*</text><text fill="#000000" font-family="sans-serif" font-size="13" lengthAdjust="spacingAndGlyphs" textLength="7" x="118.0813" y="534.041">1</text><!--MD5=[7b38b1a03d69635baab249727a051e09]
reverse link Customer to Employee--><path codeLine="69" d="M87.5,487.11 C87.5,487.11 87.5,544.97 87.5,544.97 " fill="none" id="Customer-backto-Employee" style="stroke: #383838; stroke-width: 1.0;"/><polygon fill="none" points="80.5,487.11,87.5,467.11,94.5,487.11,80.5,487.11" style="stroke: #383838; stroke-width: 1.0;"/><!--MD5=[8750c777050a21474ca68abf4efe27b5]
@startuml
skinparam classAttributeIconSize 0
skinparam linetype ortho
skinparam monochrome true

' Declare Classes
abstract class BaseEntity{
   - id: long
   '- getId(): long
   '+ equals(object: Object): boolean
   '+ hashCode(): int
}

class Account{
  - iban: String
}

class Address{
  - street: String
  - houseNr: int
  - zipCode: long
  - city: String
  - country: String
  '+ getResidents(): List<Customer>
  '+ addResident(customer: Customer): void
}

class Customer{
  - forename: String
  - surname: String
  - username: String
  - taxNumber: String
  - birthDate: Date
  - passwordHash: String
  - password: String
}

class Employee{
   - designation: String
   - salary: double
}

class Session{
  - uuid: UUID
  - date: Date
}

class Transfer{
  - euro: int
  - cent: int
  - date: Date
  - description: String
}

BaseEntity <|- - Account
BaseEntity <|- - Address
BaseEntity <|- - Customer
BaseEntity <|-left- Session
BaseEntity <|-right- Transfer

' Declare relationship of classes
Session "0..*" - - "1" Customer
Customer "1" - -* "0..*" Account
Address "1" - - "1..*" Customer
Transfer "0..*" - - "1" Account : pays
Transfer "0..*" - - "1" Account : receives
Customer "0..*" - - "1" Employee


Customer <|-down- Employee

'BaseEntity -[hidden]> Transfer
'Transfer -[hidden]-> Address
'Transfer -[hidden]> Account

@enduml

@startuml
skinparam classAttributeIconSize 0
skinparam linetype ortho
skinparam monochrome true

abstract class BaseEntity{
   - id: long
}

class Account{
  - iban: String
}

class Address{
  - street: String
  - houseNr: int
  - zipCode: long
  - city: String
  - country: String
}

class Customer{
  - forename: String
  - surname: String
  - username: String
  - taxNumber: String
  - birthDate: Date
  - passwordHash: String
  - password: String
}

class Employee{
   - designation: String
   - salary: double
}

class Session{
  - uuid: UUID
  - date: Date
}

class Transfer{
  - euro: int
  - cent: int
  - date: Date
  - description: String
}

BaseEntity <|- - Account
BaseEntity <|- - Address
BaseEntity <|- - Customer
BaseEntity <|-left- Session
BaseEntity <|-right- Transfer

Session "0..*" - - "1" Customer
Customer "1" - -* "0..*" Account
Address "1" - - "1..*" Customer
Transfer "0..*" - - "1" Account : pays
Transfer "0..*" - - "1" Account : receives
Customer "0..*" - - "1" Employee


Customer <|-down- Employee


@enduml

PlantUML version 1.2020.19(Mon Oct 12 17:10:01 CEST 2020)
(GPL source distribution)
Java Runtime: Java(TM) SE Runtime Environment
JVM: Java HotSpot(TM) 64-Bit Server VM
Default Encoding: Cp1252
Language: de
Country: DE
--></g></svg>