<?xml version="1.0" encoding="UTF-8" standalone="no"?><svg xmlns="http://www.w3.org/2000/svg" xmlns:xlink="http://www.w3.org/1999/xlink" contentScriptType="application/ecmascript" contentStyleType="text/css" height="782px" preserveAspectRatio="none" style="width:1065px;height:782px;" version="1.1" viewBox="0 0 1065 782" width="1065px" zoomAndPan="magnify"><defs><filter height="300%" id="ft3v78dnh1sgs" width="300%" x="-1" y="-1"><feGaussianBlur result="blurOut" stdDeviation="2.0"/><feColorMatrix in="blurOut" result="blurOut2" type="matrix" values="0 0 0 0 0 0 0 0 0 0 0 0 0 0 0 0 0 0 .4 0"/><feOffset dx="4.0" dy="4.0" in="blurOut2" result="blurOut3"/><feBlend in="SourceGraphic" in2="blurOut3" mode="normal"/></filter></defs><g><!--MD5=[3dcf69e4e87a10af00fce8354034ba4c]
cluster presentation--><polygon fill="#FFFFFF" filter="url(#ft3v78dnh1sgs)" points="398,6,471,6,478,29.6094,660,29.6094,660,122,398,122,398,6" style="stroke: #000000; stroke-width: 1.5;"/><line style="stroke: #000000; stroke-width: 1.5;" x1="398" x2="478" y1="29.6094" y2="29.6094"/><text fill="#000000" font-family="sans-serif" font-size="14" font-weight="bold" lengthAdjust="spacingAndGlyphs" textLength="67" x="402" y="22.5332">Boundary</text><!--MD5=[cbbcdfd2ff286cf453505908e439d9c0]
cluster logic--><polygon fill="#FFFFFF" filter="url(#ft3v78dnh1sgs)" points="246,162,304,162,311,185.6094,968,185.6094,968,523,246,523,246,162" style="stroke: #000000; stroke-width: 1.5;"/><line style="stroke: #000000; stroke-width: 1.5;" x1="246" x2="311" y1="185.6094" y2="185.6094"/><text fill="#000000" font-family="sans-serif" font-size="14" font-weight="bold" lengthAdjust="spacingAndGlyphs" textLength="52" x="250" y="178.5332">Control</text><!--MD5=[bc1b6a63fef26b0dbe93a6a9270e3b0e]
cluster entity--><polygon fill="#FFFFFF" filter="url(#ft3v78dnh1sgs)" points="16,563,61,563,68,586.6094,1022,586.6094,1022,775,16,775,16,563" style="stroke: #000000; stroke-width: 1.5;"/><line style="stroke: #000000; stroke-width: 1.5;" x1="16" x2="68" y1="586.6094" y2="586.6094"/><text fill="#000000" font-family="sans-serif" font-size="14" font-weight="bold" lengthAdjust="spacingAndGlyphs" textLength="39" x="20" y="579.5332">Entity</text><!--MD5=[96f7e1299d4a43069e6ed32352fcac20]
entity HTTP--><ellipse cx="431" cy="74" fill="#F8F8F8" filter="url(#ft3v78dnh1sgs)" rx="8" ry="8" style="stroke: #383838; stroke-width: 1.5;"/><text fill="#000000" font-family="sans-serif" font-size="14" lengthAdjust="spacingAndGlyphs" textLength="36" x="413" y="105.5332">HTTP</text><!--MD5=[5f72b1e1b6bcd2ac922e89c6c0b5c71b]
entity Web Application--><rect fill="#F8F8F8" filter="url(#ft3v78dnh1sgs)" height="47.6094" style="stroke: #383838; stroke-width: 1.5;" width="142" x="475" y="50"/><rect fill="#F8F8F8" height="10" style="stroke: #383838; stroke-width: 1.5;" width="15" x="597" y="55"/><rect fill="#F8F8F8" height="2" style="stroke: #383838; stroke-width: 1.5;" width="4" x="595" y="57"/><rect fill="#F8F8F8" height="2" style="stroke: #383838; stroke-width: 1.5;" width="4" x="595" y="61"/><text fill="#000000" font-family="sans-serif" font-size="14" lengthAdjust="spacingAndGlyphs" textLength="102" x="490" y="84.5332">Web Application</text><!--MD5=[4662bc22cd1a5219d3b09b73e91a55ce]
entity paypal--><rect fill="#F8F8F8" filter="url(#ft3v78dnh1sgs)" height="65.2188" style="stroke: #383838; stroke-width: 1.5;" width="133" x="635.5" y="206"/><rect fill="#F8F8F8" height="10" style="stroke: #383838; stroke-width: 1.5;" width="15" x="748.5" y="211"/><rect fill="#F8F8F8" height="2" style="stroke: #383838; stroke-width: 1.5;" width="4" x="746.5" y="213"/><rect fill="#F8F8F8" height="2" style="stroke: #383838; stroke-width: 1.5;" width="4" x="746.5" y="217"/><text fill="#000000" font-family="sans-serif" font-size="14" lengthAdjust="spacingAndGlyphs" textLength="43" x="650.5" y="240.5332">Paypal</text><text fill="#000000" font-family="sans-serif" font-size="14" lengthAdjust="spacingAndGlyphs" textLength="93" x="650.5" y="258.1426">(Gorbatschow)</text><!--MD5=[570597a2b6eaab3b76b5cf13edca2979]
entity chat--><rect fill="#F8F8F8" filter="url(#ft3v78dnh1sgs)" height="65.2188" style="stroke: #383838; stroke-width: 1.5;" width="121" x="803.5" y="206"/><rect fill="#F8F8F8" height="10" style="stroke: #383838; stroke-width: 1.5;" width="15" x="904.5" y="211"/><rect fill="#F8F8F8" height="2" style="stroke: #383838; stroke-width: 1.5;" width="4" x="902.5" y="213"/><rect fill="#F8F8F8" height="2" style="stroke: #383838; stroke-width: 1.5;" width="4" x="902.5" y="217"/><text fill="#000000" font-family="sans-serif" font-size="14" lengthAdjust="spacingAndGlyphs" textLength="81" x="818.5" y="240.5332">Chat Service</text><text fill="#000000" font-family="sans-serif" font-size="14" lengthAdjust="spacingAndGlyphs" textLength="68" x="818.5" y="258.1426">(Bielmeier)</text><!--MD5=[d2f5cb2edd50ea0698f8feadbed97ba1]
entity SessionService--><rect fill="#F8F8F8" filter="url(#ft3v78dnh1sgs)" height="47.6094" style="stroke: #383838; stroke-width: 1.5;" width="137" x="626.5" y="451"/><rect fill="#F8F8F8" height="10" style="stroke: #383838; stroke-width: 1.5;" width="15" x="743.5" y="456"/><rect fill="#F8F8F8" height="2" style="stroke: #383838; stroke-width: 1.5;" width="4" x="741.5" y="458"/><rect fill="#F8F8F8" height="2" style="stroke: #383838; stroke-width: 1.5;" width="4" x="741.5" y="462"/><text fill="#000000" font-family="sans-serif" font-size="14" lengthAdjust="spacingAndGlyphs" textLength="97" x="641.5" y="485.5332">SessionService</text><!--MD5=[a631d6567d8dd234ffb888032849242d]
entity SessionServiceIF--><ellipse cx="678" cy="361" fill="#F8F8F8" filter="url(#ft3v78dnh1sgs)" rx="8" ry="8" style="stroke: #383838; stroke-width: 1.5;"/><text fill="#000000" font-family="sans-serif" font-size="14" lengthAdjust="spacingAndGlyphs" textLength="109" x="623.5" y="392.5332">SessionServiceIF</text><!--MD5=[76d0c25527896f67cb6aa4ccab7e7ab8]
entity CustomerService--><rect fill="#F8F8F8" filter="url(#ft3v78dnh1sgs)" height="47.6094" style="stroke: #383838; stroke-width: 1.5;" width="148" x="443" y="451"/><rect fill="#F8F8F8" height="10" style="stroke: #383838; stroke-width: 1.5;" width="15" x="571" y="456"/><rect fill="#F8F8F8" height="2" style="stroke: #383838; stroke-width: 1.5;" width="4" x="569" y="458"/><rect fill="#F8F8F8" height="2" style="stroke: #383838; stroke-width: 1.5;" width="4" x="569" y="462"/><text fill="#000000" font-family="sans-serif" font-size="14" lengthAdjust="spacingAndGlyphs" textLength="108" x="458" y="485.5332">CustomerService</text><!--MD5=[5566f6f4b3f002cfd9abc05aa20a8f06]
entity CustomerServiceIF--><ellipse cx="513" cy="361" fill="#F8F8F8" filter="url(#ft3v78dnh1sgs)" rx="8" ry="8" style="stroke: #383838; stroke-width: 1.5;"/><text fill="#000000" font-family="sans-serif" font-size="14" lengthAdjust="spacingAndGlyphs" textLength="120" x="453" y="392.5332">CustomerServiceIF</text><!--MD5=[ba723757ffde46ba429618d659790656]
entity BankingService--><rect fill="#F8F8F8" filter="url(#ft3v78dnh1sgs)" height="47.6094" style="stroke: #383838; stroke-width: 1.5;" width="138" x="270" y="451"/><rect fill="#F8F8F8" height="10" style="stroke: #383838; stroke-width: 1.5;" width="15" x="388" y="456"/><rect fill="#F8F8F8" height="2" style="stroke: #383838; stroke-width: 1.5;" width="4" x="386" y="458"/><rect fill="#F8F8F8" height="2" style="stroke: #383838; stroke-width: 1.5;" width="4" x="386" y="462"/><text fill="#000000" font-family="sans-serif" font-size="14" lengthAdjust="spacingAndGlyphs" textLength="98" x="285" y="485.5332">BankingService</text><!--MD5=[74d1d086c912edf19e2fe8e565a7e7ff]
entity BankingServiceIF--><ellipse cx="347" cy="361" fill="#F8F8F8" filter="url(#ft3v78dnh1sgs)" rx="8" ry="8" style="stroke: #383838; stroke-width: 1.5;"/><text fill="#000000" font-family="sans-serif" font-size="14" lengthAdjust="spacingAndGlyphs" textLength="110" x="292" y="392.5332">BankingServiceIF</text><!--MD5=[e0dbcdd0b6f6a8c0a95380b7bdd4cfaa]
entity SupportService--><rect fill="#F8F8F8" filter="url(#ft3v78dnh1sgs)" height="47.6094" style="stroke: #383838; stroke-width: 1.5;" width="137" x="798.5" y="451"/><rect fill="#F8F8F8" height="10" style="stroke: #383838; stroke-width: 1.5;" width="15" x="915.5" y="456"/><rect fill="#F8F8F8" height="2" style="stroke: #383838; stroke-width: 1.5;" width="4" x="913.5" y="458"/><rect fill="#F8F8F8" height="2" style="stroke: #383838; stroke-width: 1.5;" width="4" x="913.5" y="462"/><text fill="#000000" font-family="sans-serif" font-size="14" lengthAdjust="spacingAndGlyphs" textLength="97" x="813.5" y="485.5332">SupportService</text><!--MD5=[a3e93cdb79a1999521bbbf4acc8f9bf6]
entity SupportServiceIF--><ellipse cx="837" cy="361" fill="#F8F8F8" filter="url(#ft3v78dnh1sgs)" rx="8" ry="8" style="stroke: #383838; stroke-width: 1.5;"/><text fill="#000000" font-family="sans-serif" font-size="14" lengthAdjust="spacingAndGlyphs" textLength="109" x="782.5" y="392.5332">SupportServiceIF</text><!--MD5=[96949bab5c81bdcb09aed95ef177eaf4]
entity IF1--><ellipse cx="830" cy="625" fill="#F8F8F8" filter="url(#ft3v78dnh1sgs)" rx="8" ry="8" style="stroke: #383838; stroke-width: 1.5;"/><!--MD5=[e8d73f926623c6a4f73b0854fa679a99]
entity IF2--><ellipse cx="185" cy="625" fill="#F8F8F8" filter="url(#ft3v78dnh1sgs)" rx="8" ry="8" style="stroke: #383838; stroke-width: 1.5;"/><!--MD5=[25260a715962a01155005ddcd5495a88]
entity IF3--><ellipse cx="328" cy="625" fill="#F8F8F8" filter="url(#ft3v78dnh1sgs)" rx="8" ry="8" style="stroke: #383838; stroke-width: 1.5;"/><!--MD5=[2396bdf90cac695aadc7a209d4e74ed4]
entity IF4--><ellipse cx="517" cy="625" fill="#F8F8F8" filter="url(#ft3v78dnh1sgs)" rx="8" ry="8" style="stroke: #383838; stroke-width: 1.5;"/><!--MD5=[9aea221644c2df2b6f73de2b0e108e2e]
entity IF5--><ellipse cx="661" cy="625" fill="#F8F8F8" filter="url(#ft3v78dnh1sgs)" rx="8" ry="8" style="stroke: #383838; stroke-width: 1.5;"/><!--MD5=[cc33ee68753cc2405ee06b12bde22df7]
entity SessionRepository--><rect fill="#F8F8F8" filter="url(#ft3v78dnh1sgs)" height="47.6094" style="stroke: #383838; stroke-width: 1.5;" width="158" x="832" y="703"/><rect fill="#F8F8F8" height="10" style="stroke: #383838; stroke-width: 1.5;" width="15" x="970" y="708"/><rect fill="#F8F8F8" height="2" style="stroke: #383838; stroke-width: 1.5;" width="4" x="968" y="710"/><rect fill="#F8F8F8" height="2" style="stroke: #383838; stroke-width: 1.5;" width="4" x="968" y="714"/><text fill="#000000" font-family="sans-serif" font-size="14" lengthAdjust="spacingAndGlyphs" textLength="118" x="847" y="737.5332">SessionRepository</text><!--MD5=[5cc9ac11a3f0b123b98e0809612ba330]
entity AccountRepository--><rect fill="#F8F8F8" filter="url(#ft3v78dnh1sgs)" height="47.6094" style="stroke: #383838; stroke-width: 1.5;" width="159" x="40.5" y="703"/><rect fill="#F8F8F8" height="10" style="stroke: #383838; stroke-width: 1.5;" width="15" x="179.5" y="708"/><rect fill="#F8F8F8" height="2" style="stroke: #383838; stroke-width: 1.5;" width="4" x="177.5" y="710"/><rect fill="#F8F8F8" height="2" style="stroke: #383838; stroke-width: 1.5;" width="4" x="177.5" y="714"/><text fill="#000000" font-family="sans-serif" font-size="14" lengthAdjust="spacingAndGlyphs" textLength="119" x="55.5" y="737.5332">AccountRepository</text><!--MD5=[e7bc3a3fa62c1df21bef3869c0c37950]
entity TransferRepository--><rect fill="#F8F8F8" filter="url(#ft3v78dnh1sgs)" height="47.6094" style="stroke: #383838; stroke-width: 1.5;" width="162" x="235" y="703"/><rect fill="#F8F8F8" height="10" style="stroke: #383838; stroke-width: 1.5;" width="15" x="377" y="708"/><rect fill="#F8F8F8" height="2" style="stroke: #383838; stroke-width: 1.5;" width="4" x="375" y="710"/><rect fill="#F8F8F8" height="2" style="stroke: #383838; stroke-width: 1.5;" width="4" x="375" y="714"/><text fill="#000000" font-family="sans-serif" font-size="14" lengthAdjust="spacingAndGlyphs" textLength="122" x="250" y="737.5332">TransferRepository</text><!--MD5=[b3990cbb38841f9d8fcdaf5297d6dc08]
entity CustomerRepository--><rect fill="#F8F8F8" filter="url(#ft3v78dnh1sgs)" height="47.6094" style="stroke: #383838; stroke-width: 1.5;" width="169" x="432.5" y="703"/><rect fill="#F8F8F8" height="10" style="stroke: #383838; stroke-width: 1.5;" width="15" x="581.5" y="708"/><rect fill="#F8F8F8" height="2" style="stroke: #383838; stroke-width: 1.5;" width="4" x="579.5" y="710"/><rect fill="#F8F8F8" height="2" style="stroke: #383838; stroke-width: 1.5;" width="4" x="579.5" y="714"/><text fill="#000000" font-family="sans-serif" font-size="14" lengthAdjust="spacingAndGlyphs" textLength="129" x="447.5" y="737.5332">CustomerRepository</text><!--MD5=[dba78d1918f1bbe6079f47e9b7a97428]
entity AddressRepository--><rect fill="#F8F8F8" filter="url(#ft3v78dnh1sgs)" height="47.6094" style="stroke: #383838; stroke-width: 1.5;" width="160" x="637" y="703"/><rect fill="#F8F8F8" height="10" style="stroke: #383838; stroke-width: 1.5;" width="15" x="777" y="708"/><rect fill="#F8F8F8" height="2" style="stroke: #383838; stroke-width: 1.5;" width="4" x="775" y="710"/><rect fill="#F8F8F8" height="2" style="stroke: #383838; stroke-width: 1.5;" width="4" x="775" y="714"/><text fill="#000000" font-family="sans-serif" font-size="14" lengthAdjust="spacingAndGlyphs" textLength="120" x="652" y="737.5332">AddressRepository</text><!--MD5=[99d0499ea58cdc2f64f8969b709c1dca]
link HTTP to Web Application--><path d="M440.43,74 C451.84,74 463.25,74 474.66,74 " fill="none" id="HTTP-Web Application" style="stroke: #383838; stroke-width: 1.0;"/><!--MD5=[fc226dc9b77288bbf0408d8c4b2c8847]
link SessionServiceIF to SessionService--><path d="M679.22,370.05 C681.75,386.71 687.63,425.47 691.46,450.67 " fill="none" id="SessionServiceIF-SessionService" style="stroke: #383838; stroke-width: 1.0;"/><!--MD5=[94cb2be6564b3818166a3f279d1d73cf]
link Web Application to SessionServiceIF--><path d="M541.13,98.14 C534.28,136.63 525.77,215.11 556,271 C578.78,313.12 631.17,340.45 659.31,352.64 " fill="none" id="Web Application-to-SessionServiceIF" style="stroke: #383838; stroke-width: 1.0;"/><path d="M669.1926,347.5886 A9,9 0 0 0 662.7197 363.2155" fill="none" style="stroke: #383838; stroke-width: 1.5;"/><!--MD5=[345e67e9b89db1f3c643240576a4cc39]
link paypal to SessionServiceIF--><path d="M695.69,271.16 C691.21,293.67 685.35,323.11 681.63,341.8 " fill="none" id="paypal-to-SessionServiceIF" style="stroke: #383838; stroke-width: 1.0;"/><path d="M688.5559,350.2852 A9,9 0 0 0 671.9681 346.9773" fill="none" style="stroke: #383838; stroke-width: 1.5;"/><!--MD5=[b8c269d75471c9234d9dbe75e9c0858b]
link CustomerServiceIF to CustomerService--><path d="M513.29,370.05 C513.88,386.71 515.27,425.47 516.17,450.67 " fill="none" id="CustomerServiceIF-CustomerService" style="stroke: #383838; stroke-width: 1.0;"/><!--MD5=[73e4159f538ab447a78d5176e3c7b516]
link Web Application to CustomerServiceIF--><path d="M518.7,98.03 C505.83,110.69 491.83,127.56 485,146 C459.28,215.39 489.91,305.09 505.25,342.46 " fill="none" id="Web Application-to-CustomerServiceIF" style="stroke: #383838; stroke-width: 1.0;"/><path d="M515.857,345.7765 A9,9 0 0 0 500.2927 352.3986" fill="none" style="stroke: #383838; stroke-width: 1.5;"/><!--MD5=[b7a4177f005e04bcb7ef38f45f7f268d]
link paypal to CustomerServiceIF--><path d="M652.34,271.16 C612.23,296.73 558.09,331.26 530.59,348.78 " fill="none" id="paypal-to-CustomerServiceIF" style="stroke: #383838; stroke-width: 1.0;"/><path d="M529.1868,359.7132 A9,9 0 0 0 520.1074 345.4421" fill="none" style="stroke: #383838; stroke-width: 1.5;"/><!--MD5=[2da2f9c21c05087eb502daaeaaa1e29b]
link BankingServiceIF to BankingService--><path d="M346.42,370.05 C345.24,386.71 342.47,425.47 340.67,450.67 " fill="none" id="BankingServiceIF-BankingService" style="stroke: #383838; stroke-width: 1.0;"/><!--MD5=[2ac747bdea84b6ecd9bf0ecf21c63a9e]
link Web Application to BankingServiceIF--><path d="M515.66,98.24 C499.96,111.21 481.17,128.29 467,146 C414.21,211.97 371.19,304.18 354.48,342.37 " fill="none" id="Web Application-to-BankingServiceIF" style="stroke: #383838; stroke-width: 1.0;"/><path d="M359.475,352.159 A9,9 0 0 0 343.9407 345.4669" fill="none" style="stroke: #383838; stroke-width: 1.5;"/><!--MD5=[84a0d355776489a713196d16031f7abe]
link paypal to BankingServiceIF--><path d="M635.42,261.29 C579.85,279.58 498.62,306.57 428,331 C406.69,338.37 382.35,347.13 365.96,353.08 " fill="none" id="paypal-to-BankingServiceIF" style="stroke: #383838; stroke-width: 1.0;"/><path d="M362.2398,363.4305 A9,9 0 0 0 356.4439 347.54" fill="none" style="stroke: #383838; stroke-width: 1.5;"/><!--MD5=[880938a235d0da089e04b7aa2937496c]
link SupportServiceIF to SupportService--><path d="M839.16,370.05 C843.62,386.71 854,425.47 860.75,450.67 " fill="none" id="SupportServiceIF-SupportService" style="stroke: #383838; stroke-width: 1.0;"/><!--MD5=[46f0b5ed647fb037920e20fa160e829c]
link Web Application to SupportServiceIF--><path d="M551.94,98.04 C564.22,144.13 593.31,245.46 618,271 C625.46,278.71 766.87,333.22 818.41,352.92 " fill="none" id="Web Application-to-SupportServiceIF" style="stroke: #383838; stroke-width: 1.0;"/><path d="M828.1045,347.5612 A9,9 0 0 0 822.065 363.3606" fill="none" style="stroke: #383838; stroke-width: 1.5;"/><!--MD5=[2ecf1f15a44317e029134adc7c37f52e]
link chat to SupportServiceIF--><path d="M856.91,271.16 C851.86,293.67 845.26,323.11 841.08,341.8 " fill="none" id="chat-to-SupportServiceIF" style="stroke: #383838; stroke-width: 1.0;"/><path d="M847.7956,350.495 A9,9 0 0 0 831.2902 346.7976" fill="none" style="stroke: #383838; stroke-width: 1.5;"/><!--MD5=[98cb1b446e13e0bc41ec0086ac4d082e]
link chat to SupportService--><!--MD5=[c22e27395cb36ddffc84a9a51754be31]
link IF1 to SessionRepository--><path d="M836.63,634.18 C848.64,649.02 874.42,680.84 892.23,702.83 " fill="none" id="IF1-SessionRepository" style="stroke: #383838; stroke-width: 1.0;"/><!--MD5=[1d664451de222963e7ffb318cdb39843]
link SessionService to IF1--><path d="M716.09,499.12 C743.8,529.5 791.71,582.03 815.6,608.21 " fill="none" id="SessionService-to-IF1" style="stroke: #383838; stroke-width: 1.0;"/><path d="M826.6204,607.7545 A9,9 0 0 0 814.1288 619.1589" fill="none" style="stroke: #383838; stroke-width: 1.5;"/><!--MD5=[fc68055896bfddcdcad2a1f1b59e7010]
link IF2 to AccountRepository--><path d="M179.68,634.18 C170.04,649.02 149.35,680.84 135.06,702.83 " fill="none" id="IF2-AccountRepository" style="stroke: #383838; stroke-width: 1.0;"/><!--MD5=[cc158b8c26f6f1d4f86a5c7769849562]
link BankingService to IF2--><path d="M314.94,499.12 C283.2,529.63 228.2,582.48 201.08,608.55 " fill="none" id="BankingService-to-IF2" style="stroke: #383838; stroke-width: 1.0;"/><path d="M201.6924,619.6892 A9,9 0 0 0 189.9635 607.5018" fill="none" style="stroke: #383838; stroke-width: 1.5;"/><!--MD5=[fc44de56ffcc237b2cdfd17bb1168158]
link IF3 to TransferRepository--><path d="M327.02,634.18 C325.24,649.02 321.42,680.84 318.78,702.83 " fill="none" id="IF3-TransferRepository" style="stroke: #383838; stroke-width: 1.0;"/><!--MD5=[accaeb773c120abe7ae03c01d5cf2479]
link BankingService to IF3--><path d="M337.28,499.12 C335.1,528.44 331.39,578.41 329.38,605.4 " fill="none" id="BankingService-to-IF3" style="stroke: #383838; stroke-width: 1.0;"/><path d="M337.2725,613.2886 A9,9 0 0 0 320.4048 612.032" fill="none" style="stroke: #383838; stroke-width: 1.5;"/><!--MD5=[b3a337f14674d60cd4507df9af8dfb9d]
link IF4 to CustomerRepository--><path d="M517,634.18 C517,649.02 517,680.84 517,702.83 " fill="none" id="IF4-CustomerRepository" style="stroke: #383838; stroke-width: 1.0;"/><!--MD5=[de4b5685896f66131986cc2d78191d58]
link CustomerService to IF4--><path d="M517,499.12 C517,528.44 517,578.41 517,605.4 " fill="none" id="CustomerService-to-IF4" style="stroke: #383838; stroke-width: 1.0;"/><path d="M525.4572,612.6518 A9,9 0 0 0 508.5428 612.6518" fill="none" style="stroke: #383838; stroke-width: 1.5;"/><!--MD5=[c65efcb2a6a0a054d4e8c40c534aef56]
link IF5 to AddressRepository--><path d="M665.58,634.18 C673.89,649.02 691.71,680.84 704.03,702.83 " fill="none" id="IF5-AddressRepository" style="stroke: #383838; stroke-width: 1.0;"/><!--MD5=[90a19ce40c3f1ca1bdd8207be7fb78a3]
link CustomerService to IF5--><path d="M539.5,499.12 C569.18,529.63 620.6,582.48 645.97,608.55 " fill="none" id="CustomerService-to-IF5" style="stroke: #383838; stroke-width: 1.0;"/><path d="M656.8604,607.6239 A9,9 0 0 0 644.7439 619.426" fill="none" style="stroke: #383838; stroke-width: 1.5;"/><!--MD5=[0c58043e63b44432a8f5adb464c3c905]
link presentation to logic--><!--MD5=[e01baf3ed3754ed38ef172b8100b84dd]
link presentation to entity--><!--MD5=[91b9811c3cad3913a74581599e9f4b2c]
link logic to entity--><!--MD5=[0894fad001c1cce0ea6016d0db31e3c6]
@startuml


skinparam monochrome true

package "Boundary" as presentation {
  HTTP - [Web Application]
}

package "Control" as logic {
  [Paypal\n(Gorbatschow)] as paypal
  [Chat Service\n(Bielmeier)] as chat

  [SessionService] -up-() SessionServiceIF
  SessionServiceIF )-up- [Web Application]
  SessionServiceIF )-up- paypal

  [CustomerService] -up-() CustomerServiceIF
  CustomerServiceIF )-up- [Web Application]
  CustomerServiceIF )-up- paypal

  [BankingService] -up-() BankingServiceIF
  BankingServiceIF )-up- [Web Application]
  BankingServiceIF )-up- paypal

  [SupportService] -up-() SupportServiceIF
  SupportServiceIF )-up- [Web Application]
  SupportServiceIF )-up- chat

  chat -[hidden]-> [SupportService]



}

package "Entity" as entity {
  interface " " as IF1
  interface " " as IF2
  interface " " as IF3
  interface " " as IF4
  interface " " as IF5

  [SessionRepository] -up-() IF1
  IF1 )-up- [SessionService]

  [AccountRepository] -up-() IF2
  IF2 )-up- [BankingService]

  [TransferRepository] -up-() IF3
  IF3 )-up- [BankingService]

  [CustomerRepository] -up-() IF4
  IF4 )-up- [CustomerService]

  [AddressRepository] -up-() IF5
  IF5 )-up- [CustomerService]
}

presentation -[hidden]-> logic
presentation -[hidden]-> entity
logic -[hidden]-> entity




@enduml

PlantUML version 1.2020.19(Mon Oct 12 17:10:01 CEST 2020)
(GPL source distribution)
Java Runtime: Java(TM) SE Runtime Environment
JVM: Java HotSpot(TM) 64-Bit Server VM
Default Encoding: Cp1252
Language: de
Country: DE
--></g></svg>