<?xml version="1.0" encoding="UTF-8" standalone="no"?><svg xmlns="http://www.w3.org/2000/svg" xmlns:xlink="http://www.w3.org/1999/xlink" contentScriptType="application/ecmascript" contentStyleType="text/css" height="614px" preserveAspectRatio="none" style="width:587px;height:614px;" version="1.1" viewBox="0 0 587 614" width="587px" zoomAndPan="magnify"><defs><filter height="300%" id="f1lrermjpte0r8" width="300%" x="-1" y="-1"><feGaussianBlur result="blurOut" stdDeviation="2.0"/><feColorMatrix in="blurOut" result="blurOut2" type="matrix" values="0 0 0 0 0 0 0 0 0 0 0 0 0 0 0 0 0 0 .4 0"/><feOffset dx="4.0" dy="4.0" in="blurOut2" result="blurOut3"/><feBlend in="SourceGraphic" in2="blurOut3" mode="normal"/></filter></defs><g><!--MD5=[88ca6809156eb879dc8ea75d9b4ec4d1]
cluster Banking--><rect fill="#FFFFFF" filter="url(#f1lrermjpte0r8)" height="503" style="stroke: #000000; stroke-width: 1.5;" width="411" x="7" y="7"/><text fill="#000000" font-family="sans-serif" font-size="14" font-weight="bold" lengthAdjust="spacingAndGlyphs" textLength="57" x="184" y="23.5332">Banking</text><ellipse cx="110.1143" cy="263.2229" fill="#F8F8F8" filter="url(#f1lrermjpte0r8)" rx="76.6143" ry="17.7229" style="stroke: #383838; stroke-width: 1.5;"/><text fill="#000000" font-family="sans-serif" font-size="14" lengthAdjust="spacingAndGlyphs" textLength="118" x="51.1143" y="268.5275">Register Customer</text><ellipse cx="330.0337" cy="329.8067" fill="#F8F8F8" filter="url(#f1lrermjpte0r8)" rx="67.0337" ry="15.8067" style="stroke: #383838; stroke-width: 1.5;"/><text fill="#000000" font-family="sans-serif" font-size="14" lengthAdjust="spacingAndGlyphs" textLength="93" x="283.5337" y="335.1114">Find Customer</text><ellipse cx="329.8989" cy="194.7798" fill="#F8F8F8" filter="url(#f1lrermjpte0r8)" rx="71.8989" ry="16.7798" style="stroke: #383838; stroke-width: 1.5;"/><text fill="#000000" font-family="sans-serif" font-size="14" lengthAdjust="spacingAndGlyphs" textLength="106" x="276.8989" y="200.0845">Delete Customer</text><ellipse cx="329.8614" cy="58.9517" fill="#F8F8F8" filter="url(#f1lrermjpte0r8)" rx="58.8614" ry="15.4517" style="stroke: #383838; stroke-width: 1.5;"/><text fill="#000000" font-family="sans-serif" font-size="14" lengthAdjust="spacingAndGlyphs" textLength="79" x="290.3614" y="64.2564">Get Address</text><ellipse cx="329.9949" cy="125.899" fill="#F8F8F8" filter="url(#f1lrermjpte0r8)" rx="69.9949" ry="16.399" style="stroke: #383838; stroke-width: 1.5;"/><text fill="#000000" font-family="sans-serif" font-size="14" lengthAdjust="spacingAndGlyphs" textLength="101" x="279.4949" y="131.2037">Update Address</text><ellipse cx="109.8716" cy="332.1743" fill="#F8F8F8" filter="url(#f1lrermjpte0r8)" rx="68.8716" ry="16.1743" style="stroke: #383838; stroke-width: 1.5;"/><text fill="#000000" font-family="sans-serif" font-size="14" lengthAdjust="spacingAndGlyphs" textLength="98" x="60.8716" y="337.479">Create Account</text><ellipse cx="330.1311" cy="263.0262" fill="#F8F8F8" filter="url(#f1lrermjpte0r8)" rx="68.1311" ry="16.0262" style="stroke: #383838; stroke-width: 1.5;"/><text fill="#000000" font-family="sans-serif" font-size="14" lengthAdjust="spacingAndGlyphs" textLength="96" x="282.1311" y="268.3309">Delete Account</text><ellipse cx="110.0964" cy="59.0193" fill="#F8F8F8" filter="url(#f1lrermjpte0r8)" rx="65.5964" ry="15.5193" style="stroke: #383838; stroke-width: 1.5;"/><text fill="#000000" font-family="sans-serif" font-size="14" lengthAdjust="spacingAndGlyphs" textLength="89" x="65.5964" y="64.324">Open Session</text><ellipse cx="330.1543" cy="407.9517" fill="#F8F8F8" filter="url(#f1lrermjpte0r8)" rx="58.1543" ry="15.4517" style="stroke: #383838; stroke-width: 1.5;"/><text fill="#000000" font-family="sans-serif" font-size="14" lengthAdjust="spacingAndGlyphs" textLength="78" x="291.1543" y="413.2564">Use Support</text><ellipse cx="110.1143" cy="401.2229" fill="#F8F8F8" filter="url(#f1lrermjpte0r8)" rx="76.6143" ry="17.7229" style="stroke: #383838; stroke-width: 1.5;"/><text fill="#000000" font-family="sans-serif" font-size="14" lengthAdjust="spacingAndGlyphs" textLength="118" x="51.1143" y="406.5275">Get Account Value</text><ellipse cx="109.9661" cy="473.7932" fill="#F8F8F8" filter="url(#f1lrermjpte0r8)" rx="86.9661" ry="19.7932" style="stroke: #383838; stroke-width: 1.5;"/><text fill="#000000" font-family="sans-serif" font-size="14" lengthAdjust="spacingAndGlyphs" textLength="143" x="38.4661" y="479.0979">Get Account Transfers</text><ellipse cx="110.1188" cy="125.8238" fill="#F8F8F8" filter="url(#f1lrermjpte0r8)" rx="69.6188" ry="16.3238" style="stroke: #383838; stroke-width: 1.5;"/><text fill="#000000" font-family="sans-serif" font-size="14" lengthAdjust="spacingAndGlyphs" textLength="100" x="60.1188" y="131.1284">Transfer Money</text><ellipse cx="109.9949" cy="193.899" fill="#F8F8F8" filter="url(#f1lrermjpte0r8)" rx="69.9949" ry="16.399" style="stroke: #383838; stroke-width: 1.5;"/><text fill="#000000" font-family="sans-serif" font-size="14" lengthAdjust="spacingAndGlyphs" textLength="101" x="59.4949" y="199.2037">Mandate Money</text><!--MD5=[8e9b2d9d80e066cced8e5d90e9bdea61]
entity c--><ellipse cx="330" cy="536" fill="#F8F8F8" filter="url(#f1lrermjpte0r8)" rx="8" ry="8" style="stroke: #383838; stroke-width: 1.5;"/><path d="M330,544 L330,571 M317,552 L343,552 M330,571 L317,586 M330,571 L343,586 " fill="none" filter="url(#f1lrermjpte0r8)" style="stroke: #383838; stroke-width: 1.5;"/><text fill="#000000" font-family="sans-serif" font-size="14" lengthAdjust="spacingAndGlyphs" textLength="61" x="299.5" y="606.0332">Customer</text><!--MD5=[e32773a0da76c445e84e5885468a4484]
entity e--><ellipse cx="549" cy="252" fill="#F8F8F8" filter="url(#f1lrermjpte0r8)" rx="8" ry="8" style="stroke: #383838; stroke-width: 1.5;"/><path d="M549,260 L549,287 M536,268 L562,268 M549,287 L536,302 M549,287 L562,302 " fill="none" filter="url(#f1lrermjpte0r8)" style="stroke: #383838; stroke-width: 1.5;"/><text fill="#000000" font-family="sans-serif" font-size="14" lengthAdjust="spacingAndGlyphs" textLength="62" x="518" y="322.0332">Employee</text><!--MD5=[570597a2b6eaab3b76b5cf13edca2979]
entity chat--><ellipse cx="549" cy="410" fill="#F8F8F8" filter="url(#f1lrermjpte0r8)" rx="12" ry="12" style="stroke: #383838; stroke-width: 1.5;"/><line style="stroke: #383838; stroke-width: 1.5;" x1="537" x2="561" y1="424" y2="424"/><text fill="#000000" font-family="sans-serif" font-size="14" lengthAdjust="spacingAndGlyphs" textLength="30" x="534" y="440.5332">Chat</text><!--MD5=[a7735e767aa86eebe444b5075fc993c7]
link c to e--><path d="M360.81,554.94 C381.1,544.92 407.52,529.49 426,510 C438.71,496.59 486.11,405.81 517.94,343.46 " fill="none" id="c-to-e" style="stroke: #383838; stroke-width: 1.0;"/><polygon fill="none" points="511.75,340.19,527.07,325.54,524.23,346.54,511.75,340.19" style="stroke: #383838; stroke-width: 1.0;"/><!--MD5=[0750bae649bba517013f6d2ddc00b20a]
reverse link uc11 to c--><path d="M167.53,277.74 C178.44,282.72 188.95,289.31 197,298 C263.6,369.95 205.05,427.48 258,510 C268.4,526.21 284.83,540.05 299.27,550.15 " fill="none" id="uc11-backto-c" style="stroke: #383838; stroke-width: 1.0;"/><polygon fill="#383838" points="162.84,275.71,169.4987,282.9668,167.4254,277.7036,172.6885,275.6303,162.84,275.71" style="stroke: #383838; stroke-width: 1.0;"/><!--MD5=[a8502da0e2a97a807084b55d93e49e30]
reverse link uc16 to c--><path d="M163.87,345.33 C175.86,350.29 187.77,356.99 197,366 C246.74,414.55 216.31,454.39 258,510 C269.27,525.03 285.23,538.52 299.17,548.71 " fill="none" id="uc16-backto-c" style="stroke: #383838; stroke-width: 1.0;"/><polygon fill="#383838" points="159.1,343.45,165.9968,350.4809,163.7492,345.2897,168.9404,343.0421,159.1,343.45" style="stroke: #383838; stroke-width: 1.0;"/><!--MD5=[74af7b9beac97157247d54ba03b4303d]
link e to uc12--><path d="M517.84,290.39 C483.79,297.61 427.68,309.51 385.82,318.38 " fill="none" id="e-to-uc12" style="stroke: #383838; stroke-width: 1.0;"/><polygon fill="#383838" points="380.78,319.45,390.4167,321.4831,385.6698,318.4063,388.7467,313.6594,380.78,319.45" style="stroke: #383838; stroke-width: 1.0;"/><!--MD5=[01f852f723579516bb24f51b3c7cae60]
link e to uc13--><path d="M517.72,265.45 C508.37,260.1 497.92,254.5 488,250 C452.93,234.07 411.79,219.82 380.42,209.81 " fill="none" id="e-to-uc13" style="stroke: #383838; stroke-width: 1.0;"/><polygon fill="#383838" points="375.48,208.24,382.8484,214.7751,380.2458,209.7525,385.2683,207.1499,375.48,208.24" style="stroke: #383838; stroke-width: 1.0;"/><!--MD5=[874f875b7411d5015c8041a196a73f46]
link e to uc14--><path d="M533.24,242.21 C515.17,197.54 480.14,128.26 426,92 C412.06,82.67 395.21,75.69 379.59,70.62 " fill="none" id="e-to-uc14" style="stroke: #383838; stroke-width: 1.0;"/><polygon fill="#383838" points="374.79,69.1,382.1761,75.615,379.5599,70.5995,384.5753,67.9832,374.79,69.1" style="stroke: #383838; stroke-width: 1.0;"/><!--MD5=[3dd15030e115705e631dc42ba8291197]
link e to uc15--><path d="M517.78,243.57 C495.31,216.21 462.35,181.3 426,160 C412.29,151.96 396.36,145.35 381.51,140.16 " fill="none" id="e-to-uc15" style="stroke: #383838; stroke-width: 1.0;"/><polygon fill="#383838" points="376.52,138.46,383.7269,145.1727,381.2475,140.0882,386.332,137.6088,376.52,138.46" style="stroke: #383838; stroke-width: 1.0;"/><!--MD5=[877e6b803e7c8512c543cff1734550b7]
link e to uc17--><path d="M517.71,281.07 C486.99,278.1 438.41,273.39 398.5,269.53 " fill="none" id="e-to-uc17" style="stroke: #383838; stroke-width: 1.0;"/><polygon fill="#383838" points="393.18,269.02,401.7484,273.8762,398.1563,269.5062,402.5263,265.9141,393.18,269.02" style="stroke: #383838; stroke-width: 1.0;"/><!--MD5=[3a6f16a45b1ed29d18f2f8f7f333ad37]
reverse link uc21 to c--><path d="M166.18,70.59 C177.85,75.43 189.03,82.29 197,92 C256.57,164.55 212.53,427.87 258,510 C267.56,527.27 284.52,541.41 299.46,551.41 " fill="none" id="uc21-backto-c" style="stroke: #383838; stroke-width: 1.0;"/><polygon fill="#383838" points="161.51,68.76,168.4181,75.7798,166.1622,70.5922,171.3497,68.3363,161.51,68.76" style="stroke: #383838; stroke-width: 1.0;"/><!--MD5=[aa48d0553ccaadd9c1af3d605ce6903b]
link uc31 to chat--><path d="M387.17,410.85 C433.22,413.18 495.83,416.36 527.64,417.97 " fill="none" id="uc31-to-chat" style="stroke: #383838; stroke-width: 1.0;"/><polygon fill="#383838" points="532.84,418.23,524.0573,413.773,527.8466,417.9732,523.6464,421.7625,532.84,418.23" style="stroke: #383838; stroke-width: 1.0;"/><!--MD5=[ccf5115888626c19bdf9395eb3cffc68]
reverse link uc31 to c--><path d="M330,428.79 C330,453.42 330,495.05 330,526.38 " fill="none" id="uc31-backto-c" style="stroke: #383838; stroke-width: 1.0;"/><polygon fill="#383838" points="330,423.51,326,432.51,330,428.51,334,432.51,330,423.51" style="stroke: #383838; stroke-width: 1.0;"/><text fill="#000000" font-family="sans-serif" font-size="13" lengthAdjust="spacingAndGlyphs" textLength="23" x="298.5" y="472.4951">Ask</text><text fill="#000000" font-family="sans-serif" font-size="13" lengthAdjust="spacingAndGlyphs" textLength="52" x="284" y="488.8467">Question</text><!--MD5=[2788e32d678298093f8e0b0bebbd177d]
link e to uc31--><path d="M517.95,322.5 C509.08,332.1 498.83,341.71 488,349 C454.64,371.46 411.58,386.85 378.99,396.27 " fill="none" id="e-to-uc31" style="stroke: #383838; stroke-width: 1.0;"/><polygon fill="#383838" points="373.86,397.73,383.6077,399.138,378.6724,396.3734,381.4371,391.4381,373.86,397.73" style="stroke: #383838; stroke-width: 1.0;"/><text fill="#000000" font-family="sans-serif" font-size="13" lengthAdjust="spacingAndGlyphs" textLength="43" x="439.5" y="329.4951">Answer</text><text fill="#000000" font-family="sans-serif" font-size="13" lengthAdjust="spacingAndGlyphs" textLength="52" x="435" y="345.8467">Question</text><!--MD5=[7e5d90e345fffe4640844c8dff94e79c]
reverse link uc41 to c--><path d="M161.77,416.82 C173.94,421.89 186.45,428.25 197,436 C231.34,461.25 227.79,479.93 258,510 C270.75,522.69 286.07,535.48 299.22,545.8 " fill="none" id="uc41-backto-c" style="stroke: #383838; stroke-width: 1.0;"/><polygon fill="#383838" points="156.95,414.87,163.802,421.9446,161.5874,416.7392,166.7928,414.5247,156.95,414.87" style="stroke: #383838; stroke-width: 1.0;"/><!--MD5=[9c85be515a50f0533800359627e7fff6]
reverse link uc42 to c--><path d="M156.36,493.56 C199.27,512.06 262.45,539.3 299.29,555.19 " fill="none" id="uc42-backto-c" style="stroke: #383838; stroke-width: 1.0;"/><polygon fill="#383838" points="151.75,491.57,158.4466,498.7919,156.3457,493.5396,161.598,491.4387,151.75,491.57" style="stroke: #383838; stroke-width: 1.0;"/><!--MD5=[fe14c2cffb9021b682dc15d7777411a0]
reverse link uc43 to c--><path d="M166.95,139 C178.24,143.93 189.06,150.71 197,160 C238.11,208.13 216.65,236.73 228,299 C244.99,392.18 211.47,427.5 258,510 C267.62,527.05 284.38,541.11 299.21,551.11 " fill="none" id="uc43-backto-c" style="stroke: #383838; stroke-width: 1.0;"/><polygon fill="#383838" points="162.09,137,168.8891,144.1255,166.7134,138.9037,171.9351,136.728,162.09,137" style="stroke: #383838; stroke-width: 1.0;"/><!--MD5=[9b84724ed79cf4350ad9e775071c2505]
reverse link uc44 to c--><path d="M165.98,207.36 C177.43,212.28 188.57,218.96 197,228 C228.15,261.42 217.41,281.56 228,326 C247.21,406.6 216.56,438.25 258,510 C267.79,526.95 284.56,541 299.35,551.03 " fill="none" id="uc44-backto-c" style="stroke: #383838; stroke-width: 1.0;"/><polygon fill="#383838" points="161.05,205.36,167.8944,212.4419,165.6854,207.2342,170.8932,205.0252,161.05,205.36" style="stroke: #383838; stroke-width: 1.0;"/><!--MD5=[faad59fa2d204daa29ded518a206a487]
link uc21 to uc12--><!--MD5=[c924391a7c8d710a3199196920068c2f]
link uc21 to uc13--><!--MD5=[a8914b31170e3e6fffc817d76af440c0]
link uc21 to uc14--><!--MD5=[6eaba2ed186f22d3e3c92b2100f55c0f]
link uc21 to uc15--><!--MD5=[aaa57c62f38c7b4b378e409e8c73ed6b]
link uc21 to uc17--><!--MD5=[462420572a7be8566dcf534dba64f37f]
link uc31 to uc17--><!--MD5=[fd2895cd4cc37f0c724b9a14591f03ad]
link e to chat--><!--MD5=[1764e1d26c8b28f7976ad61a9b357eef]
link chat to c--><!--MD5=[5d91a42492bdae96a00b0fb4b7199fd9]
@startuml

left to right direction
skinparam monochrome true

actor "Customer" as c
actor "Employee" as e

e <|-up- c

entity "Chat" as chat


rectangle Banking {

  usecase "Register Customer" as uc11
  usecase "Find Customer" as uc12
  usecase "Delete Customer" as uc13
  usecase "Get Address" as uc14
  usecase "Update Address" as uc15
  usecase "Create Account" as uc16
  usecase "Delete Account" as uc17

  usecase "Open Session" as uc21

  usecase "Use Support" as uc31


  usecase "Get Account Value" as uc41
  usecase "Get Account Transfers" as uc42
  usecase "Transfer Money" as uc43
  usecase "Mandate Money" as uc44



}

' Customer Service
uc11 <- - c
uc16 <- - c

e - -> uc12
e - -> uc13
e - -> uc14
e - -> uc15
e - -> uc17


' Session Service
uc21 <- - c


' Support Service
uc31 - -> chat
uc31 <- - c : Ask\nQuestion
e - -> uc31 : Answer\nQuestion


' Banking Service
uc41 <- - c
uc42 <- - c
uc43 <- - c
uc44 <- - c

' Layout
uc21 -[hidden]-> uc12
uc21 -[hidden]-> uc13
uc21 -[hidden]-> uc14
uc21 -[hidden]-> uc15
uc21 -[hidden]-> uc17
uc31 -[hidden]> uc17
e -[hidden]> chat
chat -[hidden]> c

@enduml

@startuml

left to right direction
skinparam monochrome true

actor "Customer" as c
actor "Employee" as e

e <|-up- c

entity "Chat" as chat


rectangle Banking {

  usecase "Register Customer" as uc11
  usecase "Find Customer" as uc12
  usecase "Delete Customer" as uc13
  usecase "Get Address" as uc14
  usecase "Update Address" as uc15
  usecase "Create Account" as uc16
  usecase "Delete Account" as uc17

  usecase "Open Session" as uc21

  usecase "Use Support" as uc31


  usecase "Get Account Value" as uc41
  usecase "Get Account Transfers" as uc42
  usecase "Transfer Money" as uc43
  usecase "Mandate Money" as uc44



}

uc11 <- - c
uc16 <- - c

e - -> uc12
e - -> uc13
e - -> uc14
e - -> uc15
e - -> uc17


uc21 <- - c


uc31 - -> chat
uc31 <- - c : Ask\nQuestion
e - -> uc31 : Answer\nQuestion


uc41 <- - c
uc42 <- - c
uc43 <- - c
uc44 <- - c

uc21 -[hidden]-> uc12
uc21 -[hidden]-> uc13
uc21 -[hidden]-> uc14
uc21 -[hidden]-> uc15
uc21 -[hidden]-> uc17
uc31 -[hidden]> uc17
e -[hidden]> chat
chat -[hidden]> c

@enduml

PlantUML version 1.2020.19(Mon Oct 12 17:10:01 CEST 2020)
(GPL source distribution)
Java Runtime: Java(TM) SE Runtime Environment
JVM: Java HotSpot(TM) 64-Bit Server VM
Default Encoding: Cp1252
Language: de
Country: DE
--></g></svg>